<?xml version="1.0" encoding="utf-8"?>
<!-- Generator: Adobe Illustrator 24.1.2, SVG Export Plug-In . SVG Version: 6.00 Build 0)  -->
<svg version="1.1" id="图层_1" xmlns="http://www.w3.org/2000/svg" xmlns:xlink="http://www.w3.org/1999/xlink" x="0px" y="0px"
	 viewBox="0 0 200 200" style="enable-background:new 0 0 200 200;" xml:space="preserve">
<style type="text/css">
	.st0{fill:#FFFFFF;}
</style>
<g>
	<path class="st0" d="M98.36,121.83c-2.4-1.59-5.86-1.92-7.68-0.75c-1.82,1.2-3.21,3.24-3.1,4.57c0.13,1.32,0.7,3.93,1.31,5.8
		c0.6,1.86,3.87,2.58,7.26,1.59c3.39-0.98,6.26-3.26,6.37-5.06C102.64,126.19,100.76,123.42,98.36,121.83z"/>
	<path class="st0" d="M101.5,67.46c-1.06-0.49-2.89-0.78-4.07-0.65c-1.18,0.14-2.73,1.62-3.47,3.33c0,0,0,0-0.51,0.97
		c-0.52,0.97-0.41,0.71-0.52,0.97c-1.36,3.56,6.96,3.95,9.16,3.12c2.2-0.82,3.4-2.7,2.66-4.17
		C104.03,69.55,102.56,67.95,101.5,67.46z"/>
	<path class="st0" d="M115.84,113.81c-0.88-0.07-2.9,0.3-4.48,0.81c-1.58,0.51-2.87,2.13-2.85,3.59c0.03,1.48,1.71,3.46,3.74,4.45
		c2.03,0.97,4.99,0.78,6.55-0.43c1.57-1.21,1.91-3.59,0.74-5.26C118.4,115.32,116.73,113.89,115.84,113.81z"/>
	<path class="st0" d="M98.49,85.28c-1.72-4.46-8.58-5.95-15.32-3.35c-6.75,2.6-10.83,8.31-9.11,12.76
		c1.72,4.44,8.58,5.95,15.32,3.35C96.13,95.44,100.21,89.73,98.49,85.28z"/>
	<path class="st0" d="M139.12,81.23c1.29-1.13,2.47-3.7,2.58-5.72c0.11-2.02-1.1-3.92-2.67-4.22c-1.59-0.3-3.68-0.18-4.63,0.27
		c-0.96,0.45-1.96,2.03-2.2,3.49c-0.26,1.45,0.67,3.91,2.05,5.44C135.61,82.02,137.81,82.36,139.12,81.23z"/>
	<path class="st0" d="M139.89,87.73c-1.28-0.23-2.72,2.23-3.2,5.46c-0.48,3.23,0.4,6.37,1.94,6.98c1.54,0.61,3.67-0.29,4.7-2.01
		c1.04-1.72,1.21-4.67,0.4-6.57C142.91,89.7,141.18,87.96,139.89,87.73z"/>
	<path class="st0" d="M100,0C44.77,0,0,44.77,0,100s44.77,100,100,100s100-44.77,100-100S155.23,0,100,0z M116.87,133.71
		c-25.09,10.63-50.64,14.35-58.91-3.3c-4.51-10.48,3.69-14.84,9.74-17.14c6.04-2.3,10.29-7.02,5.53-11.96
		c-4.77-4.94-11.14,0.08-14.95-3.87c-3.82-3.97-3.19-6.93-2.61-9.26c1.42-5.66,18.82-22.99,45.23-27.04
		c24.96-3.83,44.31,2.08,48.79,20.78C154.17,100.61,141.97,123.06,116.87,133.71z"/>
	<path class="st0" d="M135.06,105.79c-1.32-0.71-3.4-0.8-4.61-0.2c-1.22,0.6-2.31,2.09-2.41,3.3c-0.12,1.21,2.18,4.01,5.08,6.25
		c0,0,0,0,0.81,0.1c0.81,0.1,0.81,0.1,0.81,0.1c1.5-1.03,2.74-3.29,2.73-5.05C137.47,108.53,136.39,106.51,135.06,105.79z"/>
	<path class="st0" d="M119.09,66.05c-0.96-0.65-2.81-0.36-4.11,0.65c-1.29,1.01-2.14,3.33-1.88,5.14c0.25,1.81,1.86,3.58,3.59,3.93
		s3.75-0.26,4.48-1.36c0.75-1.09,0.97-3.16,0.51-4.59C121.22,68.4,120.04,66.7,119.09,66.05z"/>
</g>
</svg>
