<svg xmlns="http://www.w3.org/2000/svg" width="1920" height="1080" fill="none" viewBox="0 0 1920 1080">
  <path fill="#F5F5F7" d="M0 0h1920v1080H0z"/>
  <path fill="#0C9D46" d="M970.24 143.152h3.744V166h-3.744v-22.848Zm15.323 5.856c2.144 0 3.84.48 5.12 1.44 1.312 1.024 2.144 2.56 2.464 4.64h-3.616c-.224-1.056-.672-1.824-1.312-2.336-.672-.512-1.568-.768-2.656-.768-1.344 0-2.4.48-3.168 1.504-.768.992-1.152 2.4-1.152 4.192 0 1.824.352 3.264 1.12 4.288.704.992 1.76 1.504 3.168 1.504 2.432 0 3.776-1.216 4.064-3.616h3.616c-.384 2.24-1.248 3.904-2.56 4.992-1.28 1.056-3.008 1.6-5.152 1.6-2.56 0-4.544-.832-5.952-2.496-1.376-1.6-2.048-3.68-2.048-6.24 0-2.496.672-4.544 2.016-6.112 1.44-1.728 3.456-2.592 6.048-2.592Zm18.197 0c2.49 0 4.51.8 6.04 2.464 1.51 1.632 2.28 3.712 2.28 6.272 0 2.528-.77 4.608-2.24 6.208-1.54 1.664-3.59 2.496-6.08 2.496-2.53 0-4.548-.832-6.084-2.496-1.504-1.6-2.24-3.68-2.24-6.208 0-2.56.736-4.64 2.272-6.272 1.504-1.664 3.522-2.464 6.052-2.464Zm0 2.976c-1.54 0-2.69.576-3.52 1.792-.708 1.024-1.06 2.368-1.06 3.968s.352 2.912 1.06 3.936c.83 1.184 1.98 1.792 3.52 1.792 1.5 0 2.68-.608 3.52-1.792.7-1.056 1.08-2.368 1.08-3.936 0-1.6-.38-2.944-1.08-3.968-.84-1.216-2.02-1.792-3.52-1.792Zm20.05-2.976c4.13 0 6.21 2.24 6.21 6.784V166h-3.65v-9.888c0-2.72-1.25-4.064-3.75-4.064-.89 0-1.69.32-2.36.96-.77.704-1.22 1.728-1.35 3.04V166h-3.65v-16.544h3.65v1.92c.64-.768 1.38-1.376 2.18-1.76.83-.416 1.73-.608 2.72-.608Z"/>
  <path fill="#000" d="m975.86 199.28 1.68.22c-.12.32-.26.62-.4.9h5.14v1.28c-.5.98-1.28 1.84-2.32 2.6 1.24.56 2.64 1 4.22 1.36l-.98 1.42c-1.86-.5-3.46-1.1-4.82-1.82-1.52.76-3.38 1.38-5.58 1.88l-.82-1.52c1.92-.32 3.56-.74 4.88-1.3-.64-.44-1.2-.9-1.68-1.38-.54.48-1.16.94-1.84 1.38l-1.04-1.38c1.76-1 2.94-2.22 3.56-3.64Zm2.56 4.24c.82-.52 1.48-1.1 1.96-1.74h-4.14c-.04.04-.08.06-.08.1.64.6 1.4 1.16 2.26 1.64Zm-3.88 5.38c2.64.48 5.16 1.14 7.6 2.02l-.62 1.52c-2.48-.9-5.04-1.6-7.7-2.12l.72-1.42Zm2.04-2.7c1.6.48 3.08 1.04 4.4 1.7l-.88 1.36a21.82 21.82 0 0 0-4.38-1.82l.86-1.24Zm9.78-8.86v17.72h-1.86v-.7h-13v.7h-1.86v-17.72h16.72Zm-14.86 15.34h13v-13.66h-13v13.66Zm20.1-16.02h1.86v3.62h2.16v1.82h-2.16v1.3c.94.94 1.9 1.98 2.86 3.14l-1.08 1.62c-.68-1.08-1.28-1.98-1.78-2.7v9.58h-1.86v-9.08c-.58 1.62-1.28 3.12-2.12 4.48l-.82-2.08c1.34-1.84 2.32-3.92 2.92-6.26h-2.26v-1.82h2.28v-3.62Zm5.9 9.08 1.74.38c-.64 2.8-1.54 5.2-2.7 7.24l-1.66-1.06c1.24-2.04 2.1-4.22 2.62-6.56Zm7.7-.16c.8 2.24 1.48 4.64 2.06 7.2l-1.74.78c-.62-2.8-1.3-5.26-2.02-7.42l1.7-.56Zm-4.74 9.26h-2.02l-.38-1.78c.6.08 1.2.12 1.76.12.48 0 .74-.28.74-.82v-8.08h-4.7v-1.82h11.34v1.82h-4.74v8.54c0 1.34-.68 2.02-2 2.02Zm-3.56-17.2h9.26v1.8h-9.26v-1.8Zm19.36 2.26v13.92h-1.82v-1.04h-3.16v1.62h-1.82v-14.5h1.9c.36-1.08.64-2.18.8-3.34l1.9.26c-.2 1.1-.5 2.12-.88 3.08h3.08Zm-4.98 11.12h3.16v-3.94h-3.16v3.94Zm0-5.64h3.16v-3.68h-3.16v3.68Zm8.58-.68c1.32 1.64 2.34 3.06 3.04 4.3l-1.5 1.06c-.76-1.32-1.8-2.78-3.08-4.4l1.54-.96Zm6.72-4.78c0 6.9-.1 11.16-.3 12.76-.2 1.44-1.16 2.16-2.86 2.16-.4 0-1.12-.04-2.12-.1l-.46-1.74c.88.04 1.64.08 2.28.08.8 0 1.26-.42 1.38-1.26.12-1 .18-4.36.22-10.06h-5.02c-.56 1.2-1.2 2.3-1.96 3.3l-1.14-1.5c1.32-1.92 2.24-4.26 2.72-7.02l1.88.24c-.2 1.12-.48 2.16-.8 3.14h6.18Zm10.46 1.78h-7.26v-1.86h7.26c-.32-.98-.7-1.92-1.14-2.82l1.84-.5c.5 1.2.88 2.3 1.16 3.3l-.06.02h7.4v1.86h-7.28v4.16h6.32v1.78h-6.32v4.88h7.98v1.86h-17.86v-1.86h7.96v-4.88h-6.3v-1.78h6.3v-4.16Zm12.06-4.42h17.8v1.7h-5.74v1.46h4.54v5.3h-8.2c-.3.5-.56.96-.8 1.4h10.44v1.76h-4.18c-.4 1.04-1.04 1.94-1.94 2.74 1.9.58 3.86 1.26 5.86 2.02l-1.18 1.56c-2.12-.9-4.26-1.7-6.4-2.4-1.88.96-4.96 1.74-9.24 2.32l-.72-1.68c3.2-.36 5.7-.82 7.46-1.42-1.54-.46-3.08-.86-4.62-1.22.44-.64.88-1.28 1.28-1.92h-4.62v-1.76h5.7c.28-.48.56-.94.82-1.4h-5.06v-5.3h4.54v-1.46h-5.74v-1.7Zm9.86 13.76c.94-.6 1.62-1.3 2.02-2.14h-5.34l-.78 1.16c1.34.28 2.7.6 4.1.98Zm.38-10.6v-1.46h-2.68v1.46h2.68Zm4.54 3.68v-2.06h-2.72v2.06h2.72Zm-4.54 0v-2.06h-2.68v2.06h2.68Zm-4.5 0v-2.06h-2.72v2.06h2.72Zm23.04-3c-.92 1.92-1.96 3.58-3.1 4.98l-1.36-1.64c1.66-1.94 3.08-4.62 4.24-8.02l1.92.42c-.28.84-.58 1.64-.88 2.4h8.24v1.86h-6.42v2.86h5.62v1.84h-5.62v2.94h5.66v1.82h-5.66v4.52h-1.92v-13.98h-.72Zm-6.82 3.3c-.56.68-1.18 1.36-1.82 2.02l-.64-2.04c2.06-2.26 3.58-4.9 4.56-7.9l1.8.84c-.52 1.52-1.18 2.96-1.98 4.32v13.44h-1.92v-10.68Zm21.46-.56v3.06h4.6v-3.06h-4.6Zm-.1 4.82c-.24 2.52-.98 4.6-2.22 6.24l-1.46-1.3c1.2-1.72 1.82-3.9 1.86-6.54v-9.8h15.34v15.06c0 1.5-.78 2.26-2.3 2.26h-2.3l-.5-1.86c.78.06 1.5.1 2.18.1.64 0 .98-.4.98-1.18v-2.98h-4.96v5.7h-1.92v-5.7h-4.7Zm11.58-1.76v-3.06h-4.96v3.06h4.96Zm0-4.8v-3h-4.96v3h4.96Zm-6.88-3h-4.6v3h4.6v-3Zm14.72-1.92h12.42v7.22h-12.42v-7.22Zm10.54 5.6v-1.24h-8.66v1.24h8.66Zm-8.66-2.74h8.66v-1.24h-8.66v1.24Zm3.56 7.24h-8.18v-1.72h17.82v1.72h-7.74v1.86h5.6v1.68h-5.6v2.14c.92.08 2 .12 3.2.12 1.76 0 3.26-.04 4.46-.08l-.52 1.78c-1.4 0-2.68-.02-3.8-.04-3.32-.02-5.58-.28-6.8-.76-.96-.42-1.84-1.22-2.62-2.4-.76 1.36-1.72 2.52-2.88 3.44l-1.24-1.56c1.8-1.42 3.04-3.32 3.68-5.68l1.8.3c-.2.72-.42 1.38-.66 2.02.8 1.24 1.68 2.02 2.68 2.36.24.08.5.14.8.22v-5.4Zm18.36-1.16h7.44v-1.86h1.88v1.86h2.26v1.82h-2.26V213c0 1.32-.72 2-2.12 2h-2.66l-.42-1.82c.84.08 1.64.12 2.42.12.6 0 .9-.26.9-.78v-4.56h-7.44v-1.82Zm-2.8-9.54h1.92v18.44h-1.92v-6.2c-1.2 1.14-2.32 2.06-3.36 2.78l-.84-1.84c1.18-.72 2.58-1.78 4.2-3.22v-9.96Zm5.6 11.86c1.08 1.16 1.9 2.18 2.46 3.06l-1.48 1.04c-.6-.96-1.38-2.04-2.38-3.22l1.4-.88Zm1.28-8.78c-.88 1-1.98 1.82-3.3 2.5l-1.22-1.48c2.1-1.04 3.52-2.4 4.24-4.12l1.96.36c-.16.34-.32.68-.48 1h5.66v1.62c-1.04 2.9-4.2 4.92-9.5 6.06l-.94-1.7c1.44-.28 2.72-.64 3.8-1.04-.54-.48-1.06-.9-1.56-1.26l1.34-1.02c.66.5 1.28 1.02 1.86 1.56 1.32-.7 2.3-1.52 2.9-2.48h-4.76Zm-9.4-.8c.86 1.4 1.6 2.86 2.22 4.42l-1.66.7c-.68-1.7-1.4-3.18-2.2-4.46l1.64-.66Zm36.28 1.12v14.94h-1.86v-.88h-6.86v.9h-1.86V200h4.3v-3.36h1.92V200h4.36Zm-8.72 12.24h2.44v-4.48h-2.44v4.48Zm4.36-4.48v4.48h2.5v-4.48h-2.5Zm-4.36-1.74h2.44v-4.18h-2.44v4.18Zm4.36-4.18v4.18h2.5v-4.18h-2.5Zm-7.04 2.5v1.94c-.64.34-1.26.66-1.88.96v5.72c0 1.28-.66 1.94-1.96 1.94h-1.7l-.42-1.84c.5.06.98.1 1.46.1s.72-.24.72-.68v-4.4c-.74.28-1.48.56-2.22.82l-.48-1.92c.92-.22 1.82-.5 2.7-.82v-4.22h-2.4v-1.82h2.4v-3.46h1.9v3.46h1.8v1.82h-1.8v3.4c.64-.32 1.28-.64 1.88-1Zm15.96-2.8c-.36.16-.7.34-1.04.5l-1.2-1.44c2.52-1 4.68-2.4 6.44-4.16l2 .44c-.3.32-.6.62-.88.92h6.1v1.22c-.54.56-1.06 1.04-1.58 1.46h4.84v4.76h-7.68c.9.78 1.6 1.62 2.12 2.5 1.88-.58 3.48-1.3 4.78-2.18l1.24 1.42c-.92.56-1.96 1.08-3.08 1.52.82 1.54 2.22 2.92 4.22 4.16l-1.3 1.6c-2.08-1.56-3.6-3.3-4.52-5.18l-.64.2c.2.64.32 1.28.36 1.96 0 1.42-.3 2.42-.88 2.98-.52.44-1.44.74-2.78.88-.44.04-.9.06-1.42.06l-.6-1.74c.72 0 1.34-.02 1.82-.02.56-.04 1.04-.2 1.42-.46.32-.28.5-.86.5-1.7 0-.18-.02-.34-.04-.5-2.24 1.56-5.22 2.84-8.92 3.86l-.96-1.64c4.04-1.02 7.2-2.32 9.46-3.92-.14-.32-.3-.64-.48-.94-1.94 1.4-4.56 2.54-7.84 3.42l-.94-1.6c3.36-.78 6-1.78 7.9-2.98-.28-.28-.56-.56-.84-.8-1.6 1.12-3.74 1.92-6.44 2.36l-.74-1.58c2.28-.34 4.08-.9 5.44-1.68h-3.84v-3.7Zm7.4-1.06c.52-.38 1.06-.78 1.58-1.2h-5.38c-.56.44-1.14.84-1.72 1.2h5.52Zm5.38 3.18v-1.62h-4.26c-.16.58-.4 1.12-.68 1.62h4.94Zm-7.06 0c.4-.5.68-1.04.88-1.62h-4.7v1.62h3.82Zm19.38-3.76v13.92h-1.82v-1.04h-3.16v1.62h-1.82v-14.5h1.9c.36-1.08.64-2.18.8-3.34l1.9.26c-.2 1.1-.5 2.12-.88 3.08h3.08Zm-4.98 11.12h3.16v-3.94h-3.16v3.94Zm0-5.64h3.16v-3.68h-3.16v3.68Zm8.58-.68c1.32 1.64 2.34 3.06 3.04 4.3l-1.5 1.06c-.76-1.32-1.8-2.78-3.08-4.4l1.54-.96Zm6.72-4.78c0 6.9-.1 11.16-.3 12.76-.2 1.44-1.16 2.16-2.86 2.16-.4 0-1.12-.04-2.12-.1l-.46-1.74c.88.04 1.64.08 2.28.08.8 0 1.26-.42 1.38-1.26.12-1 .18-4.36.22-10.06h-5.02c-.56 1.2-1.2 2.3-1.96 3.3l-1.14-1.5c1.32-1.92 2.24-4.26 2.72-7.02l1.88.24c-.2 1.12-.48 2.16-.8 3.14h6.18Zm13.68 6.28c.24-2.32.4-4.36.5-6.14l1.48.16c-.12 1.62-.26 3.04-.38 4.26h1.1c.22-1.44.34-2.96.36-4.58v-.94h-3.06v-1.68h6.26v1.68h-1.64v.94c-.02 1.64-.14 3.16-.34 4.58h2.14v1.72h-2.42c-.1.48-.2.92-.32 1.36h.98v5.4c0 .16.08.28.28.32h.34c.28-.04.44-.26.48-.7.04-.46.06-1.14.06-2.02l1.3.5c0 1.68-.12 2.7-.34 3.08-.2.34-.68.54-1.44.6h-.44c-1.2 0-1.8-.5-1.8-1.48v-3.88c-.86 2.3-2.06 4.2-3.62 5.7l-1.4-1.24c.44-.4.82-.8 1.18-1.22-.16-.4-.32-.78-.48-1.16-1.22.8-2.68 1.58-4.38 2.34l-.46-1.6c.34-.16.52-.38.52-.68v-4.98l-.88 1.34c-.4-.9-.76-1.64-1.08-2.24v9.46h-1.72v-8.96c-.46 1.48-1 2.84-1.64 4.1l-.8-1.98c1.14-1.84 1.96-3.94 2.44-6.3v-.04h-2v-1.76h2v-3.54h1.72v3.54h1.38v1.76h-1.38v1.52c.64.86 1.3 1.82 1.96 2.86v-9.02h4.94v9.92h-3.3v4.04c.68-.34 1.36-.74 2.02-1.2-.26-.54-.54-1.08-.82-1.62l1.26-.8c.74 1.32 1.34 2.48 1.78 3.52.9-1.44 1.58-3.08 2.02-4.94h-2.36Zm-3.9-3.24v2.66h1.68v-2.66h-1.68Zm1.68-1.58v-2.54h-1.68v2.54h1.68Zm19.44-1.76c.92.64 1.72 1.26 2.36 1.9l-1.14 1.16h4.74v1.52c-1.1 1.88-3.58 3.32-7.42 4.28l-.68-1.66c2.76-.44 4.74-1.26 5.92-2.5h-8.64v-1.64h5.92c-.58-.6-1.34-1.24-2.26-1.9l1.2-1.16Zm-.3-3h1.64c1.8 1.86 4.5 3.4 8.1 4.64l-1.06 1.58c-3.28-1.16-5.9-2.68-7.86-4.58-2.18 1.94-4.78 3.5-7.82 4.7l-1.08-1.6c3.32-1.24 6-2.82 8.08-4.74Zm3.18 18.1h-4.42c-1.44 0-2.16-.72-2.16-2.12v-3.48h1.92v3.08c0 .54.26.82.8.82h3.52c.5 0 .86-.12 1.1-.32.32-.22.52-.88.6-1.98l1.76.54c-.2 1.68-.54 2.68-1.02 3-.48.3-1.18.46-2.1.46Zm-8.8-6.9 1.84.38c-.62 2.3-1.52 4.28-2.7 5.94l-1.64-1.02a15.7 15.7 0 0 0 2.5-5.3Zm7.46.54c.56.82 1.04 1.7 1.44 2.64l-1.76.78c-.42-1.08-.88-2.04-1.4-2.88l1.72-.54Zm4.54-.98c1.5 1.92 2.64 3.6 3.44 5.02l-1.62 1.12c-.8-1.56-1.9-3.3-3.26-5.22l1.44-.92Zm9.06-5.22h1.82v2.82h2.08v1.7h-2.08v2.28c.9-.18 1.76-.38 2.56-.58v1.8c-.82.2-1.68.4-2.56.6v4.26h-1.82v-3.9c-1.16.2-2.38.4-3.64.56l-.24-1.86c1.36-.16 2.66-.34 3.88-.54v-2.62h-3.2l-.4-1.68c.52-1.08 1.02-2.44 1.48-4.1h-1.76v-1.84h2.24c.18-.78.36-1.6.52-2.46l1.8.26c-.16.76-.32 1.5-.48 2.2h3.6v1.84h-4.08c-.44 1.52-.9 2.88-1.4 4.08h1.68v-2.82Zm4.6-3.1h3.02c.16-.82.3-1.64.44-2.48l1.86.18c-.14.8-.28 1.56-.4 2.3h4.64v1.84h-5.02c-.14.64-.28 1.26-.42 1.86h5.94v1.82h-6.4c-.22.76-.44 1.48-.64 2.14h6.24v1.56c-.64 1.28-1.6 2.54-2.92 3.82.72.44 1.4.92 2.06 1.4l-1.06 1.64c-2.06-1.6-4.16-2.86-6.32-3.78l1.02-1.5c.96.4 1.88.86 2.76 1.36 1.04-.92 1.88-1.86 2.5-2.82h-6.64c.4-1.22.76-2.5 1.12-3.82h-2.36v-1.82h2.82c.14-.64.28-1.26.42-1.86h-2.66v-1.84Zm28.92 2.92v5.42h1.12v1.76h-4.7c1.04 1.78 2.64 3.18 4.82 4.2l-.86 1.8c-2.5-1.42-4.32-3.26-5.48-5.5-.88 2.14-2.74 3.98-5.58 5.5l-1.24-1.6c2.5-1.16 4.18-2.64 5.04-4.4h-4.36v-1.76h1.28v-4.86l-.04.02-1.12-1.48c1.94-1.24 3.26-2.78 3.96-4.6l1.84.24c-.16.44-.34.86-.54 1.26h4.04v1.36c-.52 1.02-1.02 1.9-1.52 2.64h3.34Zm-8.28 5.42h1.98c.2-1.06.34-2.32.38-3.76h-2.36v3.76Zm3.8 0h2.8v-3.76h-2.48c-.04 1.48-.14 2.72-.32 3.76Zm-.78-5.42c.48-.7.98-1.5 1.46-2.4h-3.02c-.68.88-1.46 1.68-2.38 2.4h3.94Zm-9.72 12.86h-1.7l-.42-1.82c.52.08 1 .12 1.46.12.48 0 .72-.26.72-.76v-4.24c-.72.28-1.42.52-2.14.76l-.48-1.92c.88-.2 1.74-.46 2.62-.78v-4.26H1269v-1.82h2.22v-3.5h1.88v3.5h1.88v1.82h-1.88v3.5c.66-.32 1.32-.64 1.96-1v1.92c-.64.34-1.3.66-1.96.98v5.52c0 1.32-.66 1.98-1.94 1.98Zm20.72-17.78c1.16 1.16 2.04 2.2 2.68 3.12l-1.48 1.02c-.68-.94-1.56-1.98-2.64-3.1l1.44-1.04Zm7.18 8.4c1.38 1.52 2.44 2.86 3.2 4l-1.68 1.16c-.76-1.26-1.76-2.66-3.04-4.2l1.52-.96Zm-3.06-8.86h1.86v2.82c-.02.68-.06 1.34-.1 1.98h8.18c0 5.84-.26 9.54-.76 11.14-.54 1.6-1.48 2.4-2.84 2.4-1.04 0-1.9-.04-2.6-.1l-.5-1.84c1.08.1 2.08.16 2.98.16.92-.08 1.44-1.14 1.58-3.18.12-2.06.2-4.3.2-6.72h-6.42c-.32 2.5-.9 4.6-1.72 6.3-1.18 2.34-3.12 4.14-5.84 5.42l-1.06-1.68c2.68-1.36 4.5-3.08 5.46-5.18.58-1.38 1-3 1.28-4.86h-6.06v-1.86h6.26c.04-.64.08-1.3.1-1.98v-2.82Zm28.22.66v12.2h2.72v1.78h-4.98c1.72.64 3.3 1.36 4.76 2.18l-1.06 1.64c-1.92-1.2-3.88-2.14-5.88-2.82l.66-1h-5.3l.98.86c-1.52 1.14-3.42 2.14-5.66 3l-1.16-1.52c1.92-.7 3.56-1.48 4.92-2.34h-5.16v-1.78h2.72v-12.2h12.44Zm-10.54 12.2h8.64v-1.48h-8.64v1.48Zm0-3h8.64v-1.48h-8.64v1.48Zm0-3h8.64v-1.52h-8.64v1.52Zm0-3h8.64v-1.42h-8.64v1.42Zm21.56 3.6v1.76h7.48v-1.76h-7.48Zm7.48 3.42h-7.48v1.72h7.48v-1.72Zm0 3.36h-7.48v4.18h-1.78v-9.98a26.36 26.36 0 0 1-3.46 3.38l-1.22-1.6c2.32-1.84 4.16-3.96 5.48-6.32h-4.94v-1.84h5.86c.3-.72.56-1.46.8-2.18l1.94.22c-.2.68-.42 1.34-.66 1.96h9.66v1.84h-10.48c-.32.66-.68 1.3-1.06 1.92h9.12v10.82c0 1.1-.64 1.66-1.92 1.7h-2.24l-.46-1.72c.74.06 1.44.1 2.1.1.48 0 .74-.22.74-.66v-1.82Zm8.24-14.06c1.18.84 2.18 1.7 3.02 2.56l-1.36 1.36c-.72-.82-1.72-1.68-3.02-2.6l1.36-1.32Zm-.62 4.78c1.28.96 2.36 1.94 3.24 2.92l-1.36 1.34c-.76-.9-1.84-1.88-3.24-2.94l1.36-1.32Zm1.58 5.64 1.68.64c-.76 2.48-1.64 4.8-2.6 6.96l-1.76-.78c1.04-2.22 1.92-4.5 2.68-6.82Zm7.68-10.6h1.86v1.14h5.14v1.56h-5.14v.96h4.38v1.52h-4.38v1h5.7v1.56h-13.2v-1.56h5.64v-1h-4.18v-1.52h4.18v-.96h-5v-1.56h5v-1.14Zm-2.16 12.8v1.08h6.22v-1.08h-6.22Zm6.22-1.44v-1.14h-6.22v1.14h6.22Zm-6.22 3.94v3.16h-1.78v-9.78h9.82v7.8c0 1.24-.62 1.86-1.82 1.86h-1.86l-.46-1.68 1.78.1c.36 0 .54-.24.54-.68v-.78h-6.22Zm21.2-6.46v9.54h-1.7v-9.1c-.48 1.48-1.04 2.88-1.72 4.16l-.82-2.12c1.14-1.7 1.96-3.64 2.48-5.82h-1.9v-1.66h1.96v-3.76h1.7v3.76h1.58v1.66h-1.58v1.26c.74.88 1.48 1.84 2.24 2.9l-1.02 1.52c-.48-.92-.88-1.7-1.22-2.34Zm-4.26-7.46v14.96h-1.68v-1.28h-1.7v1.76h-1.7v-15.44h5.08Zm-3.38 12h1.7v-4.4h-1.7v4.4Zm0-6.08h1.7v-4.24h-1.7v4.24Zm11.62.48v1.36c-.04 4.08-.48 7.16-1.32 9.24l-1.66-.82c.8-2 1.24-4.8 1.28-8.42v-7.92c2.04-.1 3.78-.54 5.2-1.34l.9 1.58c-1.34.68-2.82 1.08-4.42 1.24l.02 3.24h4.64v1.84h-1.34v10.58h-1.8v-10.58h-1.5Zm11.64.26h-2.48v-7.4h12.54v7.4h-7.86c-.3.44-.64.88-1 1.28h10.36c-.06 2.2-.18 3.96-.36 5.32-.2 1.32-.5 2.26-.92 2.78-.42.52-1.1.8-2.06.84h-2.78l-.5-1.78c.82.04 1.6.08 2.36.08.9 0 1.5-.34 1.78-1.02.28-.72.48-2.22.56-4.54h-1.56c-1.72 3.74-4.44 6.22-8.16 7.42l-1.08-1.58c3.34-1.04 5.78-3 7.3-5.84h-2.16c-1.4 2.16-3.62 3.86-6.7 5.1l-1.22-1.48c2.66-.96 4.62-2.16 5.88-3.62h-2.6c-.96.72-2.06 1.36-3.28 1.92l-1.04-1.68c2.22-.86 3.88-1.92 4.98-3.2Zm8.2-1.6v-1.36h-8.82v1.36h8.82Zm-8.82-2.86h8.82v-1.32h-8.82v1.32Zm22.24-2.42h4.38v-1.32h1.86v1.32h4.36v1.72h-4.36v1.36h4.74v1.2c-.34 1.28-.78 2.54-1.32 3.8l-1.84-.52c.44-.8.82-1.7 1.14-2.72h-9.78v-1.76h5.2v-1.36h-4.38v-1.72Zm-.8 10.28h2.84c-.9-.78-1.82-1.4-2.74-1.88l.9-1.32c1.08.52 2.08 1.16 2.98 1.92l-.84 1.28h2.44c.08-.4.12-.82.14-1.24v-3.7h1.84v3.7c-.02.44-.06.84-.1 1.24h4.64v1.76h-5.02c-.06.18-.12.34-.18.5 1.96.92 3.74 2.02 5.38 3.26l-1.06 1.62c-1.66-1.4-3.34-2.56-5.06-3.44-.12.16-.22.32-.34.48-1.04 1.28-2.74 2.26-5.08 2.94l-1.02-1.58c2.28-.68 3.84-1.52 4.66-2.54.28-.38.5-.8.7-1.24h-5.08v-1.76Zm2.68-5.22c1 .48 1.94 1.08 2.78 1.78l-.9 1.36c-.88-.8-1.8-1.42-2.74-1.88l.86-1.26Zm-6.28-6.06c1.28.98 2.36 1.96 3.26 2.94l-1.3 1.32c-.78-.92-1.88-1.92-3.3-2.96l1.34-1.3Zm-2.72 5.8h4.52v8.2c.4-.42.82-.86 1.26-1.34l.52 2c-1.08 1.14-2.2 2.16-3.4 3.04l-.72-1.7c.32-.28.5-.62.5-1.02v-7.36h-2.68v-1.82Zm27.5-2.66v13.92h-1.82v-1.04h-3.16v1.62h-1.82v-14.5h1.9c.36-1.08.64-2.18.8-3.34l1.9.26c-.2 1.1-.5 2.12-.88 3.08h3.08Zm-4.98 11.12h3.16v-3.94h-3.16v3.94Zm0-5.64h3.16v-3.68h-3.16v3.68Zm8.58-.68c1.32 1.64 2.34 3.06 3.04 4.3l-1.5 1.06c-.76-1.32-1.8-2.78-3.08-4.4l1.54-.96Zm6.72-4.78c0 6.9-.1 11.16-.3 12.76-.2 1.44-1.16 2.16-2.86 2.16-.4 0-1.12-.04-2.12-.1l-.46-1.74c.88.04 1.64.08 2.28.08.8 0 1.26-.42 1.38-1.26.12-1 .18-4.36.22-10.06h-5.02c-.56 1.2-1.2 2.3-1.96 3.3l-1.14-1.5c1.32-1.92 2.24-4.26 2.72-7.02l1.88.24c-.2 1.12-.48 2.16-.8 3.14h6.18Zm9.28-.64 1.68.22c-.12.32-.26.62-.4.9h5.14v1.28c-.5.98-1.28 1.84-2.32 2.6 1.24.56 2.64 1 4.22 1.36l-.98 1.42c-1.86-.5-3.46-1.1-4.82-1.82-1.52.76-3.38 1.38-5.58 1.88l-.82-1.52c1.92-.32 3.56-.74 4.88-1.3-.64-.44-1.2-.9-1.68-1.38-.54.48-1.16.94-1.84 1.38l-1.04-1.38c1.76-1 2.94-2.22 3.56-3.64Zm2.56 4.24c.82-.52 1.48-1.1 1.96-1.74h-4.14c-.04.04-.08.06-.08.1.64.6 1.4 1.16 2.26 1.64Zm-3.88 5.38c2.64.48 5.16 1.14 7.6 2.02l-.62 1.52c-2.48-.9-5.04-1.6-7.7-2.12l.72-1.42Zm2.04-2.7c1.6.48 3.08 1.04 4.4 1.7l-.88 1.36a21.82 21.82 0 0 0-4.38-1.82l.86-1.24Zm9.78-8.86v17.72h-1.86v-.7h-13v.7h-1.86v-17.72h16.72Zm-14.86 15.34h13v-13.66h-13v13.66Zm17.68-15.42h10.1v1.78h-1.84v5.28h2.14v1.84h-2.14v8.76h-1.94v-8.76h-2.54c-.18 3.96-1.08 6.9-2.68 8.8l-1.42-1.24c1.3-1.64 2.02-4.16 2.18-7.56h-2.22v-1.84h2.26v-5.28h-1.9v-1.78Zm3.82 1.78v5.28h2.5v-5.28h-2.5Zm11.84-2.38 1.24 1.44c-1.64 1.64-3.64 3-6.02 4.08l-.8-1.74c2.26-.96 4.12-2.22 5.58-3.78Zm.88 5.34 1.24 1.44c-1.64 1.78-3.66 3.26-6.06 4.42l-.8-1.72c2.28-1.04 4.14-2.42 5.62-4.14Zm.48 5.54 1.26 1.44c-2.04 2.44-4.56 4.44-7.52 6.04l-.82-1.76c2.88-1.44 5.24-3.36 7.08-5.72Zm5.64 2.6c.52 0 .94.2 1.3.62.32.44.5.98.5 1.66 0 1.02-.3 1.9-.9 2.66-.6.76-1.4 1.28-2.4 1.56v-1.24c.54-.2 1-.5 1.36-.94.34-.46.5-.92.5-1.4-.12.04-.28.06-.48.06-.42 0-.76-.14-1.04-.42-.28-.28-.42-.64-.42-1.06 0-.46.14-.82.44-1.1.28-.28.66-.4 1.14-.4Zm23.98-11.46c1.74 2.12 3.08 3.96 4 5.56l-1.62 1.1c-.96-1.68-2.3-3.58-3.98-5.66l1.6-1Zm6.64 10.32c-1.3 2.28-3.34 4.22-6.12 5.86l-1.28-1.58c3.34-1.96 5.52-4.36 6.56-7.2.8-2.42 1.2-5.54 1.24-9.36h1.96c0 3.8-.42 7.04-1.26 9.68l-.24.74c1.56 2.02 2.88 4.02 3.98 6.02l-1.46 1.46c-.84-1.76-1.98-3.64-3.38-5.62Zm-12.02 4.02-.64-1.8c.4-.34.62-.8.62-1.4v-12.8h1.96v13.24c1.44-.6 2.86-1.32 4.3-2.2l.54 1.86c-2.12 1.2-4.38 2.22-6.78 3.1Zm24.36-15.72h12.12v1.76h-5.52v1.42h4.6v8h-4.68c-.16 1.26-.5 2.34-1.06 3.22 2 1 4.36 1.56 7.04 1.68l-.44 1.74c-2.96-.18-5.54-.88-7.76-2.08-1.08.88-2.58 1.58-4.54 2.08l-.96-1.52c1.7-.44 2.98-.98 3.86-1.58-.88-.64-1.7-1.36-2.46-2.18l1.4-.98c.68.72 1.44 1.36 2.26 1.92.4-.68.66-1.44.8-2.3h-4.52v-8h4.6v-1.42h-4.74v-1.76Zm9.42 9.64v-1.7h-2.82v1.7h2.82Zm-4.68 0v-1.7h-2.82v1.7h2.82Zm-2.82-3.24h2.82v-1.68h-2.82v1.68Zm4.68-1.68v1.68h2.82v-1.68h-2.82Zm-10.5 2.48c-.5.72-1.04 1.4-1.62 2.08l-.64-2.02c1.78-2.28 3.1-4.96 3.94-8l1.72.8c-.4 1.4-.92 2.72-1.54 3.98v13.74h-1.86V204.5Zm21.62-.64v3.06h4.6v-3.06h-4.6Zm-.1 4.82c-.24 2.52-.98 4.6-2.22 6.24l-1.46-1.3c1.2-1.72 1.82-3.9 1.86-6.54v-9.8h15.34v15.06c0 1.5-.78 2.26-2.3 2.26h-2.3l-.5-1.86c.78.06 1.5.1 2.18.1.64 0 .98-.4.98-1.18v-2.98h-4.96v5.7h-1.92v-5.7h-4.7Zm11.58-1.76v-3.06h-4.96v3.06h4.96Zm0-4.8v-3h-4.96v3h4.96Zm-6.88-3h-4.6v3h4.6v-3Zm26.56 1.64h-10.9v3.4h10.9v-3.4Zm-10.92 5.26c-.12 3.52-1.04 6.58-2.78 9.14l-1.4-1.28c1.52-2.18 2.3-5 2.32-8.44v-6.54h6.42c-.32-.76-.68-1.48-1.08-2.14l2.04-.32c.34.74.66 1.56.98 2.46h6.34v7.12h-12.84Zm23.22-6.52h3.4v-2.86h1.84v2.86h4.26v6h1.36v1.86h-5.04c1.2 2.5 3.04 4.54 5.56 6.1l-1.28 1.5c-2.52-1.8-4.42-4.04-5.66-6.7-.94 3-2.68 5.22-5.24 6.7l-1.16-1.56c2.4-1.26 4-3.28 4.8-6.04h-3.64v-1.86h4.02c.12-.84.18-1.72.18-2.64v-1.58h-3.4v-1.78Zm5.24 1.78v1.16c0 1.08-.08 2.1-.2 3.06h2.62v-4.22h-2.42Zm-11.88-.76 1.46.1c-.04 2-.26 3.92-.64 5.72l-1.54-.44c.42-1.7.66-3.5.72-5.38Zm5.4-.5c.54 1.28 1.02 2.76 1.44 4.42l-1.54.38c-.32-1.5-.76-2.94-1.3-4.34l1.4-.46Zm-3.3-3.36h1.86v18.32h-1.86v-18.32Zm23.6 1.44h4.92v-1.44h1.78v1.44h4.88v1.72h-4.88v1.34h4.28v5.36h-4.28v5.88h-1.78v-4.86c-1 1.56-2.44 2.92-4.3 4.08l-1.18-1.5c2-1.02 3.46-2.22 4.38-3.6h-3.18v-5.36h4.28v-1.34h-4.92v-1.72Zm9.24 6.78v-2.08h-2.54v2.08h2.54Zm-4.32 0v-2.08h-2.52v2.08h2.52Zm3.44 2.04c1.32 1.06 2.42 2.12 3.34 3.2l-1.26 1.24c-.8-1.02-1.9-2.12-3.3-3.28l1.22-1.16Zm-12.7-10.12c1.36 1.06 2.5 2.12 3.42 3.16l-1.34 1.32c-.8-1-1.92-2.08-3.38-3.24l1.3-1.24Zm11.48 17.92c-1.1 0-2.3-.02-3.58-.04-1.3-.02-2.36-.14-3.18-.34-.8-.24-1.5-.72-2.1-1.4-.28-.34-.52-.5-.76-.5-.42 0-1.14.9-2.16 2.7l-1.4-1.3c1-1.62 1.9-2.64 2.7-3.04v-5.66h-2.68v-1.76h4.46v7.56c.1.08.2.18.3.3.46.54.94.94 1.44 1.2.6.28 1.48.46 2.66.5 1.12.02 2.48.04 4.04.04.98 0 1.98-.02 2.98-.04s1.78-.06 2.34-.1l-.48 1.88h-4.58Zm13.96-17.44h10.12v9.56h-4.1v2h4.36v1.76h-4.36v2.08h5.06v1.82h-12.1v-1.82h5.16v-2.08h-4.38v-1.76h4.38v-2h-4.14v-9.56Zm8.3 7.88v-2.28h-2.28v2.28h2.28Zm-4.16 0v-2.28h-2.32v2.28h2.32Zm-2.32-3.92h2.32v-2.28h-2.32v2.28Zm4.2-2.28v2.28h2.28v-2.28h-2.28Zm-12.92 4.9h1.98v-4.28h-2.28v-1.8h6.46v1.8h-2.26v4.28h2.02v1.82h-2.02v4c.68-.24 1.34-.48 1.98-.76v1.84c-1.84.72-3.8 1.34-5.9 1.84l-.46-1.82c.84-.14 1.66-.32 2.46-.52v-4.58h-1.98v-1.82Zm30.74 3.74c-.32.64-.72 1.18-1.16 1.66l-1.1-1.34c.84-.92 1.42-2.14 1.7-3.66l1.56.28c-.1.48-.2.94-.32 1.36h1.46v-1.72h1.86v1.72h2.74v1.7h-2.74v2.02h3.16v1.74h-3.16v3.76h-1.86v-3.76h-4.26v-1.74h4.26v-2.02h-2.14Zm.48-8.26h-2.48v-1.68h8.62c-.02 2.84-.22 4.54-.6 5.1-.38.56-1.04.84-1.96.84-.48 0-1.04-.04-1.7-.08l-.44-1.56c.7.04 1.28.08 1.74.12.48-.02.8-.18.92-.46s.18-1.04.22-2.28h-2.54c-.2.86-.5 1.62-.86 2.3-.54.86-1.32 1.64-2.34 2.34l-1.12-1.42c.84-.48 1.48-1.04 1.9-1.7.28-.44.48-.94.64-1.52Zm-8.98 7.2v2.26h1.4v-2.26h-1.4Zm-.1 3.84c-.18 1.92-.62 3.52-1.34 4.84l-1.28-1.18c.72-1.42 1.08-3.22 1.1-5.42v-5.96l-1.02-1.24c1.12-1.18 2.08-2.82 2.88-4.9l1.72.4c-.14.36-.28.72-.42 1.06h3.4v1.3c-.38.74-.76 1.4-1.14 1.96h2.14v12.1c0 1.04-.56 1.56-1.66 1.56h-.98l-.4-1.42v1.24h-1.5v-4.34h-1.5Zm1.98-9.14c.34-.5.68-1.08 1.04-1.72h-2.12c-.32.62-.66 1.2-1.02 1.72h2.1Zm1.02 12.1c.3.04.58.08.84.08.4 0 .6-.22.6-.64v-2.4h-1.44v2.96Zm1.44-4.54v-2.26h-1.44v2.26h1.44Zm0-3.82v-2.12h-1.44v2.12h1.44Zm-2.94-2.12h-1.4v2.12h1.4v-2.12Zm33.54-5.06v16.42h-1.84v-1.46h-4.34v1.7h-1.82V197.8h8Zm-6.18 13.16h4.34v-11.38h-4.34v11.38Zm-10.88-9.02h3.34v-2.4c-.92.14-1.86.24-2.78.32l-.6-1.7c3.08-.24 5.56-.74 7.46-1.46l.9 1.58c-1.02.36-2.06.68-3.14.92v2.74h3.26v1.78h-3.26v.8c1.12.98 2.26 2.08 3.42 3.3l-1.12 1.64c-.9-1.28-1.66-2.3-2.3-3.1v8.5h-1.84v-8.1c-.8 1.68-1.84 3.22-3.08 4.62l-.82-2.08c1.76-1.6 3.06-3.44 3.9-5.48v-.1h-3.34v-1.78Zm27.16-4.3h9.62v9.78h-9.62v-9.78Zm7.7 7.94v-6.12h-5.8v6.12h5.8Zm-12.74-8.82c1.28.98 2.36 1.96 3.26 2.94l-1.3 1.32c-.78-.92-1.88-1.92-3.3-2.96l1.34-1.3Zm-2.68 5.8h4.58v8.42c.54-.5 1.12-1.06 1.74-1.68l.52 2c-1.2 1.18-2.5 2.24-3.86 3.16l-.72-1.72c.32-.28.5-.6.5-1v-7.36h-2.76v-1.82Zm9.82 5.78 1.68.82c-.96 2.32-2.12 4.32-3.44 6.02l-1.68-1.22c1.34-1.56 2.48-3.42 3.44-5.62Zm5.26-.08c1.56 2.16 2.74 4.06 3.56 5.68l-1.64 1.14c-.84-1.76-2-3.7-3.46-5.84l1.54-.98Zm9.02-4.26h-3.1v-6.72h8.78V204h-3.84c-.04.72-.1 1.4-.16 2.04h4.24c0 3.56-.1 5.76-.3 6.6-.2 1.44-1.2 2.16-3 2.16-.28 0-.76-.04-1.4-.08l-.44-1.68c.6.06 1.1.1 1.54.1.88 0 1.38-.44 1.54-1.32.1-.4.16-1.74.2-4h-2.62c-.2 1.12-.44 2.04-.76 2.76-.74 1.72-1.96 3.2-3.68 4.44l-1.22-1.5c1.5-1.04 2.56-2.28 3.18-3.72.24-.54.44-1.2.6-1.98h-3.34v-1.78h3.6c.08-.64.14-1.32.18-2.04Zm7.6-5.64h1.86v12.34h-1.86v-12.34Zm3.94 16.52h-2.88l-.42-1.82c.92.08 1.8.12 2.64.12.56 0 .86-.34.86-1v-15.52h1.88v16c0 1.48-.7 2.22-2.08 2.22Zm-7.68-12.6v-3.3h-5.14v3.3h5.14Zm15.08 7.86c.52 0 .94.2 1.3.62.32.44.5.98.5 1.66 0 1.02-.3 1.9-.9 2.66-.6.76-1.4 1.28-2.4 1.56v-1.24c.54-.2 1-.5 1.36-.94.34-.46.5-.92.5-1.4-.12.04-.28.06-.48.06-.42 0-.76-.14-1.04-.42-.28-.28-.42-.64-.42-1.06 0-.46.14-.82.44-1.1.28-.28.66-.4 1.14-.4Zm-758.92 10.6h1.92c0 3.04-.16 5.72-.46 8.02 1.5 1.6 2.78 3.18 3.82 4.74l-1.46 1.46c-.72-1.26-1.62-2.58-2.72-3.98-.64 3.16-2 5.8-4.08 7.92l-1.34-1.6c1.84-1.96 3.06-4.38 3.62-7.22.44-2.4.68-5.52.7-9.34Zm7.84-.02h1.9c0 2-.08 3.84-.2 5.52.9 4.66 2.54 8.34 4.92 11.02l-1.4 1.64c-1.78-2.26-3.16-5-4.12-8.24-.64 3.36-2.08 6.14-4.34 8.34l-1.32-1.6c1.94-1.96 3.22-4.4 3.82-7.28.48-2.42.72-5.56.74-9.4Zm8.26 1.04h17.96v1.84h-8.08c-.2.84-.44 1.64-.76 2.4h7.8v10.62c0 1.52-.66 2.3-1.96 2.3h-1.8l-.52-1.92 1.68.08c.46 0 .7-.3.7-.88v-8.36h-2.86v10.46h-1.84v-10.46h-2.7v10.46h-1.84v-10.46h-2.58v11.08h-1.92V226h5.56c.34-.76.6-1.56.78-2.4h-7.62v-1.84Zm27.76 4.54h3.8v1.62h-3.8v-1.62Zm.04 2.82h3.94v6.22h-3.94v-6.22Zm2.58 4.82v-3.42h-1.22v3.42h1.22Zm5.58-7.6 1.6.68c-.62 2.84-1.46 5.2-2.5 7.12.1.44.22.82.34 1.16.4 1.08.76 1.64 1.1 1.7.16-.02.26-1.14.3-3.34l1.54.7c0 3-.58 4.5-1.72 4.5-.74 0-1.42-.56-2.02-1.66-.2-.36-.4-.82-.6-1.38-.96 1.28-2.04 2.3-3.24 3.04l-1.12-1.46c1.48-.88 2.72-2.12 3.72-3.76-.18-.76-.36-1.6-.52-2.52-.34-1.9-.56-3.96-.68-6.16h-5.22v5.48c-.08 3.56-.84 6.42-2.28 8.58l-1.4-1.24c1.26-1.76 1.92-4.2 1.98-7.34v-7.22h6.84c-.04-.88-.04-1.74-.04-2.62h1.74c0 .86.02 1.74.06 2.62h1.62c-.3-.64-.64-1.26-1.02-1.82l1.52-.24c.34.62.66 1.3.98 2.06h.9v1.74h-3.92c.08 1.54.2 3.1.38 4.7l.22 1.7c.6-1.48 1.08-3.14 1.44-5.02Zm-14.52-5.04c1.16 1.72 2.06 3.24 2.68 4.54l-1.52 1.04c-.68-1.36-1.58-2.9-2.72-4.6l1.56-.98Zm1.28 8.22 1.64.66c-.84 2.96-1.76 5.74-2.78 8.36l-1.76-.78c1.12-2.68 2.08-5.44 2.9-8.24Zm21.12-6.64 1.84.74c-1.04 3.2-2.38 5.66-4.06 7.36l-1.62-1.4c1.72-1.68 3-3.92 3.84-6.7Zm9.68 6.36 1.66 1.02c-2.32 4.56-6.9 7.5-13.76 8.84l-1.1-1.84c6.64-1.22 11.04-3.9 13.2-8.02Zm-5.52-8.58h1.96v11.4h-1.96v-11.4Zm5.54 1.94c1.86 2.2 3.5 4.6 4.9 7.24l-1.8.92c-1.44-2.76-3.04-5.24-4.8-7.4l1.7-.76Zm9.96 5.26v3.06h4.6v-3.06h-4.6Zm-.1 4.82c-.24 2.52-.98 4.6-2.22 6.24l-1.46-1.3c1.2-1.72 1.82-3.9 1.86-6.54v-9.8h15.34v15.06c0 1.5-.78 2.26-2.3 2.26h-2.3l-.5-1.86c.78.06 1.5.1 2.18.1.64 0 .98-.4.98-1.18v-2.98h-4.96v5.7h-1.92v-5.7h-4.7Zm11.58-1.76v-3.06h-4.96v3.06h4.96Zm0-4.8v-3h-4.96v3h4.96Zm-6.88-3h-4.6v3h4.6v-3Zm26.56 1.64h-10.9v3.4h10.9v-3.4Zm-10.92 5.26c-.12 3.52-1.04 6.58-2.78 9.14l-1.4-1.28c1.52-2.18 2.3-5 2.32-8.44v-6.54h6.42c-.32-.76-.68-1.48-1.08-2.14l2.04-.32c.34.74.66 1.56.98 2.46h6.34v7.12h-12.84Zm23.5-6.12v13.92h-1.82v-1.04h-3.16v1.62h-1.82v-14.5h1.9c.36-1.08.64-2.18.8-3.34l1.9.26c-.2 1.1-.5 2.12-.88 3.08h3.08Zm-4.98 11.12h3.16v-3.94h-3.16v3.94Zm0-5.64h3.16v-3.68h-3.16v3.68Zm8.58-.68c1.32 1.64 2.34 3.06 3.04 4.3l-1.5 1.06c-.76-1.32-1.8-2.78-3.08-4.4l1.54-.96Zm6.72-4.78c0 6.9-.1 11.16-.3 12.76-.2 1.44-1.16 2.16-2.86 2.16-.4 0-1.12-.04-2.12-.1l-.46-1.74c.88.04 1.64.08 2.28.08.8 0 1.26-.42 1.38-1.26.12-1 .18-4.36.22-10.06h-5.02c-.56 1.2-1.2 2.3-1.96 3.3l-1.14-1.5c1.32-1.92 2.24-4.26 2.72-7.02l1.88.24c-.2 1.12-.48 2.16-.8 3.14h6.18Zm9.56-2.64h10.12v9.56h-4.1v2h4.36v1.76h-4.36v2.08h5.06v1.82h-12.1v-1.82h5.16v-2.08h-4.38v-1.76h4.38v-2h-4.14v-9.56Zm8.3 7.88v-2.28h-2.28v2.28h2.28Zm-4.16 0v-2.28h-2.32v2.28h2.32Zm-2.32-3.92h2.32v-2.28h-2.32v2.28Zm4.2-2.28v2.28h2.28v-2.28h-2.28Zm-12.92 4.9h1.98v-4.28h-2.28v-1.8h6.46v1.8h-2.26v4.28h2.02v1.82h-2.02v4c.68-.24 1.34-.48 1.98-.76v1.84c-1.84.72-3.8 1.34-5.9 1.84l-.46-1.82c.84-.14 1.66-.32 2.46-.52v-4.58h-1.98v-1.82Zm30.74 3.74c-.32.64-.72 1.18-1.16 1.66l-1.1-1.34c.84-.92 1.42-2.14 1.7-3.66l1.56.28c-.1.48-.2.94-.32 1.36h1.46v-1.72h1.86v1.72h2.74v1.7h-2.74v2.02h3.16v1.74h-3.16v3.76h-1.86v-3.76h-4.26v-1.74h4.26v-2.02h-2.14Zm.48-8.26h-2.48v-1.68h8.62c-.02 2.84-.22 4.54-.6 5.1-.38.56-1.04.84-1.96.84-.48 0-1.04-.04-1.7-.08l-.44-1.56c.7.04 1.28.08 1.74.12.48-.02.8-.18.92-.46s.18-1.04.22-2.28h-2.54c-.2.86-.5 1.62-.86 2.3-.54.86-1.32 1.64-2.34 2.34l-1.12-1.42c.84-.48 1.48-1.04 1.9-1.7.28-.44.48-.94.64-1.52Zm-8.98 7.2v2.26h1.4v-2.26h-1.4Zm-.1 3.84c-.18 1.92-.62 3.52-1.34 4.84l-1.28-1.18c.72-1.42 1.08-3.22 1.1-5.42v-5.96l-1.02-1.24c1.12-1.18 2.08-2.82 2.88-4.9l1.72.4c-.14.36-.28.72-.42 1.06h3.4v1.3c-.38.74-.76 1.4-1.14 1.96h2.14v12.1c0 1.04-.56 1.56-1.66 1.56h-.98l-.4-1.42v1.24h-1.5v-4.34h-1.5Zm1.98-9.14c.34-.5.68-1.08 1.04-1.72h-2.12c-.32.62-.66 1.2-1.02 1.72h2.1Zm1.02 12.1c.3.04.58.08.84.08.4 0 .6-.22.6-.64v-2.4h-1.44v2.96Zm1.44-4.54v-2.26h-1.44v2.26h1.44Zm0-3.82v-2.12h-1.44v2.12h1.44Zm-2.94-2.12h-1.4v2.12h1.4v-2.12Zm30.22-6.4c.92.7 1.7 1.4 2.34 2.12l-.92.92h2.4v1.82h-5.96c.14 2.36.38 4.2.72 5.5.08.34.18.68.28 1 .84-1.48 1.54-3.16 2.1-5.06l1.74.74c-.8 2.56-1.8 4.76-3.04 6.56.22.48.44.88.66 1.22.6.88 1.08 1.34 1.4 1.34.26 0 .52-.98.78-2.94l1.72.92c-.5 2.76-1.24 4.16-2.2 4.16-.88 0-1.8-.6-2.76-1.78-.32-.4-.6-.84-.86-1.32-1.34 1.5-2.9 2.64-4.66 3.42l-1.08-1.6c1.92-.86 3.54-2.1 4.86-3.74-.28-.72-.52-1.5-.74-2.34-.44-1.62-.72-3.64-.86-6.08h-6.44v2.92h4.9c-.04 3.62-.22 5.9-.54 6.86-.32.84-1 1.26-2.04 1.28-.48 0-1.04-.04-1.66-.1l-.58-1.72c.8.04 1.46.08 2.02.08.36-.02.58-.24.7-.68.12-.52.18-1.84.22-3.92h-3.02v.12c-.08 3.7-.9 6.66-2.42 8.9l-1.44-1.28c1.24-1.82 1.9-4.36 1.96-7.62v-6.66h8.24c-.04-.94-.04-1.92-.04-2.94h1.92c0 1.04.04 2.02.08 2.94h3.08c-.54-.6-1.22-1.24-2.06-1.88l1.2-1.16Zm6.28 3.66h7.66v-3.46h1.92v3.46h7.64v1.82h-6.14c1.32 3 3.6 5.7 6.84 8.06l-1.3 1.64c-3.34-2.88-5.68-6.12-7.02-9.7h-.02v7.36h4.12v1.82h-4.12v3.94h-1.92v-3.94h-3.96v-1.82h3.96v-7.36h-.02c-1.44 4.04-3.88 7.36-7.28 9.96l-1.1-1.78c3.16-2.12 5.46-4.86 6.9-8.18h-6.16v-1.82Zm22.46 10.02c.52 0 .94.2 1.3.62.32.44.5.98.5 1.66 0 1.02-.3 1.9-.9 2.66-.6.76-1.4 1.28-2.4 1.56v-1.24c.54-.2 1-.5 1.36-.94.34-.46.5-.92.5-1.4-.12.04-.28.06-.48.06-.42 0-.76-.14-1.04-.42-.28-.28-.42-.64-.42-1.06 0-.46.14-.82.44-1.1.28-.28.66-.4 1.14-.4Zm19.44 4.74h-1.76l-.42-1.84c.52.06 1.04.1 1.52.1.46 0 .7-.24.7-.7v-4.28c-.68.26-1.38.5-2.08.74l-.46-1.92c.86-.2 1.7-.46 2.54-.76v-4.12h-2.26v-1.82h2.26v-3.62h1.92v3.62h1.86v1.82h-1.86v3.32c.52-.24 1.02-.5 1.52-.78v1.94c-.52.26-1.02.52-1.52.76v5.6c0 1.28-.66 1.94-1.96 1.94Zm5.18-17.66h9v7.22h-9v-7.22Zm7.14 5.68v-1.36h-5.3v1.36h5.3Zm-5.3-2.8h5.3v-1.34h-5.3v1.34Zm-3.14 5.38h11.5v1.7h-4.8v1.84h3.94v1.68h-3.94v2.12c.74.08 1.6.14 2.6.14 1.08 0 2-.04 2.76-.12l-.52 1.84c-.78 0-1.48-.02-2.12-.04-2.66-.02-4.48-.26-5.46-.74-.7-.36-1.34-1-1.9-1.92-.46 1.1-1.06 2.12-1.8 3.06l-1.42-1.22c1.44-1.8 2.24-3.78 2.4-5.98l1.68.2c-.04.72-.14 1.4-.28 2.06.6 1.16 1.28 1.92 2.06 2.24l.18.06v-5.22h-4.88v-1.7Zm23.4-9c.18.5.36 1.04.54 1.64h7.78v1.76h-17.78v-1.76h7.94c-.18-.46-.38-.88-.6-1.28l2.12-.36Zm5.08 18.52h-1.66l-.44-1.7 1.54.08c.74 0 1.12-.28 1.12-.8v-5.06h-12.4v7.54h-1.8v-9.18h16v7.1c0 1.34-.8 2.02-2.36 2.02Zm-11.4-14.18h11.54v4.16h-11.54v-4.16Zm9.72 2.72v-1.28h-7.9v1.28h7.9Zm-8.02 4.94h8.14v4.2h-8.14v-4.2Zm6.46 2.8v-1.4h-4.76v1.4h4.76Zm10.6-14.02h14.08v8.28h-3.56c1.28 1.34 3.22 2.42 5.82 3.22l-.82 1.68c-1.76-.68-3.24-1.46-4.44-2.34v7h-1.92v-7.64h1.1c-.72-.62-1.3-1.26-1.78-1.92h-2.96c-.54.68-1.16 1.32-1.88 1.9h1.52c0 1.6-.24 2.98-.72 4.1-.58 1.44-1.94 2.62-4.08 3.58l-1.26-1.52c1.76-.72 2.92-1.62 3.48-2.68.4-.82.62-1.88.66-3.16-1.28.94-2.8 1.78-4.6 2.5l-1.02-1.66c2.6-.82 4.54-1.84 5.82-3.06H1251v-8.28Zm12.26 6.62v-1.72h-4.34v1.72h4.34Zm-6.18 0v-1.72h-4.26v1.72h4.26Zm-4.26-3.28h4.26v-1.66h-4.26v1.66Zm6.1-1.66v1.66h4.34v-1.66h-4.34Zm10.12-1.66h17.92v1.82h-7.88c-.16.72-.36 1.42-.62 2.1h7.56v13.92h-1.84v-.84h-12.3v.84h-1.84V225.2h6.5c.26-.68.46-1.38.6-2.1h-8.1v-1.82Zm2.84 15.24h2.28v-9.58h-2.28v9.58Zm4.06 0h4.12v-2.16h-4.12v2.16Zm5.9 0h2.34v-9.58h-2.34v9.58Zm-5.9-3.78h4.12v-2.08h-4.12v2.08Zm0-3.72h4.12v-2.08h-4.12v2.08Zm20.32-5.12v13.92h-1.82v-1.04h-3.16v1.62h-1.82v-14.5h1.9c.36-1.08.64-2.18.8-3.34l1.9.26c-.2 1.1-.5 2.12-.88 3.08h3.08Zm-4.98 11.12h3.16v-3.94h-3.16v3.94Zm0-5.64h3.16v-3.68h-3.16v3.68Zm8.58-.68c1.32 1.64 2.34 3.06 3.04 4.3l-1.5 1.06c-.76-1.32-1.8-2.78-3.08-4.4l1.54-.96Zm6.72-4.78c0 6.9-.1 11.16-.3 12.76-.2 1.44-1.16 2.16-2.86 2.16-.4 0-1.12-.04-2.12-.1l-.46-1.74c.88.04 1.64.08 2.28.08.8 0 1.26-.42 1.38-1.26.12-1 .18-4.36.22-10.06h-5.02c-.56 1.2-1.2 2.3-1.96 3.3l-1.14-1.5c1.32-1.92 2.24-4.26 2.72-7.02l1.88.24c-.2 1.12-.48 2.16-.8 3.14h6.18Zm3.28-1.44h4.3c-.26-.6-.54-1.14-.86-1.64l2-.32c.28.58.54 1.24.8 1.96h3.86c.3-.64.54-1.32.7-2.02l2.04.26c-.18.62-.42 1.2-.72 1.76h4.16v1.72h-7.18v1.52h6.12v1.64h-6.12v1.54h7.84v1.76h-17.6v-1.76h7.84v-1.54h-6.06v-1.64h6.06v-1.52h-7.18v-1.72Zm7.32 8.56 1.92.2c-.06.38-.14.76-.24 1.12h7.5v1.8h-6.6c1.36 1.56 3.9 2.62 7.62 3.18l-1 1.8c-4.28-.84-7.08-2.36-8.42-4.58-.42.72-.92 1.34-1.52 1.88-1.32 1.16-3.62 2.08-6.94 2.76l-.78-1.86c2.84-.5 4.9-1.22 6.16-2.18.4-.32.72-.64 1-1h-6.22v-1.8h7.2c.14-.44.24-.88.32-1.32Zm28.48-9.76v11.22h-1.82v-9.44h-5.08v9.44h-1.82v-11.22h8.72Zm-.5 17.42h-1.98c-1.2 0-1.8-.64-1.8-1.88v-3.5c-.24.74-.54 1.42-.88 2.02-.98 1.66-2.6 2.94-4.84 3.84l-1.04-1.6c2.2-.92 3.7-2.1 4.5-3.52.76-1.52 1.18-3.48 1.26-5.9v-3.8h1.8v3.8c-.04 1.64-.24 3.08-.56 4.34h1.54v3.94c0 .38.18.58.54.58h1.16c.24 0 .44-.12.56-.34.16-.24.26-.96.3-2.16l1.66.54c-.14 1.76-.38 2.8-.72 3.16-.32.32-.82.48-1.5.48Zm-14.76-13.46c1 1.2 1.92 2.42 2.8 3.62.42-1.56.7-3.24.84-5h-4.78v-1.84h6.56v1.44c-.12 2.72-.56 5.16-1.28 7.36.78 1.16 1.5 2.34 2.16 3.52l-1.36 1.36c-.48-.92-1-1.86-1.6-2.82-.96 2.08-2.24 3.92-3.8 5.48l-1.24-1.42c1.64-1.66 2.92-3.64 3.8-5.96-1-1.46-2.12-2.96-3.38-4.52l1.28-1.22Zm22.76 6.34H1365v1.4c-1.02 1.24-2.24 2.28-3.68 3.16 1.7.64 3.66 1.12 5.86 1.4l-.82 1.64c-2.66-.44-4.94-1.14-6.84-2.06-2 .94-4.34 1.62-6.98 2.06l-.82-1.66c2.22-.32 4.2-.8 5.92-1.46-1.26-.84-2.3-1.78-3.14-2.86h-1.34v-1.62Zm3.38 1.62c.8.8 1.74 1.48 2.84 2.08 1.16-.6 2.18-1.3 3.06-2.08h-5.9Zm-4.26-5.8v1.12c-.08 4.36-.78 7.84-2.14 10.48l-1.44-1.28c1.08-2.2 1.66-5.28 1.7-9.2V222h7.58c-.22-.44-.46-.86-.7-1.22l2.02-.32c.22.46.44.98.64 1.54h6.72v1.8h-14.38v1.84h3v-1.34h1.84v1.34h4.7v-1.36h1.84v1.36h3v1.76h-3v3.08h-8.38v-3.08h-3Zm4.84 0v1.5h4.7v-1.5h-4.7Zm29.3-5.6v16.42h-1.84v-1.46h-4.34v1.7h-1.82V221.8h8Zm-6.18 13.16h4.34v-11.38h-4.34v11.38Zm-10.88-9.02h3.34v-2.4c-.92.14-1.86.24-2.78.32l-.6-1.7c3.08-.24 5.56-.74 7.46-1.46l.9 1.58c-1.02.36-2.06.68-3.14.92v2.74h3.26v1.78h-3.26v.8c1.12.98 2.26 2.08 3.42 3.3l-1.12 1.64c-.9-1.28-1.66-2.3-2.3-3.1v8.5h-1.84v-8.1c-.8 1.68-1.84 3.22-3.08 4.62l-.82-2.08c1.76-1.6 3.06-3.44 3.9-5.48v-.1h-3.34v-1.78Zm23.16 1.92v3.06h4.6v-3.06h-4.6Zm-.1 4.82c-.24 2.52-.98 4.6-2.22 6.24l-1.46-1.3c1.2-1.72 1.82-3.9 1.86-6.54v-9.8h15.34v15.06c0 1.5-.78 2.26-2.3 2.26h-2.3l-.5-1.86c.78.06 1.5.1 2.18.1.64 0 .98-.4.98-1.18v-2.98h-4.96v5.7h-1.92v-5.7h-4.7Zm11.58-1.76v-3.06h-4.96v3.06h4.96Zm0-4.8v-3h-4.96v3h4.96Zm-6.88-3h-4.6v3h4.6v-3Zm26.56 1.64h-10.9v3.4h10.9v-3.4Zm-10.92 5.26c-.12 3.52-1.04 6.58-2.78 9.14l-1.4-1.28c1.52-2.18 2.3-5 2.32-8.44v-6.54h6.42c-.32-.76-.68-1.48-1.08-2.14l2.04-.32c.34.74.66 1.56.98 2.46h6.34v7.12h-12.84Zm18.24-1.12c-.54.72-1.12 1.44-1.72 2.12l-.56-1.9c1.96-2.46 3.42-5.34 4.34-8.62l1.7.8c-.48 1.62-1.12 3.16-1.9 4.64v13.14H1431V228.9Zm3.26-5.08h5.06v-3.24h1.86v3.24h5.3v1.82h-3.8a21.17 21.17 0 0 0 4.58 8.36l-1.22 1.54a26.053 26.053 0 0 1-4.86-9.9v7.64h2.86v1.82h-2.86v3.96h-1.86v-3.96h-2.8v-1.82h2.8v-7.64c-1 4.12-2.68 7.5-5.04 10.14l-.98-1.62c2.06-2.24 3.56-5.08 4.5-8.52h-3.54v-1.82Zm24.34 3.04c-.64.7-1.32 1.32-2.04 1.86l-1-1.52c2.2-1.68 3.88-3.88 5.08-6.58h1.7c.98 2.48 2.68 4.66 5.12 6.52l-1.04 1.56c-.8-.6-1.5-1.24-2.12-1.92v1.2h-5.7v-1.12Zm5.24-.6c-.96-1.16-1.76-2.42-2.36-3.78-.7 1.44-1.48 2.7-2.36 3.78h4.72Zm-7.7 10.34h6.42c.72-2.08 1.36-4.64 1.92-7.64l1.82.46c-.52 2.68-1.16 5.06-1.92 7.18h2.8v1.82h-11.04v-1.82Zm2.16-7.06c.6 1.64 1.16 3.54 1.66 5.66l-1.62.4c-.44-1.92-1-3.74-1.66-5.5l1.62-.56Zm3.08-.6c.52 1.56.96 3.38 1.36 5.42l-1.64.4c-.34-1.84-.78-3.6-1.34-5.3l1.62-.52Zm-7.64-5.84h-4.68v-1.72h6.56l-.94 8.24h1.16c0 4.68-.22 7.38-.62 8.1-.42.72-1.3 1.08-2.62 1.08-.44 0-.9-.02-1.38-.06l-.5-1.68c.7.1 1.18.16 1.46.16.9 0 1.44-.3 1.62-.86.2-.58.3-2.26.3-5.06h-5.06l.94-7.06 1.74.1-.78 5.28h1.96l.84-6.52Zm-.52 9.58v1.7c-1.3.48-2.78.88-4.44 1.2l-.22-1.8c1.76-.28 3.32-.64 4.66-1.1Z"/>
  <path stroke="#0C9D46" stroke-linecap="round" stroke-linejoin="round" stroke-width="33.333" d="M379.675 423v300"/>
  <path stroke="#0C9D46" stroke-linejoin="round" stroke-width="33.333" d="M379.675 448h116.666l58.334 25h58.333c9.205 0 16.667 7.462 16.667 16.667v141.666c0 9.205-7.462 16.667-16.667 16.667h-58.333l-58.334-25H379.675V448Z"/>
  <path stroke="#0C9D46" stroke-linecap="round" stroke-linejoin="round" stroke-width="33.333" d="M346.325 723h66.667"/>
  <path stroke="#000" stroke-linecap="round" stroke-linejoin="round" stroke-width="5.333" d="M1008 395.667c5.89 0 10.67-4.776 10.67-10.667s-4.78-10.667-10.67-10.667-10.666 4.776-10.666 10.667 4.776 10.667 10.666 10.667Zm24 32c0-13.255-10.75-24-24-24-13.255 0-24 10.745-24 24"/>
  <path fill="#000" fill-opacity=".6" d="M994.008 453.004h1.148v6.174c0 .98.21 1.722.658 2.226.462.518 1.19.784 2.184.784.98 0 1.708-.266 2.182-.784.44-.504.66-1.246.66-2.226v-6.174h1.15v6.16c0 1.302-.34 2.296-1 2.982-.68.7-1.676 1.05-2.992 1.05s-2.31-.35-2.982-1.036c-.672-.7-1.008-1.694-1.008-2.996v-6.16Zm12.412 2.562c1.8 0 2.78.742 2.97 2.254h-1.09c-.1-.448-.28-.784-.56-.98-.31-.224-.76-.336-1.33-.336-.5 0-.9.084-1.18.28-.3.182-.46.434-.46.756 0 .308.2.574.62.784.26.126.77.28 1.5.476.86.21 1.48.434 1.86.672.57.364.87.854.87 1.484 0 1.484-1.03 2.24-3.07 2.24-1.9 0-2.94-.84-3.11-2.506h1.09c.09.574.3.98.61 1.232.3.224.77.336 1.38.336 1.29 0 1.95-.42 1.95-1.232 0-.406-.24-.714-.69-.938-.24-.112-.75-.266-1.54-.462-.85-.21-1.45-.42-1.79-.644-.56-.336-.83-.798-.83-1.414 0-.616.27-1.092.82-1.456.5-.364 1.17-.546 1.98-.546Zm7.49 0c1.16 0 2.05.392 2.63 1.176.54.7.82 1.694.84 2.954h-5.71c.06.812.27 1.442.66 1.89.39.448.94.672 1.62.672.59 0 1.08-.154 1.45-.448.3-.252.54-.63.72-1.134h1.12c-.16.7-.49 1.26-.98 1.708-.6.532-1.37.812-2.31.812-1.03 0-1.87-.35-2.49-1.022-.64-.7-.95-1.624-.95-2.8 0-1.064.29-1.96.91-2.674.62-.756 1.44-1.134 2.49-1.134Zm.03.938c-.64 0-1.16.21-1.55.63-.4.42-.62.98-.69 1.694h4.52c-.14-1.554-.91-2.324-2.28-2.324Zm7.93-.938c.4 0 .73.056 1 .168v1.12a3.69 3.69 0 0 0-1.08-.154c-.56 0-1.04.238-1.41.742-.4.476-.58 1.05-.58 1.722V463h-1.1v-7.238h1.1v1.26c.2-.42.45-.756.76-.994.38-.308.81-.462 1.31-.462Z"/>
  <path stroke="#000" stroke-linejoin="round" stroke-width="5.333" d="m1126.4 380.008 24.01-7.008 23.99 7.008v14.37c0 15.105-9.67 28.515-24 33.289-14.33-4.774-24-18.187-24-33.295v-14.364Z"/>
  <path fill="#000" fill-opacity=".6" d="M1134.77 452.808c1.12 0 2.01.252 2.66.77.67.532 1.05 1.33 1.15 2.38h-1.14c-.12-.728-.4-1.26-.84-1.61-.45-.364-1.08-.532-1.89-.532-.74 0-1.31.112-1.73.364-.48.28-.72.7-.72 1.274 0 .504.28.91.86 1.218.25.14.86.35 1.83.63 1.32.392 2.18.714 2.6.966.83.504 1.25 1.204 1.25 2.114 0 .868-.35 1.568-1.05 2.072-.7.49-1.64.742-2.83.742-1.17 0-2.1-.252-2.77-.756-.78-.602-1.22-1.512-1.3-2.744h1.13c.1.868.41 1.512.91 1.918.46.364 1.14.56 2.03.56.81 0 1.49-.154 1.99-.462.5-.308.76-.728.76-1.26 0-.63-.34-1.12-1-1.47-.28-.168-.99-.406-2.11-.728-1.21-.364-1.98-.644-2.3-.812-.77-.448-1.15-1.092-1.15-1.932 0-.868.37-1.554 1.11-2.03.66-.448 1.51-.672 2.55-.672Zm5.34 0h1.12v4.144c.26-.462.59-.812 1.01-1.05.39-.224.83-.336 1.32-.336.84 0 1.5.238 1.94.742.45.49.68 1.204.68 2.128V463h-1.12v-4.396c0-.672-.17-1.19-.48-1.554-.34-.364-.8-.546-1.4-.546-.56 0-1.02.224-1.39.672-.37.448-.56 1.022-.56 1.694V463h-1.12v-10.192Zm8.71.224c.24 0 .43.07.6.238.17.14.25.336.25.588 0 .238-.08.434-.25.602a.854.854 0 0 1-.6.238.836.836 0 0 1-.6-.238.796.796 0 0 1-.24-.602c0-.252.07-.448.24-.588.16-.168.36-.238.6-.238Zm-.56 2.73h1.12V463h-1.12v-7.238Zm6.2-.196c1.16 0 2.04.392 2.63 1.176.53.7.81 1.694.84 2.954h-5.71c.05.812.26 1.442.66 1.89.39.448.93.672 1.62.672.59 0 1.08-.154 1.44-.448.31-.252.55-.63.73-1.134h1.12c-.17.7-.49 1.26-.98 1.708-.6.532-1.37.812-2.31.812-1.04 0-1.88-.35-2.49-1.022-.65-.7-.95-1.624-.95-2.8 0-1.064.29-1.96.91-2.674.61-.756 1.44-1.134 2.49-1.134Zm.03.938c-.65 0-1.17.21-1.56.63-.39.42-.61.98-.68 1.694h4.52c-.14-1.554-.91-2.324-2.28-2.324Zm4.98-3.696h1.1V463h-1.1v-10.192Zm8.41 0h1.12V463h-1.05v-1.19c-.5.924-1.31 1.386-2.4 1.386-1.07 0-1.89-.392-2.48-1.148-.55-.7-.81-1.596-.81-2.688 0-1.064.26-1.932.81-2.632.59-.784 1.38-1.162 2.42-1.162s1.83.504 2.39 1.526v-4.284Zm-2.15 3.682c-.8 0-1.4.28-1.79.84-.37.49-.54 1.162-.54 2.03 0 .868.17 1.554.52 2.058.39.56.98.854 1.77.854.72 0 1.28-.28 1.69-.84.35-.504.53-1.162.53-1.974v-.14c0-.84-.21-1.526-.6-2.044-.41-.532-.94-.784-1.58-.784Z"/>
  <path stroke="#000" stroke-linejoin="round" stroke-width="5.333" d="M1282.97 378.333h-5.5c-3.32 0-6 2.687-6 6v37.334c0 3.313 2.68 6 6 6h30.66c3.32 0 6-2.687 6-6v-37.334c0-3.313-2.68-6-6-6h-6.17"/>
  <path stroke="#000" stroke-linecap="round" stroke-linejoin="round" stroke-width="5.333" d="M1302.13 374.333h-18.66v8h18.66v-8Zm-5.33 20-10.67 10.669h13.34l-10.67 10.667"/>
  <path fill="#000" fill-opacity=".6" d="M1279.68 452.808c1.48 0 2.67.49 3.54 1.498.81.952 1.23 2.184 1.23 3.71 0 1.512-.42 2.73-1.23 3.682-.87.994-2.06 1.498-3.56 1.498s-2.67-.504-3.54-1.498c-.83-.952-1.23-2.184-1.23-3.682 0-1.512.4-2.744 1.23-3.696.87-1.008 2.04-1.512 3.56-1.512Zm0 1.022c-1.15 0-2.06.392-2.72 1.19-.62.756-.92 1.75-.92 2.996 0 1.232.3 2.226.92 2.982.64.784 1.55 1.176 2.7 1.176 1.15 0 2.06-.392 2.7-1.148.62-.756.94-1.75.94-3.01 0-1.274-.32-2.282-.94-3.038-.64-.77-1.54-1.148-2.68-1.148Zm9.4 1.736c.39 0 .73.056.99.168v1.12a3.643 3.643 0 0 0-1.08-.154c-.56 0-1.03.238-1.41.742-.39.476-.57 1.05-.57 1.722V463h-1.11v-7.238h1.11v1.26c.19-.42.44-.756.75-.994.38-.308.81-.462 1.32-.462Zm7.28-2.758h1.12V463h-1.05v-1.19c-.5.924-1.31 1.386-2.41 1.386-1.06 0-1.89-.392-2.47-1.148-.55-.7-.82-1.596-.82-2.688 0-1.064.27-1.932.82-2.632.58-.784 1.38-1.162 2.42-1.162 1.03 0 1.83.504 2.39 1.526v-4.284Zm-2.15 3.682c-.8 0-1.4.28-1.8.84-.36.49-.53 1.162-.53 2.03 0 .868.17 1.554.52 2.058.39.56.98.854 1.76.854.73 0 1.29-.28 1.7-.84.35-.504.53-1.162.53-1.974v-.14c0-.84-.21-1.526-.6-2.044-.41-.532-.94-.784-1.58-.784Zm7.99-.924c1.16 0 2.04.392 2.63 1.176.53.7.81 1.694.84 2.954h-5.71c.05.812.26 1.442.66 1.89.39.448.93.672 1.62.672.59 0 1.08-.154 1.44-.448.31-.252.55-.63.73-1.134h1.12c-.17.7-.49 1.26-.98 1.708-.6.532-1.37.812-2.31.812-1.04 0-1.88-.35-2.49-1.022-.65-.7-.95-1.624-.95-2.8 0-1.064.29-1.96.91-2.674.61-.756 1.44-1.134 2.49-1.134Zm.03.938c-.65 0-1.17.21-1.56.63-.39.42-.61.98-.68 1.694h4.52c-.14-1.554-.91-2.324-2.28-2.324Zm7.93-.938c.39 0 .73.056.99.168v1.12a3.579 3.579 0 0 0-1.07-.154c-.56 0-1.04.238-1.42.742-.39.476-.57 1.05-.57 1.722V463h-1.11v-7.238h1.11v1.26c.19-.42.45-.756.75-.994.38-.308.82-.462 1.32-.462Z"/>
  <path stroke="#000" stroke-linejoin="round" stroke-width="5.333" d="M1425.38 378.332h-5.51c-3.31 0-6 2.686-6 6v37.333c0 3.314 2.69 6 6 6h30.67c3.31 0 6-2.686 6-6v-37.333c0-3.314-2.69-6-6-6h-6.17"/>
  <path stroke="#000" stroke-width="5.333" d="M1425.87 385.013v-6.666h5.27c.04 0 .07-.03.07-.066v-2.601a4 4 0 1 1 8 0v2.601c0 .036.03.066.06.066h5.27v6.666c0 .737-.6 1.334-1.33 1.334h-16c-.74 0-1.34-.597-1.34-1.334Z"/>
  <path fill="#000" fill-opacity=".6" d="M1408.21 453.004h1.2l5.66 8.134h.04v-8.134h1.15V463h-1.18l-5.68-8.218h-.04V463h-1.15v-9.996Zm13.15 2.562c1.08 0 1.95.364 2.59 1.12.62.714.93 1.61.93 2.702 0 1.078-.31 1.974-.91 2.674-.66.756-1.53 1.134-2.61 1.134-1.09 0-1.94-.378-2.59-1.134-.61-.7-.92-1.596-.92-2.674 0-1.092.31-1.988.92-2.702.65-.756 1.5-1.12 2.59-1.12Zm0 .938c-.77 0-1.37.294-1.79.882-.39.532-.57 1.19-.57 2.002 0 .798.18 1.456.57 1.988.42.588 1.02.882 1.79.882.76 0 1.36-.294 1.81-.882.38-.532.57-1.204.57-1.988 0-.812-.19-1.47-.57-2.002-.45-.588-1.05-.882-1.81-.882Zm6.91-3.08v2.338h1.79v.938h-1.79v4.606c0 .266.04.462.15.574.1.112.28.182.53.182h.93V463h-1.1c-.58 0-1.02-.154-1.27-.462-.24-.28-.35-.686-.35-1.232V456.7h-1.46v-.938h1.46v-1.876l1.11-.462Zm6.02 2.142c1.16 0 2.05.392 2.63 1.176.54.7.82 1.694.84 2.954h-5.71c.06.812.27 1.442.66 1.89.39.448.94.672 1.62.672.59 0 1.08-.154 1.45-.448.3-.252.54-.63.72-1.134h1.12c-.16.7-.49 1.26-.98 1.708-.6.532-1.37.812-2.31.812-1.03 0-1.87-.35-2.49-1.022-.64-.7-.95-1.624-.95-2.8 0-1.064.29-1.96.91-2.674.62-.756 1.44-1.134 2.49-1.134Zm.03.938c-.64 0-1.16.21-1.55.63-.4.42-.62.98-.69 1.694h4.52c-.14-1.554-.91-2.324-2.28-2.324Zm8.21-.938c1.04 0 1.87.378 2.47 1.162.54.7.82 1.582.82 2.674 0 1.064-.28 1.946-.81 2.646-.59.756-1.38 1.148-2.42 1.148s-1.83-.504-2.39-1.512v4.088h-1.12v-10.01h1.05v1.19c.51-.924 1.31-1.386 2.4-1.386Zm-.14.924c-.72 0-1.3.28-1.69.854-.36.504-.55 1.176-.55 1.988v.14c0 .84.2 1.512.62 2.03.39.504.91.77 1.58.77.79 0 1.37-.28 1.78-.812.36-.504.55-1.19.55-2.058 0-.854-.19-1.54-.52-2.044-.41-.588-1-.868-1.77-.868Zm8.04-.924c1.04 0 1.79.266 2.3.812.42.476.64 1.134.64 1.974V463h-1.05v-1.218c-.28.392-.66.714-1.11.966-.53.294-1.13.448-1.8.448-.73 0-1.3-.182-1.74-.546-.45-.378-.67-.868-.67-1.456 0-.826.32-1.442.99-1.862.59-.392 1.43-.602 2.52-.616l1.74-.028v-.378c0-1.218-.63-1.82-1.89-1.82-.53 0-.97.098-1.3.322-.38.224-.62.574-.73 1.036l-1.11-.084c.16-.756.54-1.33 1.12-1.694.54-.336 1.22-.504 2.09-.504Zm1.82 3.962-1.67.028c-1.62.028-2.43.56-2.43 1.61 0 .336.12.602.4.826.28.21.65.322 1.1.322.68 0 1.28-.224 1.82-.672.51-.434.78-.938.78-1.498v-.616Zm8.2-6.72h1.12V463h-1.05v-1.19c-.51.924-1.32 1.386-2.41 1.386-1.06 0-1.89-.392-2.48-1.148-.54-.7-.81-1.596-.81-2.688 0-1.064.27-1.932.81-2.632.59-.784 1.39-1.162 2.42-1.162 1.04 0 1.84.504 2.4 1.526v-4.284Zm-2.16 3.682c-.8 0-1.4.28-1.79.84-.36.49-.53 1.162-.53 2.03 0 .868.17 1.554.52 2.058.39.56.98.854 1.76.854.73 0 1.29-.28 1.69-.84.35-.504.54-1.162.54-1.974v-.14c0-.84-.21-1.526-.61-2.044-.4-.532-.93-.784-1.58-.784Z"/>
  <path stroke="#000" stroke-linejoin="round" stroke-width="5.333" d="M1550.93 391c0-3.314 2.69-6 6-6h41.33c3.32 0 6 2.686 6 6v28c0 3.314-2.68 6-6 6h-41.33c-3.31 0-6-2.686-6-6v-28Z"/>
  <path stroke="#000" stroke-linecap="round" stroke-linejoin="round" stroke-width="5.333" d="m1570.93 394.333 6.67 6.667 6.66-6.667m-14.66 8h16m-16 8h16m-8-8v13.334M1556.27 377h42.66"/>
  <path fill="#000" fill-opacity=".6" d="M1552.42 452.808c1.11 0 2.04.294 2.8.882.76.588 1.2 1.386 1.34 2.38h-1.1c-.14-.728-.51-1.288-1.07-1.68-.54-.378-1.2-.56-1.98-.56-1.17 0-2.06.406-2.69 1.218-.59.756-.88 1.75-.88 2.996s.28 2.24.86 2.968c.62.77 1.5 1.162 2.68 1.162.8 0 1.47-.21 2.03-.63.59-.448.99-1.106 1.19-1.974h1.1c-.22 1.162-.74 2.072-1.56 2.716-.77.602-1.7.91-2.76.91-1.56 0-2.75-.518-3.57-1.54-.76-.924-1.12-2.128-1.12-3.612s.38-2.702 1.15-3.654c.84-1.064 2.04-1.582 3.58-1.582Zm8.97 2.758c1.08 0 1.94.364 2.59 1.12.61.714.92 1.61.92 2.702 0 1.078-.31 1.974-.91 2.674-.66.756-1.52 1.134-2.6 1.134-1.09 0-1.95-.378-2.59-1.134-.62-.7-.93-1.596-.93-2.674 0-1.092.31-1.988.93-2.702.64-.756 1.5-1.12 2.59-1.12Zm0 .938c-.77 0-1.37.294-1.79.882-.4.532-.58 1.19-.58 2.002 0 .798.18 1.456.58 1.988.42.588 1.02.882 1.79.882.75 0 1.36-.294 1.8-.882.38-.532.58-1.204.58-1.988 0-.812-.2-1.47-.58-2.002-.44-.588-1.05-.882-1.8-.882Zm8.35-.938c1.8 0 2.71.994 2.71 2.982V463h-1.12v-4.368c0-1.414-.65-2.114-1.91-2.114-.5 0-.94.182-1.3.546-.39.392-.6.91-.64 1.568V463h-1.12v-7.238h1.12v1.064c.25-.406.57-.714.96-.924a2.58 2.58 0 0 1 1.3-.336Zm7 0c1.79 0 2.77.742 2.97 2.254h-1.1c-.09-.448-.28-.784-.56-.98-.3-.224-.75-.336-1.33-.336-.5 0-.89.084-1.17.28-.31.182-.46.434-.46.756 0 .308.19.574.61.784.27.126.77.28 1.5.476.87.21 1.48.434 1.86.672.58.364.87.854.87 1.484 0 1.484-1.02 2.24-3.07 2.24-1.9 0-2.94-.84-3.1-2.506h1.09c.08.574.29.98.6 1.232.31.224.77.336 1.39.336 1.28 0 1.94-.42 1.94-1.232 0-.406-.24-.714-.68-.938-.24-.112-.76-.266-1.54-.462-.86-.21-1.46-.42-1.8-.644-.56-.336-.82-.798-.82-1.414 0-.616.26-1.092.81-1.456.5-.364 1.18-.546 1.99-.546Zm4.5.196h1.12v4.424c0 .686.14 1.204.44 1.54.29.336.77.518 1.43.518.47 0 .91-.196 1.28-.56.4-.392.63-.896.72-1.512v-4.41h1.12V463h-1.12v-1.12c-.59.868-1.37 1.316-2.35 1.316-1.77 0-2.64-.994-2.64-2.954v-4.48Zm11-.196c1.11 0 1.86.448 2.27 1.372.28-.476.62-.826 1.01-1.036.35-.224.77-.336 1.27-.336.76 0 1.36.238 1.84.714.44.49.68 1.148.68 1.974V463h-1.12v-4.564c0-.644-.14-1.12-.4-1.428-.28-.336-.73-.49-1.35-.49-.47 0-.88.168-1.19.532-.33.364-.49.826-.49 1.414V463h-1.12v-4.564c0-1.288-.56-1.918-1.66-1.918-.52 0-.94.196-1.28.616-.33.392-.5.882-.5 1.456V463h-1.12v-7.238h1.12v.966c.54-.784 1.23-1.162 2.04-1.162Zm11.8 0c1.16 0 2.04.392 2.63 1.176.53.7.81 1.694.84 2.954h-5.71c.05.812.26 1.442.66 1.89.39.448.93.672 1.62.672.59 0 1.08-.154 1.44-.448.31-.252.55-.63.73-1.134h1.12c-.17.7-.49 1.26-.98 1.708-.6.532-1.37.812-2.31.812-1.04 0-1.88-.35-2.49-1.022-.65-.7-.95-1.624-.95-2.8 0-1.064.29-1.96.91-2.674.61-.756 1.44-1.134 2.49-1.134Zm.03.938c-.65 0-1.17.21-1.56.63-.39.42-.61.98-.68 1.694h4.52c-.14-1.554-.91-2.324-2.28-2.324Z"/>
  <path stroke="#000" stroke-linecap="round" stroke-linejoin="round" stroke-width="5.333" d="M1719.99 389v-6c0-3.314-2.69-6-6-6H1702c-3.31 0-6 2.686-6 6v36c0 3.314 2.69 6 6 6h12c3.31 0 6-2.686 6-6v-6m12 0 12-12-12-12m-22.67 11.989H1744"/>
  <path fill="#000" fill-opacity=".6" d="M1698.01 453.004h1.13v9.002h5.78V463h-6.91v-9.996Zm11.32 2.562c1.08 0 1.95.364 2.59 1.12.62.714.93 1.61.93 2.702 0 1.078-.31 1.974-.91 2.674-.66.756-1.53 1.134-2.61 1.134-1.09 0-1.94-.378-2.59-1.134-.61-.7-.92-1.596-.92-2.674 0-1.092.31-1.988.92-2.702.65-.756 1.5-1.12 2.59-1.12Zm0 .938c-.77 0-1.37.294-1.79.882-.39.532-.57 1.19-.57 2.002 0 .798.18 1.456.57 1.988.42.588 1.02.882 1.79.882.76 0 1.36-.294 1.81-.882.38-.532.57-1.204.57-1.988 0-.812-.19-1.47-.57-2.002-.45-.588-1.05-.882-1.81-.882Zm7.95-.938c1.1 0 1.91.476 2.44 1.442v-1.246h1.12v6.734c0 2.31-1.11 3.472-3.3 3.472-.98 0-1.74-.196-2.24-.588-.52-.392-.84-.98-.97-1.764h1.12c.08.49.29.854.62 1.078.32.238.81.364 1.47.364 1.45 0 2.18-.812 2.18-2.408v-1.274c-.53.966-1.34 1.456-2.44 1.456-1 0-1.8-.35-2.39-1.036-.59-.672-.87-1.526-.87-2.576 0-1.064.28-1.918.87-2.59.59-.714 1.39-1.064 2.39-1.064Zm.17.924c-.73 0-1.29.252-1.69.784-.39.476-.59 1.134-.59 1.946 0 .756.17 1.386.52 1.862.39.532.96.812 1.75.812.73 0 1.29-.252 1.71-.756.39-.49.58-1.134.58-1.918 0-.812-.19-1.47-.58-1.946-.42-.532-.98-.784-1.7-.784Zm8.36-.924c1.08 0 1.94.364 2.59 1.12.61.714.92 1.61.92 2.702 0 1.078-.31 1.974-.91 2.674-.66.756-1.52 1.134-2.6 1.134-1.09 0-1.95-.378-2.59-1.134-.62-.7-.93-1.596-.93-2.674 0-1.092.31-1.988.93-2.702.64-.756 1.5-1.12 2.59-1.12Zm0 .938c-.77 0-1.37.294-1.79.882-.4.532-.58 1.19-.58 2.002 0 .798.18 1.456.58 1.988.42.588 1.02.882 1.79.882.75 0 1.36-.294 1.8-.882.38-.532.58-1.204.58-1.988 0-.812-.2-1.47-.58-2.002-.44-.588-1.05-.882-1.8-.882Zm4.97-.742h1.12v4.424c0 .686.14 1.204.43 1.54.29.336.77.518 1.43.518.47 0 .91-.196 1.29-.56.39-.392.63-.896.71-1.512v-4.41h1.12V463h-1.12v-1.12c-.59.868-1.37 1.316-2.35 1.316-1.77 0-2.63-.994-2.63-2.954v-4.48Zm9.76-2.338v2.338h1.79v.938h-1.79v4.606c0 .266.04.462.16.574.09.112.28.182.53.182h.92V463h-1.09c-.59 0-1.02-.154-1.27-.462-.24-.28-.35-.686-.35-1.232V456.7h-1.46v-.938h1.46v-1.876l1.1-.462Z"/>
  <path stroke="#000" stroke-linejoin="round" stroke-width="5.333" d="M981.332 522.667a6 6 0 0 1 6-6h41.338c3.31 0 6 2.686 6 6v30.666c0 3.314-2.69 6-6 6h-41.338a6 6 0 0 1-6-6v-30.666Z"/>
  <path stroke="#000" stroke-linecap="round" stroke-linejoin="round" stroke-width="5.333" d="M981.332 527.333h53.338M1012 548.667h12"/>
  <path fill="#000" fill-opacity=".6" d="M974.008 590.004h4.466c.924 0 1.666.224 2.212.672.532.448.798 1.064.798 1.848 0 .56-.154 1.05-.448 1.456-.308.364-.714.63-1.218.798.658.112 1.162.392 1.526.812.364.42.56.952.56 1.624 0 .98-.35 1.708-1.036 2.184-.588.392-1.4.602-2.422.602h-4.438v-9.996Zm1.148.966v3.402h3.038c.7 0 1.232-.154 1.596-.434.364-.294.56-.728.56-1.302 0-.56-.182-.98-.546-1.26-.364-.28-.896-.406-1.596-.406h-3.052Zm0 4.354v3.71h3.192c.7 0 1.246-.14 1.666-.392.49-.308.742-.798.742-1.442 0-.644-.224-1.12-.644-1.428-.406-.308-.994-.448-1.764-.448h-3.192Zm11.337-2.758c1.036 0 1.792.266 2.296.812.42.476.644 1.134.644 1.974V600h-1.05v-1.218c-.28.392-.658.714-1.106.966a3.675 3.675 0 0 1-1.806.448c-.728 0-1.302-.182-1.736-.546a1.825 1.825 0 0 1-.672-1.456c0-.826.322-1.442.994-1.862.588-.392 1.428-.602 2.52-.616l1.736-.028v-.378c0-1.218-.63-1.82-1.89-1.82-.532 0-.966.098-1.302.322-.378.224-.616.574-.728 1.036l-1.106-.084c.154-.756.532-1.33 1.12-1.694.532-.336 1.218-.504 2.086-.504Zm1.82 3.962-1.666.028c-1.624.028-2.436.56-2.436 1.61 0 .336.126.602.406.826.28.21.644.322 1.092.322.686 0 1.288-.224 1.82-.672.518-.434.784-.938.784-1.498v-.616Zm6.238-3.962c1.792 0 2.702.994 2.702 2.982V600h-1.12v-4.368c0-1.414-.644-2.114-1.904-2.114-.504 0-.938.182-1.302.546-.392.392-.602.91-.644 1.568V600h-1.12v-7.238h1.12v1.064c.252-.406.574-.714.966-.924a2.578 2.578 0 0 1 1.302-.336Zm4.432-2.758h1.117v6.314l3.63-3.36h1.48l-3.19 2.912 3.5 4.326h-1.44l-2.83-3.598-1.15 1.036V600h-1.117v-10.192Zm7.247 6.09h7.07v.952h-7.07v-.952Zm11.76-3.332c.9 0 1.61.21 2.16.63.56.434.89 1.092 1.02 1.974h-1.11c-.09-.56-.32-.98-.67-1.26-.36-.28-.82-.406-1.4-.406-.7 0-1.26.266-1.66.798-.4.518-.59 1.218-.59 2.1 0 .882.18 1.582.57 2.086.38.504.94.77 1.67.77 1.23 0 1.94-.63 2.11-1.876h1.12c-.17.924-.52 1.638-1.08 2.114-.54.462-1.26.7-2.15.7-1.09 0-1.93-.364-2.54-1.092-.57-.686-.85-1.582-.85-2.688s.28-2.002.85-2.702c.62-.77 1.47-1.148 2.55-1.148Zm7.69 0c1.03 0 1.79.266 2.29.812.42.476.65 1.134.65 1.974V600h-1.05v-1.218c-.28.392-.66.714-1.11.966-.53.294-1.13.448-1.81.448-.72 0-1.3-.182-1.73-.546-.45-.378-.67-.868-.67-1.456 0-.826.32-1.442.99-1.862.59-.392 1.43-.602 2.52-.616l1.74-.028v-.378c0-1.218-.63-1.82-1.89-1.82-.54 0-.97.098-1.31.322-.37.224-.61.574-.72 1.036l-1.11-.084c.15-.756.53-1.33 1.12-1.694.53-.336 1.22-.504 2.09-.504Zm1.82 3.962-1.67.028c-1.62.028-2.44.56-2.44 1.61 0 .336.13.602.41.826.28.21.64.322 1.09.322.69 0 1.29-.224 1.82-.672.52-.434.79-.938.79-1.498v-.616Zm6.02-3.962c.4 0 .73.056 1 .168v1.12a3.69 3.69 0 0 0-1.08-.154c-.56 0-1.04.238-1.41.742-.4.476-.58 1.05-.58 1.722V600h-1.1v-7.238h1.1v1.26c.2-.42.45-.756.76-.994.38-.308.81-.462 1.31-.462Zm7.29-2.758h1.12V600h-1.05v-1.19c-.51.924-1.32 1.386-2.41 1.386-1.06 0-1.89-.392-2.48-1.148-.54-.7-.81-1.596-.81-2.688 0-1.064.27-1.932.81-2.632.59-.784 1.39-1.162 2.42-1.162 1.04 0 1.84.504 2.4 1.526v-4.284Zm-2.16 3.682c-.8 0-1.4.28-1.79.84-.36.49-.53 1.162-.53 2.03 0 .868.17 1.554.52 2.058.39.56.98.854 1.76.854.73 0 1.29-.28 1.69-.84.35-.504.54-1.162.54-1.974v-.14c0-.84-.21-1.526-.61-2.044-.4-.532-.93-.784-1.58-.784Z"/>
  <path stroke="#000" stroke-linejoin="round" stroke-width="5.333" d="M1123.73 531.751V524c0-3.314 2.69-6 6-6h41.34c3.31 0 6 2.686 6 6v7.751a7.326 7.326 0 0 0-4.85 6.916 7.327 7.327 0 0 0 4.85 6.916v7.75c0 3.314-2.69 6-6 6h-41.34c-3.31 0-6-2.686-6-6v-7.75a7.327 7.327 0 0 0 4.85-6.916c0-3.193-2.02-5.91-4.85-6.916Z"/>
  <path stroke="#000" stroke-linecap="round" stroke-width="5.333" d="M1141.07 532.666h8m-8 12h18.67"/>
  <path fill="#000" fill-opacity=".6" d="M1130.22 589.808c1.11 0 2.04.294 2.8.882.76.588 1.2 1.386 1.34 2.38h-1.1c-.14-.728-.51-1.288-1.07-1.68-.54-.378-1.2-.56-1.98-.56-1.17 0-2.06.406-2.69 1.218-.59.756-.88 1.75-.88 2.996s.28 2.24.86 2.968c.62.77 1.5 1.162 2.68 1.162.8 0 1.47-.21 2.03-.63.59-.448.99-1.106 1.19-1.974h1.1c-.22 1.162-.74 2.072-1.56 2.716-.77.602-1.7.91-2.76.91-1.56 0-2.75-.518-3.57-1.54-.76-.924-1.12-2.128-1.12-3.612s.38-2.702 1.15-3.654c.84-1.064 2.04-1.582 3.58-1.582Zm8.97 2.758c1.08 0 1.94.364 2.59 1.12.61.714.92 1.61.92 2.702 0 1.078-.31 1.974-.91 2.674-.66.756-1.52 1.134-2.6 1.134-1.09 0-1.95-.378-2.59-1.134-.62-.7-.93-1.596-.93-2.674 0-1.092.31-1.988.93-2.702.64-.756 1.5-1.12 2.59-1.12Zm0 .938c-.77 0-1.37.294-1.79.882-.4.532-.58 1.19-.58 2.002 0 .798.18 1.456.58 1.988.42.588 1.02.882 1.79.882.75 0 1.36-.294 1.8-.882.38-.532.58-1.204.58-1.988 0-.812-.2-1.47-.58-2.002-.44-.588-1.05-.882-1.8-.882Zm4.97-.742h1.12v4.424c0 .686.14 1.204.43 1.54.3.336.77.518 1.43.518.48 0 .91-.196 1.29-.56.39-.392.63-.896.71-1.512v-4.41h1.12V600h-1.12v-1.12c-.59.868-1.37 1.316-2.35 1.316-1.76 0-2.63-.994-2.63-2.954v-4.48Zm11.29-.196c1.04 0 1.86.378 2.46 1.162.55.7.83 1.582.83 2.674 0 1.064-.28 1.946-.81 2.646-.59.756-1.39 1.148-2.42 1.148-1.04 0-1.84-.504-2.4-1.512v4.088h-1.12v-10.01h1.05v1.19c.52-.924 1.32-1.386 2.41-1.386Zm-.14.924c-.73 0-1.3.28-1.69.854-.37.504-.55 1.176-.55 1.988v.14c0 .84.2 1.512.62 2.03.39.504.91.77 1.58.77.78 0 1.37-.28 1.78-.812.36-.504.54-1.19.54-2.058 0-.854-.18-1.54-.52-2.044-.4-.588-.99-.868-1.76-.868Zm8.12-.924c1.08 0 1.94.364 2.59 1.12.61.714.92 1.61.92 2.702 0 1.078-.31 1.974-.91 2.674-.66.756-1.52 1.134-2.6 1.134-1.09 0-1.95-.378-2.59-1.134-.62-.7-.93-1.596-.93-2.674 0-1.092.31-1.988.93-2.702.64-.756 1.5-1.12 2.59-1.12Zm0 .938c-.77 0-1.37.294-1.79.882-.4.532-.58 1.19-.58 2.002 0 .798.18 1.456.58 1.988.42.588 1.02.882 1.79.882.75 0 1.36-.294 1.8-.882.38-.532.58-1.204.58-1.988 0-.812-.2-1.47-.58-2.002-.44-.588-1.05-.882-1.8-.882Zm8.36-.938c1.79 0 2.7.994 2.7 2.982V600h-1.12v-4.368c0-1.414-.65-2.114-1.91-2.114-.5 0-.93.182-1.3.546-.39.392-.6.91-.64 1.568V600h-1.12v-7.238h1.12v1.064c.25-.406.57-.714.96-.924.4-.224.83-.336 1.31-.336Z"/>
  <path stroke="#000" stroke-linejoin="round" stroke-width="5.333" d="M1310.13 552.667a4 4 0 0 0-4-4h-26.66a4 4 0 0 0-4 4v8a4 4 0 0 0 4 4h26.66a4 4 0 0 0 4-4v-8Z"/>
  <path stroke="#000" stroke-linecap="round" stroke-linejoin="round" stroke-width="5.333" d="M1266.13 538.667c0-3.314 2.69-6 6-6h41.34c3.31 0 6 2.686 6 6v12c0 3.313-2.69 6-6 6h-3.32v-4a4 4 0 0 0-4-4h-26.71a4 4 0 0 0-4 4v4h-3.31c-3.31 0-6-2.687-6-6v-12Z" clip-rule="evenodd"/>
  <path stroke="#000" stroke-linejoin="round" stroke-width="5.333" d="M1311.47 517.333c0-3.313-2.69-6-6-6h-25.34c-3.31 0-6 2.687-6 6v15.334h37.34v-15.334Z"/>
  <path fill="#000" fill-opacity=".6" d="M1271.81 590.004h4.09c2.29 0 3.44.98 3.44 2.94 0 1.974-1.16 2.968-3.46 2.968h-2.92V600h-1.15v-9.996Zm1.15.994v3.92h2.87c.81 0 1.4-.168 1.79-.49.38-.322.57-.812.57-1.484 0-.672-.19-1.162-.59-1.456-.39-.336-.98-.49-1.77-.49h-2.87Zm10.87 1.568c.39 0 .73.056.99.168v1.12a3.643 3.643 0 0 0-1.08-.154c-.56 0-1.03.238-1.41.742-.39.476-.57 1.05-.57 1.722V600h-1.11v-7.238h1.11v1.26c.19-.42.44-.756.75-.994.38-.308.81-.462 1.32-.462Zm2.86-2.534c.24 0 .43.07.6.238.17.14.25.336.25.588 0 .238-.08.434-.25.602a.854.854 0 0 1-.6.238.836.836 0 0 1-.6-.238.796.796 0 0 1-.24-.602c0-.252.07-.448.24-.588.16-.168.36-.238.6-.238Zm-.56 2.73h1.12V600h-1.12v-7.238Zm6.6-.196c1.8 0 2.71.994 2.71 2.982V600h-1.12v-4.368c0-1.414-.65-2.114-1.91-2.114-.5 0-.94.182-1.3.546-.39.392-.6.91-.64 1.568V600h-1.12v-7.238h1.12v1.064c.25-.406.57-.714.96-.924a2.58 2.58 0 0 1 1.3-.336Zm6.37-2.142v2.338h1.79v.938h-1.79v4.606c0 .266.04.462.15.574.1.112.28.182.53.182h.93V600h-1.09c-.59 0-1.03-.154-1.28-.462-.24-.28-.35-.686-.35-1.232V593.7h-1.45v-.938h1.45v-1.876l1.11-.462Zm6.02 2.142c1.17 0 2.05.392 2.64 1.176.53.7.81 1.694.84 2.954h-5.72c.06.812.27 1.442.66 1.89.39.448.94.672 1.63.672.58 0 1.07-.154 1.44-.448.31-.252.54-.63.73-1.134h1.12c-.17.7-.49 1.26-.98 1.708-.61.532-1.38.812-2.31.812-1.04 0-1.88-.35-2.5-1.022-.64-.7-.95-1.624-.95-2.8 0-1.064.3-1.96.91-2.674.62-.756 1.44-1.134 2.49-1.134Zm.03.938c-.64 0-1.16.21-1.55.63-.39.42-.62.98-.69 1.694h4.52c-.14-1.554-.91-2.324-2.28-2.324Zm7.94-.938c.39 0 .72.056.99.168v1.12a3.643 3.643 0 0 0-1.08-.154c-.56 0-1.03.238-1.41.742-.39.476-.58 1.05-.58 1.722V600h-1.1v-7.238h1.1v1.26c.2-.42.45-.756.76-.994.38-.308.81-.462 1.32-.462Z"/>
  <path stroke="#000" stroke-linecap="round" stroke-linejoin="round" stroke-width="5.333" d="M1411.2 538.011V556c0 3.314 2.69 6 6 6h36c3.31 0 6-2.686 6-6v-18m-12-12-12-12-12 12m11.99 22.667V514"/>
  <path fill="#000" fill-opacity=".6" d="M1413.21 590.004h1.15v6.174c0 .98.21 1.722.65 2.226.47.518 1.19.784 2.19.784.98 0 1.71-.266 2.18-.784.44-.504.66-1.246.66-2.226v-6.174h1.15v6.16c0 1.302-.34 2.296-1 2.982-.68.7-1.68 1.05-2.99 1.05-1.32 0-2.31-.35-2.98-1.036-.68-.7-1.01-1.694-1.01-2.996v-6.16Zm13.31 2.562c1.04 0 1.86.378 2.46 1.162.55.7.83 1.582.83 2.674 0 1.064-.28 1.946-.81 2.646-.59.756-1.39 1.148-2.42 1.148-1.04 0-1.84-.504-2.4-1.512v4.088h-1.12v-10.01h1.05v1.19c.52-.924 1.32-1.386 2.41-1.386Zm-.14.924c-.73 0-1.3.28-1.69.854-.37.504-.55 1.176-.55 1.988v.14c0 .84.2 1.512.62 2.03.39.504.91.77 1.58.77.78 0 1.37-.28 1.78-.812.36-.504.54-1.19.54-2.058 0-.854-.18-1.54-.52-2.044-.4-.588-.99-.868-1.76-.868Zm5.11-3.682h1.11V600h-1.11v-10.192Zm6.3 2.758c1.08 0 1.95.364 2.59 1.12.62.714.93 1.61.93 2.702 0 1.078-.31 1.974-.91 2.674-.66.756-1.53 1.134-2.61 1.134-1.09 0-1.94-.378-2.59-1.134-.61-.7-.92-1.596-.92-2.674 0-1.092.31-1.988.92-2.702.65-.756 1.5-1.12 2.59-1.12Zm0 .938c-.77 0-1.37.294-1.79.882-.39.532-.57 1.19-.57 2.002 0 .798.18 1.456.57 1.988.42.588 1.02.882 1.79.882.76 0 1.36-.294 1.81-.882.38-.532.57-1.204.57-1.988 0-.812-.19-1.47-.57-2.002-.45-.588-1.05-.882-1.81-.882Zm8.12-.938c1.04 0 1.8.266 2.3.812.42.476.64 1.134.64 1.974V600h-1.05v-1.218c-.28.392-.65.714-1.1.966a3.69 3.69 0 0 1-1.81.448c-.73 0-1.3-.182-1.73-.546a1.826 1.826 0 0 1-.68-1.456c0-.826.33-1.442 1-1.862.59-.392 1.43-.602 2.52-.616l1.73-.028v-.378c0-1.218-.63-1.82-1.89-1.82-.53 0-.96.098-1.3.322-.38.224-.61.574-.73 1.036l-1.1-.084c.15-.756.53-1.33 1.12-1.694.53-.336 1.22-.504 2.08-.504Zm1.82 3.962-1.66.028c-1.63.028-2.44.56-2.44 1.61 0 .336.13.602.41.826.28.21.64.322 1.09.322.69 0 1.29-.224 1.82-.672.52-.434.78-.938.78-1.498v-.616Zm8.2-6.72h1.12V600H1456v-1.19c-.5.924-1.31 1.386-2.41 1.386-1.06 0-1.89-.392-2.47-1.148-.55-.7-.82-1.596-.82-2.688 0-1.064.27-1.932.82-2.632.58-.784 1.38-1.162 2.42-1.162 1.03 0 1.83.504 2.39 1.526v-4.284Zm-2.15 3.682c-.8 0-1.4.28-1.8.84-.36.49-.53 1.162-.53 2.03 0 .868.17 1.554.52 2.058.39.56.98.854 1.76.854.73 0 1.29-.28 1.7-.84.35-.504.53-1.162.53-1.974v-.14c0-.84-.21-1.526-.6-2.044-.41-.532-.94-.784-1.58-.784Z"/>
  <path stroke="#000" stroke-linecap="round" stroke-linejoin="round" stroke-width="5.333" d="M1553.6 538.011V556c0 3.314 2.69 6 6 6h36c3.31 0 6-2.686 6-6v-18"/>
  <path stroke="#000" stroke-linecap="round" stroke-linejoin="round" stroke-width="5.333" d="m1589.6 536.667-12 12-12-12M1577.59 514v34.667"/>
  <path fill="#000" fill-opacity=".6" d="M1546.61 590.004h3.58c1.58 0 2.77.448 3.59 1.372.74.84 1.12 2.058 1.12 3.626 0 1.54-.41 2.758-1.21 3.626-.84.91-2.04 1.372-3.61 1.372h-3.47v-9.996Zm1.15.994v8.008h2.12c1.31 0 2.29-.35 2.94-1.036.62-.672.94-1.666.94-2.968 0-1.344-.29-2.338-.87-2.982-.61-.686-1.56-1.022-2.88-1.022h-2.25Zm11.83 1.568c1.07 0 1.94.364 2.59 1.12.61.714.92 1.61.92 2.702 0 1.078-.31 1.974-.91 2.674-.66.756-1.53 1.134-2.6 1.134-1.1 0-1.95-.378-2.59-1.134-.62-.7-.93-1.596-.93-2.674 0-1.092.31-1.988.93-2.702.64-.756 1.49-1.12 2.59-1.12Zm0 .938c-.77 0-1.38.294-1.8.882-.39.532-.57 1.19-.57 2.002 0 .798.18 1.456.57 1.988.42.588 1.03.882 1.8.882.75 0 1.35-.294 1.8-.882.38-.532.58-1.204.58-1.988 0-.812-.2-1.47-.58-2.002-.45-.588-1.05-.882-1.8-.882Zm4.17-.742h1.23l1.78 5.866 1.68-5.866h1.05l1.68 5.866 1.78-5.866h1.23l-2.47 7.238h-1.06l-1.68-5.824-1.71 5.824h-1.05l-2.46-7.238Zm14.75-.196c1.79 0 2.7.994 2.7 2.982V600h-1.12v-4.368c0-1.414-.64-2.114-1.9-2.114-.5 0-.94.182-1.3.546-.39.392-.6.91-.65 1.568V600h-1.12v-7.238h1.12v1.064c.26-.406.58-.714.97-.924a2.58 2.58 0 0 1 1.3-.336Zm4.66-2.758h1.1V600h-1.1v-10.192Zm6.3 2.758c1.08 0 1.95.364 2.59 1.12.62.714.93 1.61.93 2.702 0 1.078-.31 1.974-.91 2.674-.66.756-1.53 1.134-2.61 1.134-1.09 0-1.94-.378-2.59-1.134-.61-.7-.92-1.596-.92-2.674 0-1.092.31-1.988.92-2.702.65-.756 1.5-1.12 2.59-1.12Zm0 .938c-.77 0-1.37.294-1.79.882-.39.532-.57 1.19-.57 2.002 0 .798.18 1.456.57 1.988.42.588 1.02.882 1.79.882.76 0 1.36-.294 1.81-.882.38-.532.57-1.204.57-1.988 0-.812-.19-1.47-.57-2.002-.45-.588-1.05-.882-1.81-.882Zm8.12-.938c1.04 0 1.79.266 2.3.812.42.476.64 1.134.64 1.974V600h-1.05v-1.218c-.28.392-.66.714-1.1.966-.54.294-1.14.448-1.81.448-.73 0-1.3-.182-1.74-.546a1.848 1.848 0 0 1-.67-1.456c0-.826.32-1.442 1-1.862.58-.392 1.42-.602 2.52-.616l1.73-.028v-.378c0-1.218-.63-1.82-1.89-1.82-.53 0-.96.098-1.3.322-.38.224-.62.574-.73 1.036l-1.1-.084c.15-.756.53-1.33 1.12-1.694.53-.336 1.21-.504 2.08-.504Zm1.82 3.962-1.66.028c-1.63.028-2.44.56-2.44 1.61 0 .336.13.602.41.826.28.21.64.322 1.09.322.68 0 1.29-.224 1.82-.672.52-.434.78-.938.78-1.498v-.616Zm8.2-6.72h1.12V600h-1.05v-1.19c-.5.924-1.32 1.386-2.41 1.386-1.06 0-1.89-.392-2.48-1.148-.54-.7-.81-1.596-.81-2.688 0-1.064.27-1.932.81-2.632.59-.784 1.39-1.162 2.43-1.162 1.03 0 1.83.504 2.39 1.526v-4.284Zm-2.16 3.682c-.79 0-1.4.28-1.79.84-.36.49-.53 1.162-.53 2.03 0 .868.17 1.554.52 2.058.39.56.98.854 1.76.854.73 0 1.29-.28 1.7-.84.35-.504.53-1.162.53-1.974v-.14c0-.84-.21-1.526-.6-2.044-.41-.532-.94-.784-1.59-.784Z"/>
  <path stroke="#000" stroke-linecap="round" stroke-linejoin="round" stroke-width="5.333" d="M1720 564.667c14.73 0 26.67-11.939 26.67-26.667 0-14.728-11.94-26.667-26.67-26.667-14.73 0-26.67 11.939-26.67 26.667 0 14.728 11.94 26.667 26.67 26.667ZM1708 538h24m-18-10.393 12 20.785m0-20.785-12 20.785"/>
  <path fill="#000" fill-opacity=".6" d="M1697.43 590.004h1.33l3.94 9.996h-1.25l-1.06-2.8h-4.59l-1.07 2.8h-1.23l3.93-9.996Zm-1.27 6.23h3.86l-1.89-4.998h-.05l-1.92 4.998Zm9.97-3.668c1.79 0 2.77.742 2.97 2.254h-1.09c-.1-.448-.28-.784-.56-.98-.31-.224-.76-.336-1.33-.336-.51 0-.9.084-1.18.28-.31.182-.46.434-.46.756 0 .308.2.574.62.784.26.126.77.28 1.49.476.87.21 1.49.434 1.87.672.57.364.86.854.86 1.484 0 1.484-1.02 2.24-3.06 2.24-1.91 0-2.94-.84-3.11-2.506h1.09c.09.574.3.98.6 1.232.31.224.77.336 1.39.336 1.29 0 1.95-.42 1.95-1.232 0-.406-.24-.714-.69-.938-.24-.112-.76-.266-1.54-.462-.85-.21-1.46-.42-1.79-.644-.56-.336-.83-.798-.83-1.414 0-.616.27-1.092.81-1.456.51-.364 1.18-.546 1.99-.546Zm6.44-2.142v2.338h1.79v.938h-1.79v4.606c0 .266.04.462.15.574.1.112.28.182.54.182h.92V600h-1.09c-.59 0-1.02-.154-1.28-.462-.23-.28-.35-.686-.35-1.232V593.7h-1.45v-.938h1.45v-1.876l1.11-.462Zm6.03 2.142c1.16 0 2.04.392 2.63 1.176.53.7.81 1.694.84 2.954h-5.71c.05.812.26 1.442.65 1.89.4.448.94.672 1.63.672.59 0 1.08-.154 1.44-.448.31-.252.55-.63.73-1.134h1.12c-.17.7-.49 1.26-.98 1.708-.6.532-1.37.812-2.31.812-1.04 0-1.88-.35-2.49-1.022-.65-.7-.96-1.624-.96-2.8 0-1.064.3-1.96.91-2.674.62-.756 1.45-1.134 2.5-1.134Zm.02.938c-.64 0-1.16.21-1.55.63-.39.42-.62.98-.69 1.694h4.53c-.14-1.554-.91-2.324-2.29-2.324Zm7.94-.938c.39 0 .73.056.99.168v1.12a3.643 3.643 0 0 0-1.08-.154c-.56 0-1.03.238-1.41.742-.39.476-.57 1.05-.57 1.722V600h-1.11v-7.238h1.11v1.26c.19-.42.44-.756.75-.994.38-.308.81-.462 1.32-.462Zm2.86-2.534c.24 0 .43.07.6.238.17.14.25.336.25.588 0 .238-.08.434-.25.602a.854.854 0 0 1-.6.238.836.836 0 0 1-.6-.238.796.796 0 0 1-.24-.602c0-.252.07-.448.24-.588.16-.168.36-.238.6-.238Zm-.56 2.73h1.12V600h-1.12v-7.238Zm5.78-.196c1.79 0 2.77.742 2.97 2.254h-1.1c-.09-.448-.28-.784-.56-.98-.3-.224-.75-.336-1.33-.336-.5 0-.89.084-1.17.28-.31.182-.46.434-.46.756 0 .308.19.574.61.784.27.126.77.28 1.5.476.87.21 1.48.434 1.86.672.58.364.87.854.87 1.484 0 1.484-1.02 2.24-3.07 2.24-1.9 0-2.94-.84-3.1-2.506h1.09c.08.574.29.98.6 1.232.31.224.77.336 1.39.336 1.28 0 1.94-.42 1.94-1.232 0-.406-.24-.714-.68-.938-.24-.112-.76-.266-1.54-.462-.86-.21-1.46-.42-1.8-.644-.56-.336-.82-.798-.82-1.414 0-.616.26-1.092.81-1.456.5-.364 1.18-.546 1.99-.546Zm4.5-2.758h1.12v6.314l3.63-3.36h1.48l-3.19 2.912 3.5 4.326h-1.44l-2.83-3.598-1.15 1.036V600h-1.12v-10.192Z"/>
  <path stroke="#000" stroke-linejoin="round" stroke-width="5.333" d="M1008 701.667c7.36 0 14.03-2.985 18.85-7.811 4.83-4.826 7.82-11.492 7.82-18.856 0-7.364-2.99-14.03-7.82-18.856a26.565 26.565 0 0 0-18.85-7.811 26.572 26.572 0 0 0-18.857 7.811A26.582 26.582 0 0 0 981.332 675c0 7.364 2.985 14.03 7.811 18.856a26.572 26.572 0 0 0 18.857 7.811Z"/>
  <path stroke="#000" stroke-linecap="round" stroke-linejoin="round" stroke-width="5.333" d="M1008 681.166v0c0-2.945 2.63-5.223 4.95-7.045a7.982 7.982 0 0 0 3.05-6.288 8 8 0 0 0-8-8 8 8 0 0 0-8 8"/>
  <path fill="#000" fill-rule="evenodd" d="M1008 693.166a3.33 3.33 0 0 0 3.33-3.333 3.33 3.33 0 1 0-6.66 0 3.33 3.33 0 0 0 3.33 3.333Z" clip-rule="evenodd"/>
  <path fill="#000" fill-opacity=".6" d="M994.008 727.004h1.148v4.34h5.784v-4.34h1.15V737h-1.15v-4.662h-5.784V737h-1.148v-9.996Zm12.922 2.562c1.16 0 2.04.392 2.63 1.176.53.7.81 1.694.84 2.954h-5.71c.05.812.26 1.442.65 1.89.4.448.94.672 1.63.672.59 0 1.08-.154 1.44-.448.31-.252.55-.63.73-1.134h1.12c-.17.7-.49 1.26-.98 1.708-.6.532-1.37.812-2.31.812-1.04 0-1.88-.35-2.49-1.022-.65-.7-.96-1.624-.96-2.8 0-1.064.3-1.96.91-2.674.62-.756 1.45-1.134 2.5-1.134Zm.02.938c-.64 0-1.16.21-1.55.63-.39.42-.62.98-.69 1.694h4.53c-.14-1.554-.91-2.324-2.29-2.324Zm4.98-3.696h1.11V737h-1.11v-10.192Zm6.53 2.758c1.04 0 1.86.378 2.47 1.162.54.7.82 1.582.82 2.674 0 1.064-.28 1.946-.81 2.646-.59.756-1.39 1.148-2.42 1.148-1.04 0-1.84-.504-2.4-1.512v4.088H1015v-10.01h1.05v1.19c.52-.924 1.32-1.386 2.41-1.386Zm-.14.924c-.73 0-1.3.28-1.69.854-.37.504-.55 1.176-.55 1.988v.14c0 .84.2 1.512.62 2.03.39.504.91.77 1.58.77.78 0 1.37-.28 1.78-.812.36-.504.54-1.19.54-2.058 0-.854-.18-1.54-.51-2.044-.41-.588-1-.868-1.77-.868Z"/>
  <path stroke="#000" stroke-linecap="round" stroke-linejoin="round" stroke-width="5.333" d="M1174.4 657c0-3.314-2.69-6-6-6h-36c-3.31 0-6 2.686-6 6v36c0 3.314 2.69 6 6 6h36c3.31 0 6-2.686 6-6v-36Z"/>
  <path stroke="#000" stroke-linecap="round" stroke-linejoin="round" stroke-width="5.333" d="m1146.4 684.333 6.67 5.334 10.66-13.334M1137.07 663h26.67m-26.67 10.667h10.67"/>
  <path fill="#000" fill-opacity=".6" d="M1112.14 727.004h8.19v.994h-3.53V737h-1.13v-9.002h-3.53v-.994Zm12.47 2.562c.4 0 .73.056 1 .168v1.12a3.69 3.69 0 0 0-1.08-.154c-.56 0-1.04.238-1.41.742-.4.476-.58 1.05-.58 1.722V737h-1.1v-7.238h1.1v1.26c.2-.42.45-.756.76-.994.38-.308.81-.462 1.31-.462Zm5.09 0c1.04 0 1.79.266 2.3.812.42.476.64 1.134.64 1.974V737h-1.05v-1.218c-.28.392-.66.714-1.11.966-.53.294-1.13.448-1.8.448-.73 0-1.3-.182-1.74-.546-.45-.378-.67-.868-.67-1.456 0-.826.32-1.442.99-1.862.59-.392 1.43-.602 2.52-.616l1.74-.028v-.378c0-1.218-.63-1.82-1.89-1.82-.53 0-.97.098-1.3.322-.38.224-.62.574-.73 1.036l-1.11-.084c.16-.756.54-1.33 1.12-1.694.54-.336 1.22-.504 2.09-.504Zm1.82 3.962-1.67.028c-1.62.028-2.43.56-2.43 1.61 0 .336.12.602.4.826.28.21.65.322 1.1.322.68 0 1.28-.224 1.82-.672.51-.434.78-.938.78-1.498v-.616Zm6.24-3.962c1.79 0 2.7.994 2.7 2.982V737h-1.12v-4.368c0-1.414-.64-2.114-1.9-2.114-.51 0-.94.182-1.31.546-.39.392-.6.91-.64 1.568V737h-1.12v-7.238h1.12v1.064c.25-.406.57-.714.97-.924.39-.224.82-.336 1.3-.336Zm6.99 0c1.79 0 2.77.742 2.97 2.254h-1.09c-.1-.448-.28-.784-.56-.98-.31-.224-.76-.336-1.33-.336-.51 0-.9.084-1.18.28-.31.182-.46.434-.46.756 0 .308.2.574.62.784.26.126.77.28 1.49.476.87.21 1.49.434 1.87.672.57.364.86.854.86 1.484 0 1.484-1.02 2.24-3.06 2.24-1.91 0-2.94-.84-3.11-2.506h1.09c.09.574.3.98.6 1.232.31.224.77.336 1.39.336 1.29 0 1.95-.42 1.95-1.232 0-.406-.24-.714-.69-.938-.24-.112-.76-.266-1.54-.462-.85-.21-1.46-.42-1.79-.644-.56-.336-.83-.798-.83-1.414 0-.616.27-1.092.81-1.456.51-.364 1.18-.546 1.99-.546Zm7.66 0c1.03 0 1.79.266 2.29.812.42.476.65 1.134.65 1.974V737h-1.05v-1.218c-.28.392-.66.714-1.11.966-.53.294-1.13.448-1.8.448-.73 0-1.31-.182-1.74-.546-.45-.378-.67-.868-.67-1.456 0-.826.32-1.442.99-1.862.59-.392 1.43-.602 2.52-.616l1.74-.028v-.378c0-1.218-.63-1.82-1.89-1.82-.53 0-.97.098-1.3.322-.38.224-.62.574-.73 1.036l-1.11-.084c.16-.756.53-1.33 1.12-1.694.53-.336 1.22-.504 2.09-.504Zm1.82 3.962-1.67.028c-1.62.028-2.43.56-2.43 1.61 0 .336.12.602.4.826.28.21.65.322 1.09.322.69 0 1.29-.224 1.82-.672.52-.434.79-.938.79-1.498v-.616Zm5.97-3.962c.9 0 1.61.21 2.16.63.56.434.89 1.092 1.02 1.974h-1.11c-.1-.56-.32-.98-.67-1.26-.36-.28-.83-.406-1.4-.406-.7 0-1.26.266-1.67.798-.39.518-.58 1.218-.58 2.1 0 .882.18 1.582.57 2.086.38.504.94.77 1.67.77 1.23 0 1.94-.63 2.11-1.876h1.12c-.17.924-.52 1.638-1.08 2.114-.54.462-1.26.7-2.15.7-1.1 0-1.94-.364-2.54-1.092-.57-.686-.85-1.582-.85-2.688s.28-2.002.85-2.702c.62-.77 1.47-1.148 2.55-1.148Zm6.47-2.142v2.338h1.79v.938h-1.79v4.606c0 .266.04.462.15.574.1.112.28.182.53.182h.93V737h-1.09c-.59 0-1.03-.154-1.28-.462-.24-.28-.35-.686-.35-1.232V730.7h-1.45v-.938h1.45v-1.876l1.11-.462Zm3.97-.392c.23 0 .43.07.6.238.17.14.25.336.25.588 0 .238-.08.434-.25.602a.871.871 0 0 1-.6.238.878.878 0 0 1-.61-.238.826.826 0 0 1-.23-.602c0-.252.07-.448.23-.588a.82.82 0 0 1 .61-.238Zm-.56 2.73h1.12V737h-1.12v-7.238Zm6.45-.196c1.08 0 1.94.364 2.59 1.12.61.714.92 1.61.92 2.702 0 1.078-.31 1.974-.91 2.674-.66.756-1.52 1.134-2.6 1.134-1.09 0-1.95-.378-2.59-1.134-.62-.7-.93-1.596-.93-2.674 0-1.092.31-1.988.93-2.702.64-.756 1.5-1.12 2.59-1.12Zm0 .938c-.77 0-1.37.294-1.79.882-.4.532-.58 1.19-.58 2.002 0 .798.18 1.456.58 1.988.42.588 1.02.882 1.79.882.75 0 1.36-.294 1.8-.882.38-.532.58-1.204.58-1.988 0-.812-.2-1.47-.58-2.002-.44-.588-1.05-.882-1.8-.882Zm8.35-.938c1.8 0 2.71.994 2.71 2.982V737h-1.12v-4.368c0-1.414-.65-2.114-1.91-2.114-.5 0-.94.182-1.3.546-.39.392-.6.91-.64 1.568V737h-1.12v-7.238h1.12v1.064c.25-.406.57-.714.96-.924a2.58 2.58 0 0 1 1.3-.336Z"/>
  <path stroke="#000" stroke-linecap="round" stroke-linejoin="round" stroke-width="5.333" d="M1290.49 652.32c1.03-1.775 3.59-1.775 4.62 0l24.71 42.677c1.02 1.778-.26 4.003-2.31 4.003h-49.42c-2.05 0-3.34-2.225-2.31-4.003l24.71-42.677Z" clip-rule="evenodd"/>
  <path fill="#000" fill-rule="evenodd" d="M1292.8 692.335c1.84 0 3.33-1.493 3.33-3.334a3.33 3.33 0 1 0-6.66 0 3.332 3.332 0 0 0 3.33 3.334Z" clip-rule="evenodd"/>
  <path stroke="#000" stroke-linecap="round" stroke-linejoin="round" stroke-width="5.333" d="M1292.8 669.633v10.7"/>
  <path fill="#000" fill-opacity=".6" d="M1265.87 727.004h1.29l2.2 8.386h.05l2.28-8.386h1.25l2.27 8.386h.05l2.2-8.386h1.29l-2.87 9.996h-1.27l-2.27-8.33h-.04l-2.29 8.33h-1.27l-2.87-9.996Zm16.96 2.562c1.04 0 1.8.266 2.3.812.42.476.64 1.134.64 1.974V737h-1.05v-1.218c-.28.392-.65.714-1.1.966a3.69 3.69 0 0 1-1.81.448c-.73 0-1.3-.182-1.73-.546a1.826 1.826 0 0 1-.68-1.456c0-.826.33-1.442 1-1.862.59-.392 1.43-.602 2.52-.616l1.73-.028v-.378c0-1.218-.63-1.82-1.89-1.82-.53 0-.96.098-1.3.322-.38.224-.61.574-.73 1.036l-1.1-.084c.15-.756.53-1.33 1.12-1.694.53-.336 1.22-.504 2.08-.504Zm1.82 3.962-1.66.028c-1.63.028-2.44.56-2.44 1.61 0 .336.13.602.41.826.28.21.64.322 1.09.322.69 0 1.29-.224 1.82-.672.52-.434.78-.938.78-1.498v-.616Zm6.03-3.962c.39 0 .73.056 1 .168v1.12a3.69 3.69 0 0 0-1.08-.154c-.56 0-1.04.238-1.42.742-.39.476-.57 1.05-.57 1.722V737h-1.11v-7.238h1.11v1.26c.2-.42.45-.756.76-.994a1.99 1.99 0 0 1 1.31-.462Zm5.33 0c1.79 0 2.7.994 2.7 2.982V737h-1.12v-4.368c0-1.414-.65-2.114-1.91-2.114-.5 0-.93.182-1.3.546-.39.392-.6.91-.64 1.568V737h-1.12v-7.238h1.12v1.064c.25-.406.57-.714.96-.924.4-.224.83-.336 1.31-.336Zm5.35-2.534c.24 0 .44.07.6.238.17.14.26.336.26.588 0 .238-.09.434-.26.602a.836.836 0 0 1-.6.238.854.854 0 0 1-.6-.238.796.796 0 0 1-.24-.602c0-.252.07-.448.24-.588a.797.797 0 0 1 .6-.238Zm-.56 2.73h1.12V737h-1.12v-7.238Zm6.61-.196c1.79 0 2.7.994 2.7 2.982V737h-1.12v-4.368c0-1.414-.64-2.114-1.9-2.114-.51 0-.94.182-1.31.546-.39.392-.6.91-.64 1.568V737h-1.12v-7.238h1.12v1.064c.25-.406.57-.714.97-.924.39-.224.82-.336 1.3-.336Zm7.41 0c1.09 0 1.91.476 2.44 1.442v-1.246h1.12v6.734c0 2.31-1.11 3.472-3.31 3.472-.98 0-1.73-.196-2.24-.588-.51-.392-.84-.98-.96-1.764h1.12c.08.49.29.854.61 1.078.33.238.82.364 1.47.364 1.46 0 2.19-.812 2.19-2.408v-1.274c-.53.966-1.35 1.456-2.44 1.456-1.01 0-1.8-.35-2.39-1.036-.59-.672-.87-1.526-.87-2.576 0-1.064.28-1.918.87-2.59.59-.714 1.38-1.064 2.39-1.064Zm.17.924c-.73 0-1.29.252-1.69.784-.4.476-.59 1.134-.59 1.946 0 .756.17 1.386.52 1.862.39.532.96.812 1.75.812.72 0 1.28-.252 1.7-.756.4-.49.59-1.134.59-1.918 0-.812-.19-1.47-.59-1.946-.42-.532-.98-.784-1.69-.784Z"/>
  <rect width="50.68" height="48.023" x="1409.88" y="652.32" stroke="#000" stroke-width="5.32" rx="6"/>
  <path stroke="#000" stroke-linecap="round" stroke-linejoin="round" stroke-width="5.333" d="M1424.53 648.333V659m-14.65 9.32h50.68m-14.69-19.987V659"/>
  <circle cx="1421.86" cy="677.66" r="2.66" fill="#000"/>
  <circle cx="1421.86" cy="689.66" r="2.66" fill="#000"/>
  <circle cx="1435.22" cy="677.66" r="2.66" fill="#000"/>
  <circle cx="1435.22" cy="689.66" r="2.66" fill="#000"/>
  <circle cx="1448.58" cy="677.66" r="2.66" fill="#000"/>
  <path fill="#000" fill-opacity=".6" d="M1411.02 726.808c1.11 0 2.04.294 2.8.882.76.588 1.2 1.386 1.34 2.38h-1.1c-.14-.728-.51-1.288-1.07-1.68-.54-.378-1.2-.56-1.98-.56-1.17 0-2.06.406-2.69 1.218-.59.756-.88 1.75-.88 2.996s.28 2.24.86 2.968c.62.77 1.5 1.162 2.68 1.162.8 0 1.47-.21 2.03-.63.59-.448.99-1.106 1.19-1.974h1.1c-.22 1.162-.74 2.072-1.56 2.716-.77.602-1.7.91-2.76.91-1.56 0-2.75-.518-3.57-1.54-.76-.924-1.12-2.128-1.12-3.612s.38-2.702 1.15-3.654c.84-1.064 2.04-1.582 3.58-1.582Zm8.88 2.758c1.04 0 1.8.266 2.3.812.42.476.64 1.134.64 1.974V737h-1.05v-1.218c-.28.392-.65.714-1.1.966a3.69 3.69 0 0 1-1.81.448c-.73 0-1.3-.182-1.73-.546a1.826 1.826 0 0 1-.68-1.456c0-.826.33-1.442 1-1.862.59-.392 1.43-.602 2.52-.616l1.73-.028v-.378c0-1.218-.63-1.82-1.89-1.82-.53 0-.96.098-1.3.322-.38.224-.61.574-.73 1.036l-1.1-.084c.15-.756.53-1.33 1.12-1.694.53-.336 1.22-.504 2.08-.504Zm1.82 3.962-1.66.028c-1.63.028-2.44.56-2.44 1.61 0 .336.13.602.41.826.28.21.64.322 1.09.322.69 0 1.29-.224 1.82-.672.52-.434.78-.938.78-1.498v-.616Zm3.08-6.72h1.1V737h-1.1v-10.192Zm6.05 2.758c1.16 0 2.04.392 2.63 1.176.53.7.81 1.694.84 2.954h-5.71c.06.812.27 1.442.66 1.89.39.448.94.672 1.62.672.59 0 1.08-.154 1.44-.448.31-.252.55-.63.73-1.134h1.12c-.17.7-.49 1.26-.98 1.708-.6.532-1.37.812-2.31.812-1.03 0-1.87-.35-2.49-1.022-.64-.7-.95-1.624-.95-2.8 0-1.064.29-1.96.91-2.674.61-.756 1.44-1.134 2.49-1.134Zm.03.938c-.65 0-1.16.21-1.56.63-.39.42-.61.98-.68 1.694h4.52c-.14-1.554-.91-2.324-2.28-2.324Zm8.14-.938c1.79 0 2.7.994 2.7 2.982V737h-1.12v-4.368c0-1.414-.64-2.114-1.9-2.114-.5 0-.94.182-1.3.546-.39.392-.6.91-.65 1.568V737h-1.12v-7.238h1.12v1.064c.26-.406.58-.714.97-.924a2.58 2.58 0 0 1 1.3-.336Zm9.78-2.758h1.12V737h-1.05v-1.19c-.5.924-1.31 1.386-2.41 1.386-1.06 0-1.89-.392-2.47-1.148-.55-.7-.82-1.596-.82-2.688 0-1.064.27-1.932.82-2.632.58-.784 1.38-1.162 2.42-1.162 1.03 0 1.83.504 2.39 1.526v-4.284Zm-2.15 3.682c-.8 0-1.4.28-1.8.84-.36.49-.53 1.162-.53 2.03 0 .868.17 1.554.52 2.058.39.56.98.854 1.76.854.73 0 1.29-.28 1.7-.84.35-.504.53-1.162.53-1.974v-.14c0-.84-.21-1.526-.6-2.044-.41-.532-.94-.784-1.58-.784Zm8.16-.924c1.03 0 1.79.266 2.29.812.42.476.65 1.134.65 1.974V737h-1.05v-1.218c-.28.392-.66.714-1.11.966-.53.294-1.13.448-1.8.448-.73 0-1.31-.182-1.74-.546-.45-.378-.67-.868-.67-1.456 0-.826.32-1.442.99-1.862.59-.392 1.43-.602 2.52-.616l1.74-.028v-.378c0-1.218-.63-1.82-1.89-1.82-.53 0-.97.098-1.3.322-.38.224-.62.574-.73 1.036l-1.11-.084c.16-.756.53-1.33 1.12-1.694.53-.336 1.22-.504 2.09-.504Zm1.82 3.962-1.67.028c-1.62.028-2.43.56-2.43 1.61 0 .336.12.602.4.826.28.21.65.322 1.09.322.69 0 1.29-.224 1.82-.672.52-.434.79-.938.79-1.498v-.616Zm6.03-3.962c.39 0 .72.056.99.168v1.12a3.643 3.643 0 0 0-1.08-.154c-.56 0-1.03.238-1.41.742-.39.476-.58 1.05-.58 1.722V737h-1.1v-7.238h1.1v1.26c.2-.42.45-.756.76-.994.38-.308.81-.462 1.32-.462Z"/>
  <path stroke="#000" stroke-linecap="round" stroke-linejoin="round" stroke-width="5.333" d="M1599.62 691.421a12.283 12.283 0 0 0 4.65-13.754c-1.62-5.107-6.58-7.905-11.93-7.901h-3.1a19.647 19.647 0 0 0-16.78-14.636 19.64 19.64 0 0 0-19.67 10.437 19.641 19.641 0 0 0 2.7 22.104"/>
  <path stroke="#000" stroke-linecap="round" stroke-linejoin="round" stroke-width="5.333" d="M1588.27 689.667h-21.34a2.663 2.663 0 0 0-2.66 2.666V695a2.663 2.663 0 0 0 2.66 2.667h21.34c1.47 0 2.66-1.194 2.66-2.667v-2.667a2.663 2.663 0 0 0-2.66-2.666Z"/>
  <path fill="#000" fill-opacity=".6" d="M1531.61 727.004h1.2l5.66 8.134h.04v-8.134h1.15V737h-1.18l-5.68-8.218h-.04V737h-1.15v-9.996Zm12.9 2.562c1.16 0 2.05.392 2.63 1.176.54.7.82 1.694.84 2.954h-5.71c.06.812.27 1.442.66 1.89.39.448.94.672 1.62.672.59 0 1.08-.154 1.45-.448.3-.252.54-.63.72-1.134h1.12c-.16.7-.49 1.26-.98 1.708-.6.532-1.37.812-2.31.812-1.03 0-1.87-.35-2.49-1.022-.64-.7-.95-1.624-.95-2.8 0-1.064.29-1.96.91-2.674.62-.756 1.44-1.134 2.49-1.134Zm.03.938c-.64 0-1.16.21-1.55.63-.4.42-.62.98-.69 1.694h4.52c-.14-1.554-.91-2.324-2.28-2.324Zm6.69-3.08v2.338h1.79v.938h-1.79v4.606c0 .266.04.462.15.574.1.112.28.182.53.182h.93V737h-1.09c-.59 0-1.03-.154-1.28-.462-.24-.28-.35-.686-.35-1.232V730.7h-1.45v-.938h1.45v-1.876l1.11-.462Zm2.24 2.338h1.24l1.77 5.866 1.68-5.866h1.05l1.68 5.866 1.78-5.866h1.23l-2.46 7.238h-1.06l-1.68-5.824-1.71 5.824h-1.05l-2.47-7.238Zm14.6-.196c1.08 0 1.95.364 2.59 1.12.62.714.93 1.61.93 2.702 0 1.078-.31 1.974-.91 2.674-.66.756-1.53 1.134-2.61 1.134-1.09 0-1.94-.378-2.59-1.134-.61-.7-.92-1.596-.92-2.674 0-1.092.31-1.988.92-2.702.65-.756 1.5-1.12 2.59-1.12Zm0 .938c-.77 0-1.37.294-1.79.882-.39.532-.57 1.19-.57 2.002 0 .798.18 1.456.57 1.988.42.588 1.02.882 1.79.882.76 0 1.36-.294 1.81-.882.38-.532.57-1.204.57-1.988 0-.812-.19-1.47-.57-2.002-.45-.588-1.05-.882-1.81-.882Zm8.15-.938c.39 0 .73.056 1 .168v1.12a3.69 3.69 0 0 0-1.08-.154c-.56 0-1.04.238-1.42.742-.39.476-.57 1.05-.57 1.722V737h-1.11v-7.238h1.11v1.26c.2-.42.45-.756.76-.994a1.99 1.99 0 0 1 1.31-.462Zm1.94-2.758h1.12v6.314l3.62-3.36h1.49l-3.19 2.912 3.5 4.326h-1.45l-2.82-3.598-1.15 1.036V737h-1.12v-10.192Zm7.24 6.09h7.07v.952h-7.07v-.952Zm13.99-6.09h1.12V737h-1.05v-1.19c-.5.924-1.31 1.386-2.41 1.386-1.06 0-1.89-.392-2.47-1.148-.55-.7-.82-1.596-.82-2.688 0-1.064.27-1.932.82-2.632.58-.784 1.38-1.162 2.42-1.162 1.03 0 1.83.504 2.39 1.526v-4.284Zm-2.15 3.682c-.8 0-1.4.28-1.8.84-.36.49-.53 1.162-.53 2.03 0 .868.17 1.554.52 2.058.39.56.98.854 1.76.854.73 0 1.29-.28 1.7-.84.35-.504.53-1.162.53-1.974v-.14c0-.84-.21-1.526-.6-2.044-.41-.532-.94-.784-1.58-.784Zm8.18-.924c.4 0 .73.056 1 .168v1.12a3.69 3.69 0 0 0-1.08-.154c-.56 0-1.04.238-1.41.742-.4.476-.58 1.05-.58 1.722V737h-1.1v-7.238h1.1v1.26c.2-.42.45-.756.76-.994.38-.308.81-.462 1.31-.462Zm2.86-2.534c.24 0 .44.07.61.238.16.14.25.336.25.588 0 .238-.09.434-.25.602a.878.878 0 0 1-.61.238.871.871 0 0 1-.6-.238.796.796 0 0 1-.24-.602c0-.252.07-.448.24-.588a.812.812 0 0 1 .6-.238Zm-.56 2.73h1.12V737h-1.12v-7.238Zm2.42 0h1.24l2.07 5.838 2.07-5.838h1.23l-2.74 7.238h-1.14l-2.73-7.238Zm10.54-.196c1.16 0 2.04.392 2.63 1.176.53.7.81 1.694.84 2.954h-5.71c.05.812.26 1.442.66 1.89.39.448.93.672 1.62.672.59 0 1.08-.154 1.44-.448.31-.252.55-.63.73-1.134h1.12c-.17.7-.49 1.26-.98 1.708-.6.532-1.37.812-2.31.812-1.04 0-1.88-.35-2.49-1.022-.65-.7-.95-1.624-.95-2.8 0-1.064.29-1.96.91-2.674.61-.756 1.44-1.134 2.49-1.134Zm.03.938c-.65 0-1.17.21-1.56.63-.39.42-.61.98-.68 1.694h4.52c-.14-1.554-.91-2.324-2.28-2.324Z"/>
  <path stroke="#000" stroke-width="5.333" d="M1744 659a8 8 0 0 0-8-8h-32c-4.42 0-8 3.57-8 7.988v32.016a7.996 7.996 0 0 0 8 7.996h32.01c4.42 0 7.99-3.582 7.99-8v-32Z"/>
  <path stroke="#000" stroke-linecap="round" stroke-linejoin="round" stroke-width="5.333" d="M1720 663v24"/>
  <path stroke="#000" stroke-linecap="round" stroke-linejoin="round" stroke-width="5.333" d="M1722.67 676.333c4 0 9.33-1.066 9.33-6.666 0-5.6-5.33-6.667-9.33-6.667H1720v13.333h2.67Z" clip-rule="evenodd"/>
  <path stroke="#000" stroke-linecap="round" stroke-linejoin="round" stroke-width="5.333" d="M1709.33 663v24"/>
  <path fill="#000" fill-opacity=".6" d="M1694.01 727.004h4.09c2.29 0 3.44.98 3.44 2.94 0 1.974-1.16 2.968-3.46 2.968h-2.92V737h-1.15v-9.996Zm1.15.994v3.92h2.87c.81 0 1.4-.168 1.79-.49.38-.322.57-.812.57-1.484 0-.672-.19-1.162-.59-1.456-.39-.336-.98-.49-1.77-.49h-2.87Zm10.87 1.568c.39 0 .73.056.99.168v1.12a3.643 3.643 0 0 0-1.08-.154c-.56 0-1.03.238-1.41.742-.39.476-.57 1.05-.57 1.722V737h-1.11v-7.238h1.11v1.26c.19-.42.44-.756.75-.994.38-.308.81-.462 1.32-.462Zm5.17 0c1.08 0 1.94.364 2.59 1.12.61.714.92 1.61.92 2.702 0 1.078-.31 1.974-.91 2.674-.66.756-1.52 1.134-2.6 1.134-1.09 0-1.95-.378-2.59-1.134-.62-.7-.93-1.596-.93-2.674 0-1.092.31-1.988.93-2.702.64-.756 1.5-1.12 2.59-1.12Zm0 .938c-.77 0-1.37.294-1.79.882-.4.532-.58 1.19-.58 2.002 0 .798.18 1.456.58 1.988.42.588 1.02.882 1.79.882.75 0 1.36-.294 1.8-.882.38-.532.58-1.204.58-1.988 0-.812-.2-1.47-.58-2.002-.44-.588-1.05-.882-1.8-.882Zm4.48-.742h1.31l1.88 2.576 1.86-2.576h1.32l-2.57 3.402 2.87 3.836h-1.33l-2.15-3.01-2.17 3.01h-1.33l2.87-3.836-2.56-3.402Zm6.81 0h1.22l2.21 5.712 2.14-5.712h1.24l-3.97 10.01h-1.21l1.24-2.94-2.87-7.07Zm12.63-2.758h1.14V737h-1.14v-9.996Zm3.24 0h4.09c2.29 0 3.44.98 3.44 2.94 0 1.974-1.16 2.968-3.46 2.968h-2.92V737h-1.15v-9.996Zm1.15.994v3.92h2.87c.81 0 1.4-.168 1.79-.49.38-.322.57-.812.57-1.484 0-.672-.19-1.162-.58-1.456-.4-.336-.98-.49-1.78-.49h-2.87Z"/>
  <path fill="#fff" stroke="#000" stroke-width="5.333" d="M998.682 826.735c8.108 0 14.678-6.58 14.678-14.696 0-8.117-6.57-14.697-14.678-14.697S984 803.922 984 812.039c0 8.116 6.574 14.696 14.682 14.696Z"/>
  <path fill="#fff" fill-rule="evenodd" stroke="#000" stroke-width="5.333" d="M1027.75 792.066a5.612 5.612 0 0 1 3.45 2.553 5.585 5.585 0 0 1 .63 4.237l-3.89 15.64c-.18.714-.5 1.386-.93 1.977a5.639 5.639 0 0 1-1.62 1.469 5.601 5.601 0 0 1-4.24.636l-15.61-3.903a5.548 5.548 0 0 1-1.98-.932 5.626 5.626 0 0 1-2.21-3.673 5.535 5.535 0 0 1 .11-2.182l3.89-15.64a5.615 5.615 0 0 1 2.35-3.325 5.574 5.574 0 0 1 3.98-.849l16.07 3.992Z" clip-rule="evenodd"/>
  <path fill="#fff" fill-rule="evenodd" stroke="#000" stroke-width="5.333" d="M1009.63 808.27a4.65 4.65 0 0 1 5.3 2.195l10.54 18.566c.63 1.12.75 2.392.44 3.544a4.674 4.674 0 0 1-1.67 2.475 4.67 4.67 0 0 1-2.83.95h-21.08a4.646 4.646 0 0 1-3.297-1.368 4.653 4.653 0 0 1-.756-5.601l10.543-18.566a4.632 4.632 0 0 1 2.81-2.195Z" clip-rule="evenodd"/>
  <path fill="#606060" d="M977.738 864.004h8.19v.994H982.4V874h-1.134v-9.002h-3.528v-.994Zm12.28 2.562c1.162 0 2.044.392 2.632 1.176.532.7.812 1.694.84 2.954h-5.712c.056.812.266 1.442.658 1.89.392.448.938.672 1.624.672.588 0 1.078-.154 1.442-.448.308-.252.546-.63.728-1.134h1.12c-.168.7-.49 1.26-.98 1.708-.602.532-1.372.812-2.31.812-1.036 0-1.876-.35-2.492-1.022-.644-.7-.952-1.624-.952-2.8 0-1.064.294-1.96.91-2.674.616-.756 1.442-1.134 2.492-1.134Zm.028.938c-.644 0-1.162.21-1.554.63-.392.42-.616.98-.686 1.694h4.522c-.14-1.554-.91-2.324-2.282-2.324Zm7.92-.938c1.106 0 1.862.448 2.264 1.372.28-.476.62-.826 1.01-1.036.35-.224.77-.336 1.28-.336.75 0 1.35.238 1.83.714.45.49.69 1.148.69 1.974V874h-1.12v-4.564c0-.644-.14-1.12-.41-1.428-.28-.336-.73-.49-1.34-.49-.48 0-.89.168-1.19.532-.34.364-.49.826-.49 1.414V874h-1.124v-4.564c0-1.288-.56-1.918-1.666-1.918-.518 0-.938.196-1.274.616-.336.392-.504.882-.504 1.456V874h-1.12v-7.238h1.12v.966c.546-.784 1.232-1.162 2.044-1.162Zm12.274 0c1.03 0 1.86.378 2.46 1.162.55.7.83 1.582.83 2.674 0 1.064-.28 1.946-.82 2.646-.58.756-1.38 1.148-2.42 1.148-1.03 0-1.83-.504-2.39-1.512v4.088h-1.12v-10.01h1.05v1.19c.52-.924 1.31-1.386 2.41-1.386Zm-.14.924c-.73 0-1.31.28-1.7.854-.36.504-.54 1.176-.54 1.988v.14c0 .84.19 1.512.61 2.03.39.504.91.77 1.58.77.79 0 1.38-.28 1.78-.812.37-.504.55-1.19.55-2.058 0-.854-.18-1.54-.52-2.044-.41-.588-.99-.868-1.76-.868Zm5.11-3.682h1.1V874h-1.1v-10.192Zm6.22 2.758c1.03 0 1.79.266 2.29.812.42.476.65 1.134.65 1.974V874h-1.05v-1.218c-.28.392-.66.714-1.11.966-.53.294-1.13.448-1.81.448-.72 0-1.3-.182-1.73-.546-.45-.378-.67-.868-.67-1.456 0-.826.32-1.442.99-1.862.59-.392 1.43-.602 2.52-.616l1.74-.028v-.378c0-1.218-.63-1.82-1.89-1.82-.54 0-.97.098-1.31.322-.37.224-.61.574-.72 1.036l-1.11-.084c.15-.756.53-1.33 1.12-1.694.53-.336 1.22-.504 2.09-.504Zm1.82 3.962-1.67.028c-1.62.028-2.44.56-2.44 1.61 0 .336.13.602.41.826.28.21.64.322 1.09.322.69 0 1.29-.224 1.82-.672.52-.434.79-.938.79-1.498v-.616Zm4.78-6.104v2.338h1.79v.938h-1.79v4.606c0 .266.04.462.15.574.1.112.28.182.53.182h.93V874h-1.09c-.59 0-1.03-.154-1.28-.462-.24-.28-.35-.686-.35-1.232V867.7h-1.45v-.938h1.45v-1.876l1.11-.462Zm6.03 2.142c1.16 0 2.04.392 2.63 1.176.53.7.81 1.694.84 2.954h-5.71c.05.812.26 1.442.65 1.89.4.448.94.672 1.63.672.59 0 1.08-.154 1.44-.448.31-.252.55-.63.73-1.134h1.12c-.17.7-.49 1.26-.98 1.708-.6.532-1.37.812-2.31.812-1.04 0-1.88-.35-2.49-1.022-.65-.7-.96-1.624-.96-2.8 0-1.064.3-1.96.91-2.674.62-.756 1.45-1.134 2.5-1.134Zm.02.938c-.64 0-1.16.21-1.55.63-.39.42-.62.98-.69 1.694h4.53c-.14-1.554-.91-2.324-2.29-2.324Z"/>
  <path stroke="#000" stroke-linecap="round" stroke-width="5.32" d="M1126.4 793.333v24"/>
  <path stroke="#000" stroke-linecap="round" stroke-miterlimit="10" stroke-width="5" d="M1138.23 795.237c3.64-2.786 9.02-2.334 12.05 1.017 3.03 3.344 2.55 8.293-1.1 11.084l-11.9 9.113c-.43.322-.17.96.39.96h14.93"/>
  <path stroke="#000" stroke-linecap="round" stroke-linejoin="round" stroke-miterlimit="10" stroke-width="5" d="M1170.48 805.369c3.37 0 6.15-2.666 6.15-5.979 0-3.273-2.74-5.979-6.15-5.979h-6.75m1.14 12.043h5.61c3.37 0 6.15 2.666 6.15 5.979 0 3.273-2.74 5.978-6.15 5.978h-6.74"/>
  <path stroke="#000" stroke-linecap="round" stroke-linejoin="round" stroke-width="5.333" d="M1126.4 830.667h50.67"/>
  <path fill="#606060" d="M1094.97 864.004h1.26l3.12 8.75h.04l3.13-8.75h1.26l-3.7 9.996h-1.41l-3.7-9.996Zm12.72 2.562c1.16 0 2.05.392 2.63 1.176.54.7.82 1.694.84 2.954h-5.71c.06.812.27 1.442.66 1.89.39.448.94.672 1.62.672.59 0 1.08-.154 1.45-.448.3-.252.54-.63.72-1.134h1.12c-.16.7-.49 1.26-.98 1.708-.6.532-1.37.812-2.31.812-1.03 0-1.87-.35-2.49-1.022-.64-.7-.95-1.624-.95-2.8 0-1.064.29-1.96.91-2.674.62-.756 1.44-1.134 2.49-1.134Zm.03.938c-.64 0-1.16.21-1.55.63-.4.42-.62.98-.69 1.694h4.52c-.14-1.554-.91-2.324-2.28-2.324Zm7.93-.938c.4 0 .73.056 1 .168v1.12a3.69 3.69 0 0 0-1.08-.154c-.56 0-1.04.238-1.41.742-.4.476-.58 1.05-.58 1.722V874h-1.1v-7.238h1.1v1.26c.2-.42.45-.756.76-.994.38-.308.81-.462 1.31-.462Zm2.86-2.534c.24 0 .44.07.6.238.17.14.26.336.26.588 0 .238-.09.434-.26.602a.836.836 0 0 1-.6.238.854.854 0 0 1-.6-.238.796.796 0 0 1-.24-.602c0-.252.07-.448.24-.588a.797.797 0 0 1 .6-.238Zm-.56 2.73h1.12V874h-1.12v-7.238Zm6.12-2.758h1.38v.966h-1.24c-.31 0-.55.07-.69.238-.14.154-.21.406-.21.756v.798h4.41V874h-1.1v-6.3h-3.31v6.3h-1.12v-6.3h-1.82v-.938h1.82v-.826c0-.616.16-1.078.46-1.414.33-.35.8-.518 1.42-.518Zm8.74 2.562c.9 0 1.61.21 2.16.63.56.434.89 1.092 1.02 1.974h-1.11c-.1-.56-.32-.98-.67-1.26-.36-.28-.83-.406-1.4-.406-.7 0-1.26.266-1.67.798-.39.518-.58 1.218-.58 2.1 0 .882.18 1.582.57 2.086.38.504.94.77 1.67.77 1.23 0 1.94-.63 2.11-1.876h1.12c-.17.924-.52 1.638-1.08 2.114-.54.462-1.26.7-2.15.7-1.1 0-1.94-.364-2.54-1.092-.57-.686-.85-1.582-.85-2.688s.28-2.002.85-2.702c.62-.77 1.47-1.148 2.55-1.148Zm7.68 0c1.04 0 1.8.266 2.3.812.42.476.64 1.134.64 1.974V874h-1.05v-1.218c-.28.392-.65.714-1.1.966a3.69 3.69 0 0 1-1.81.448c-.73 0-1.3-.182-1.73-.546a1.826 1.826 0 0 1-.68-1.456c0-.826.33-1.442 1-1.862.59-.392 1.43-.602 2.52-.616l1.73-.028v-.378c0-1.218-.63-1.82-1.89-1.82-.53 0-.96.098-1.3.322-.38.224-.61.574-.73 1.036l-1.1-.084c.15-.756.53-1.33 1.12-1.694.53-.336 1.22-.504 2.08-.504Zm1.82 3.962-1.66.028c-1.63.028-2.44.56-2.44 1.61 0 .336.13.602.41.826.28.21.64.322 1.09.322.69 0 1.29-.224 1.82-.672.52-.434.78-.938.78-1.498v-.616Zm4.79-6.104v2.338h1.79v.938h-1.79v4.606c0 .266.04.462.15.574.1.112.28.182.53.182h.93V874h-1.1c-.58 0-1.02-.154-1.27-.462-.24-.28-.35-.686-.35-1.232V867.7h-1.46v-.938h1.46v-1.876l1.11-.462Zm3.97-.392c.23 0 .43.07.6.238.17.14.25.336.25.588 0 .238-.08.434-.25.602a.871.871 0 0 1-.6.238.878.878 0 0 1-.61-.238.826.826 0 0 1-.23-.602c0-.252.07-.448.23-.588a.82.82 0 0 1 .61-.238Zm-.56 2.73h1.12V874h-1.12v-7.238Zm6.45-.196c1.08 0 1.94.364 2.59 1.12.61.714.92 1.61.92 2.702 0 1.078-.31 1.974-.91 2.674-.66.756-1.52 1.134-2.6 1.134-1.09 0-1.95-.378-2.59-1.134-.62-.7-.93-1.596-.93-2.674 0-1.092.31-1.988.93-2.702.64-.756 1.5-1.12 2.59-1.12Zm0 .938c-.77 0-1.37.294-1.79.882-.4.532-.58 1.19-.58 2.002 0 .798.18 1.456.58 1.988.42.588 1.02.882 1.79.882.75 0 1.36-.294 1.8-.882.38-.532.58-1.204.58-1.988 0-.812-.2-1.47-.58-2.002-.44-.588-1.05-.882-1.8-.882Zm8.35-.938c1.8 0 2.71.994 2.71 2.982V874h-1.12v-4.368c0-1.414-.65-2.114-1.91-2.114-.5 0-.94.182-1.3.546-.39.392-.6.91-.64 1.568V874h-1.12v-7.238h1.12v1.064c.25-.406.57-.714.96-.924a2.58 2.58 0 0 1 1.3-.336Zm12.22 0c.9 0 1.61.21 2.16.63.56.434.89 1.092 1.02 1.974h-1.11c-.09-.56-.32-.98-.67-1.26-.36-.28-.82-.406-1.4-.406-.7 0-1.26.266-1.66.798-.4.518-.59 1.218-.59 2.1 0 .882.18 1.582.57 2.086.38.504.94.77 1.67.77 1.23 0 1.94-.63 2.11-1.876h1.12c-.17.924-.52 1.638-1.08 2.114-.54.462-1.26.7-2.15.7-1.09 0-1.93-.364-2.54-1.092-.57-.686-.85-1.582-.85-2.688s.28-2.002.85-2.702c.62-.77 1.47-1.148 2.55-1.148Zm7.77 0c1.08 0 1.95.364 2.59 1.12.62.714.92 1.61.92 2.702 0 1.078-.3 1.974-.91 2.674-.65.756-1.52 1.134-2.6 1.134-1.09 0-1.95-.378-2.59-1.134-.62-.7-.92-1.596-.92-2.674 0-1.092.3-1.988.92-2.702.64-.756 1.5-1.12 2.59-1.12Zm0 .938c-.77 0-1.37.294-1.79.882-.39.532-.58 1.19-.58 2.002 0 .798.19 1.456.58 1.988.42.588 1.02.882 1.79.882.76 0 1.36-.294 1.81-.882.37-.532.57-1.204.57-1.988 0-.812-.2-1.47-.57-2.002-.45-.588-1.05-.882-1.81-.882Zm10.32-3.696h1.12V874h-1.05v-1.19c-.51.924-1.32 1.386-2.41 1.386-1.07 0-1.89-.392-2.48-1.148-.55-.7-.81-1.596-.81-2.688 0-1.064.26-1.932.81-2.632.59-.784 1.39-1.162 2.42-1.162 1.04 0 1.84.504 2.4 1.526v-4.284Zm-2.16 3.682c-.8 0-1.4.28-1.79.84-.37.49-.53 1.162-.53 2.03 0 .868.16 1.554.51 2.058.4.56.98.854 1.77.854.73 0 1.29-.28 1.69-.84.35-.504.53-1.162.53-1.974v-.14c0-.84-.21-1.526-.6-2.044-.4-.532-.94-.784-1.58-.784Zm7.99-.924c1.17 0 2.05.392 2.64 1.176.53.7.81 1.694.84 2.954h-5.72c.06.812.27 1.442.66 1.89.39.448.94.672 1.63.672.58 0 1.07-.154 1.44-.448.31-.252.54-.63.73-1.134h1.12c-.17.7-.49 1.26-.98 1.708-.61.532-1.38.812-2.31.812-1.04 0-1.88-.35-2.5-1.022-.64-.7-.95-1.624-.95-2.8 0-1.064.3-1.96.91-2.674.62-.756 1.44-1.134 2.49-1.134Zm.03.938c-.64 0-1.16.21-1.55.63-.39.42-.62.98-.69 1.694h4.52c-.14-1.554-.91-2.324-2.28-2.324Z"/>
  <path stroke="#000" stroke-linecap="round" stroke-linejoin="round" stroke-width="5.333" d="m1318.13 794.667-34.83 34.666-15.83-15.757"/>
  <path fill="#606060" d="M1277.62 863.808c1.11 0 2.04.294 2.8.882.76.588 1.2 1.386 1.34 2.38h-1.1c-.14-.728-.51-1.288-1.07-1.68-.54-.378-1.2-.56-1.98-.56-1.17 0-2.06.406-2.69 1.218-.59.756-.88 1.75-.88 2.996s.28 2.24.86 2.968c.62.77 1.5 1.162 2.68 1.162.8 0 1.47-.21 2.03-.63.59-.448.99-1.106 1.19-1.974h1.1c-.22 1.162-.74 2.072-1.56 2.716-.77.602-1.7.91-2.76.91-1.56 0-2.75-.518-3.57-1.54-.76-.924-1.12-2.128-1.12-3.612s.38-2.702 1.15-3.654c.84-1.064 2.04-1.582 3.58-1.582Zm5.73 0h1.12v4.144c.26-.462.59-.812 1.01-1.05.39-.224.83-.336 1.32-.336.84 0 1.5.238 1.94.742.45.49.68 1.204.68 2.128V874h-1.12v-4.396c0-.672-.17-1.19-.48-1.554-.34-.364-.8-.546-1.4-.546-.56 0-1.02.224-1.39.672-.37.448-.56 1.022-.56 1.694V874h-1.12v-10.192Zm10.76 2.758c1.17 0 2.05.392 2.64 1.176.53.7.81 1.694.84 2.954h-5.72c.06.812.27 1.442.66 1.89.39.448.94.672 1.63.672.58 0 1.07-.154 1.44-.448.31-.252.54-.63.73-1.134h1.12c-.17.7-.49 1.26-.98 1.708-.61.532-1.38.812-2.31.812-1.04 0-1.88-.35-2.5-1.022-.64-.7-.95-1.624-.95-2.8 0-1.064.3-1.96.91-2.674.62-.756 1.44-1.134 2.49-1.134Zm.03.938c-.64 0-1.16.21-1.55.63-.39.42-.62.98-.69 1.694h4.52c-.14-1.554-.91-2.324-2.28-2.324Zm7.88-.938c.9 0 1.61.21 2.16.63.56.434.89 1.092 1.02 1.974h-1.11c-.1-.56-.32-.98-.67-1.26-.36-.28-.83-.406-1.4-.406-.7 0-1.26.266-1.67.798-.39.518-.58 1.218-.58 2.1 0 .882.18 1.582.57 2.086.38.504.94.77 1.67.77 1.23 0 1.94-.63 2.11-1.876h1.12c-.17.924-.52 1.638-1.08 2.114-.54.462-1.26.7-2.15.7-1.1 0-1.94-.364-2.54-1.092-.57-.686-.85-1.582-.85-2.688s.28-2.002.85-2.702c.62-.77 1.47-1.148 2.55-1.148Zm4.53-2.758h1.12v6.314l3.63-3.36h1.48l-3.19 2.912 3.5 4.326h-1.44l-2.83-3.598-1.15 1.036V874h-1.12v-10.192Z"/>
  <path stroke="#000" stroke-linecap="round" stroke-linejoin="round" stroke-width="5.333" d="m1415.2 792 40 40m-40 0 40-40"/>
  <path fill="#606060" d="M1422.02 863.808c1.11 0 2.04.294 2.8.882.76.588 1.2 1.386 1.34 2.38h-1.1c-.14-.728-.51-1.288-1.07-1.68-.54-.378-1.2-.56-1.98-.56-1.17 0-2.06.406-2.69 1.218-.59.756-.88 1.75-.88 2.996s.28 2.24.86 2.968c.62.77 1.5 1.162 2.68 1.162.8 0 1.47-.21 2.03-.63.59-.448.99-1.106 1.19-1.974h1.1c-.22 1.162-.74 2.072-1.56 2.716-.77.602-1.7.91-2.76.91-1.56 0-2.75-.518-3.57-1.54-.76-.924-1.12-2.128-1.12-3.612s.38-2.702 1.15-3.654c.84-1.064 2.04-1.582 3.58-1.582Zm5.96 0h1.1V874h-1.1v-10.192Zm6.3 2.758c1.08 0 1.95.364 2.59 1.12.62.714.93 1.61.93 2.702 0 1.078-.31 1.974-.91 2.674-.66.756-1.53 1.134-2.61 1.134-1.09 0-1.94-.378-2.59-1.134-.61-.7-.92-1.596-.92-2.674 0-1.092.31-1.988.92-2.702.65-.756 1.5-1.12 2.59-1.12Zm0 .938c-.77 0-1.37.294-1.79.882-.39.532-.57 1.19-.57 2.002 0 .798.18 1.456.57 1.988.42.588 1.02.882 1.79.882.76 0 1.36-.294 1.81-.882.38-.532.57-1.204.57-1.988 0-.812-.19-1.47-.57-2.002-.45-.588-1.05-.882-1.81-.882Zm7.53-.938c1.8 0 2.78.742 2.97 2.254h-1.09c-.1-.448-.28-.784-.56-.98-.31-.224-.76-.336-1.33-.336-.5 0-.9.084-1.18.28-.3.182-.46.434-.46.756 0 .308.2.574.62.784.26.126.77.28 1.5.476.86.21 1.48.434 1.86.672.57.364.87.854.87 1.484 0 1.484-1.03 2.24-3.07 2.24-1.9 0-2.94-.84-3.11-2.506h1.09c.09.574.3.98.61 1.232.3.224.77.336 1.38.336 1.29 0 1.95-.42 1.95-1.232 0-.406-.24-.714-.69-.938-.24-.112-.75-.266-1.54-.462-.85-.21-1.45-.42-1.79-.644-.56-.336-.83-.798-.83-1.414 0-.616.27-1.092.82-1.456.5-.364 1.17-.546 1.98-.546Zm7.49 0c1.16 0 2.05.392 2.63 1.176.54.7.82 1.694.84 2.954h-5.71c.06.812.27 1.442.66 1.89.39.448.94.672 1.62.672.59 0 1.08-.154 1.45-.448.3-.252.54-.63.72-1.134h1.12c-.16.7-.49 1.26-.98 1.708-.6.532-1.37.812-2.31.812-1.03 0-1.87-.35-2.49-1.022-.64-.7-.95-1.624-.95-2.8 0-1.064.29-1.96.91-2.674.62-.756 1.44-1.134 2.49-1.134Zm.03.938c-.64 0-1.16.21-1.55.63-.4.42-.62.98-.69 1.694h4.52c-.14-1.554-.91-2.324-2.28-2.324Z"/>
  <path stroke="#000" stroke-linejoin="round" stroke-width="5.333" d="M1550.93 826c0 3.314 2.69 6 6 6h41.33c3.32 0 6-2.686 6-6v-28c0-3.314-2.68-6-6-6h-41.33c-3.31 0-6 2.686-6 6v28Z"/>
  <path stroke="#000" stroke-linecap="round" stroke-linejoin="round" stroke-width="5.333" d="m1553.6 794 24 18 24-18"/>
  <path fill="#606060" d="M1564.61 864.004h1.43l3.72 8.526h.04l3.71-8.526h1.43V874h-1.15v-7.952h-.04l-3.46 7.952h-1.03l-3.46-7.952h-.04V874h-1.15v-9.996Zm15.35 2.562c1.04 0 1.8.266 2.3.812.42.476.64 1.134.64 1.974V874h-1.05v-1.218c-.28.392-.65.714-1.1.966a3.69 3.69 0 0 1-1.81.448c-.73 0-1.3-.182-1.73-.546a1.826 1.826 0 0 1-.68-1.456c0-.826.33-1.442 1-1.862.59-.392 1.43-.602 2.52-.616l1.73-.028v-.378c0-1.218-.63-1.82-1.89-1.82-.53 0-.96.098-1.3.322-.38.224-.61.574-.73 1.036l-1.1-.084c.15-.756.53-1.33 1.12-1.694.53-.336 1.22-.504 2.08-.504Zm1.82 3.962-1.66.028c-1.63.028-2.44.56-2.44 1.61 0 .336.13.602.41.826.28.21.64.322 1.09.322.69 0 1.29-.224 1.82-.672.52-.434.78-.938.78-1.498v-.616Zm3.78-6.496c.24 0 .43.07.6.238.17.14.25.336.25.588 0 .238-.08.434-.25.602a.854.854 0 0 1-.6.238.836.836 0 0 1-.6-.238.796.796 0 0 1-.24-.602c0-.252.07-.448.24-.588.16-.168.36-.238.6-.238Zm-.56 2.73h1.12V874H1585v-7.238Zm3.44-2.954h1.11V874h-1.11v-10.192Z"/>
  <path fill="#000" d="M1704 816a4 4 0 1 0 0-8 4 4 0 0 0 0 8Zm16 0a4 4 0 1 0 0-8 4 4 0 0 0 0 8Zm16 0a4 4 0 1 0 0-8 4 4 0 0 0 0 8Z"/>
  <path fill="#606060" d="M1704.01 864.004h1.43l3.72 8.526h.04l3.71-8.526h1.43V874h-1.15v-7.952h-.04l-3.46 7.952h-1.03l-3.46-7.952h-.04V874h-1.15v-9.996Zm15.44 2.562c1.08 0 1.94.364 2.59 1.12.61.714.92 1.61.92 2.702 0 1.078-.31 1.974-.91 2.674-.66.756-1.52 1.134-2.6 1.134-1.09 0-1.95-.378-2.59-1.134-.62-.7-.93-1.596-.93-2.674 0-1.092.31-1.988.93-2.702.64-.756 1.5-1.12 2.59-1.12Zm0 .938c-.77 0-1.37.294-1.79.882-.4.532-.58 1.19-.58 2.002 0 .798.18 1.456.58 1.988.42.588 1.02.882 1.79.882.75 0 1.36-.294 1.8-.882.38-.532.58-1.204.58-1.988 0-.812-.2-1.47-.58-2.002-.44-.588-1.05-.882-1.8-.882Zm8.14-.938c.4 0 .73.056 1 .168v1.12a3.69 3.69 0 0 0-1.08-.154c-.56 0-1.04.238-1.41.742-.4.476-.58 1.05-.58 1.722V874h-1.1v-7.238h1.1v1.26c.2-.42.45-.756.76-.994.38-.308.81-.462 1.31-.462Zm4.92 0c1.16 0 2.05.392 2.63 1.176.54.7.82 1.694.84 2.954h-5.71c.06.812.27 1.442.66 1.89.39.448.94.672 1.62.672.59 0 1.08-.154 1.45-.448.3-.252.54-.63.72-1.134h1.12c-.16.7-.49 1.26-.98 1.708-.6.532-1.37.812-2.31.812-1.03 0-1.87-.35-2.49-1.022-.64-.7-.95-1.624-.95-2.8 0-1.064.29-1.96.91-2.674.62-.756 1.44-1.134 2.49-1.134Zm.03.938c-.64 0-1.16.21-1.55.63-.4.42-.62.98-.69 1.694h4.52c-.14-1.554-.91-2.324-2.28-2.324Z"/>
</svg>
