<svg enable-background="new 0 0 94 30" viewBox="0 0 94 30" xmlns="http://www.w3.org/2000/svg"><path d="m0 0h93v30h-93z" fill="none"/><g clip-rule="evenodd" fill="#fd4c5d" fill-rule="evenodd"><path d="m14.9.5 15.2 23.8-7 4.2c-.4-.8-.9-1.7-1.3-2.6-.5-.9-1-1.9-1.6-3l-10.6.6-2.3 4.9-6.7-3.8c2.7-4.7 5.5-9.4 8.3-14.1s4.8-8 6-10zm-.1 11.4-3 6.3 5.9-.3z"/><path d="m41.8 9.4.2 4.4c-2.4.3-6.6 2-6.6 5.1s4.3 3.3 7 3l.2 4.1c-4.6.7-11.8-.3-12.3-6.4s5.3-9.5 11.5-10.2z"/><path d="m44.6 6.6c1.5 0 3.3-.1 5.3-.1 2.1-.1 4.1-.2 6.2-.3l.1 4.5-5.8.1v4.2l5.3-.2.1 4.3h-5.4v6.9h-5.8c.1-2.5.1-5.6.1-9.3s-.1-7.1-.1-10.1z"/><path d="m63.2 9.7c-.1 1.6-.2 3.4-.1 5.7.1 3.4-.1 6.8 2.8 6.9 3.1.1 2.9-3.4 2.9-6.8 0-2.3 0-4.3-.1-6.2h5.2c0 7.3 1.4 17-8.4 16.8-8.7-.2-7.3-8.4-7.4-16.4z"/><path d="m76.3 9.2-.9 16.6 4.6.1v-8.3c2.6 2.1 4.7 3.7 6.3 5 1.7 1.3 3.3 2.5 5 3.8l1-16.8-4.6-.1v8.3z"/></g><path d="m0 0h94v30h-94z" fill="none"/></svg>