<svg viewBox="0 0 512 512" xmlns="http://www.w3.org/2000/svg"><path d="m223 73.56-108.5 62.64a66 66 0 0 0 -33 57.16v125.28a66 66 0 0 0 33 57.16l108.5 62.64a66 66 0 0 0 66 0l108.5-62.64a66 66 0 0 0 33-57.16v-125.28a66 66 0 0 0 -33-57.16l-108.5-62.64a66 66 0 0 0 -66 0z" fill="#0d96f6"/><path d="m231.92 271.53 46.08-83.28c.63-1.14 1.27-2.28 1.84-3.46a17.41 17.41 0 0 0 1.24-3.32 12 12 0 0 0 -.5-7.37 11.34 11.34 0 0 0 -4.68-5.55 10.71 10.71 0 0 0 -6.95-1.46 10.94 10.94 0 0 0 -6.37 3.24 17.12 17.12 0 0 0 -2.14 2.78c-.69 1.11-1.32 2.25-2 3.39l-2.92 5.27-2.91-5.27c-.63-1.14-1.26-2.28-1.95-3.39a17.12 17.12 0 0 0 -2.14-2.78 10.94 10.94 0 0 0 -6.37-3.24 10.71 10.71 0 0 0 -6.95 1.46 11.34 11.34 0 0 0 -4.68 5.55 12.07 12.07 0 0 0 -.5 7.37 17.41 17.41 0 0 0 1.24 3.32c.57 1.18 1.21 2.32 1.84 3.46l9.42 17-36.69 66.27h-25.07c-1.26 0-2.52 0-3.79.07a15 15 0 0 0 -3.38.54 11.09 11.09 0 0 0 -5.87 4.13 11.93 11.93 0 0 0 0 14 11.06 11.06 0 0 0 5.87 4.14 15.57 15.57 0 0 0 3.41.6c1.27.07 2.53.07 3.79.07h98.83a13.64 13.64 0 0 0 .76-2c3.13-10.68-4.65-21.45-15.35-21.45zm-43 27.33-6 11.33c-.61 1.17-1.24 2.34-1.8 3.55a18.17 18.17 0 0 0 -1.21 3.41 12.88 12.88 0 0 0 .49 7.57 11.51 11.51 0 0 0 4.58 5.69 10 10 0 0 0 6.8 1.49 10.5 10.5 0 0 0 6.23-3.32 16.39 16.39 0 0 0 2.09-2.86c.68-1.13 1.3-2.31 1.92-3.48l8.67-16.42c-.68-1.13-7.15-11.1-21.79-7m155.34-22.68a11.15 11.15 0 0 0 -5.88-4.08 15.46 15.46 0 0 0 -3.38-.53c-1.27-.07-2.53-.07-3.8-.07h-25.02l-33.11-59a30.57 30.57 0 0 0 -8.13 16.58 35 35 0 0 0 4.08 22.7l39.79 70.88c.64 1.13 1.26 2.26 2 3.35a16.17 16.17 0 0 0 2.14 2.74 10.94 10.94 0 0 0 6.37 3.2 10.82 10.82 0 0 0 7-1.44 11.24 11.24 0 0 0 4.68-5.47 11.71 11.71 0 0 0 .5-7.28 16.64 16.64 0 0 0 -1.24-3.28c-.57-1.16-1.21-2.28-1.84-3.41l-9.18-16.35h12c1.27 0 2.53 0 3.8-.06a15.47 15.47 0 0 0 3.38-.54 11 11 0 0 0 5.88-4.08 11.65 11.65 0 0 0 0-13.82z" fill="#fff"/></svg>