<svg enable-background="new 0 0 200 200" viewBox="0 0 200 200" xmlns="http://www.w3.org/2000/svg"><g fill="#fff"><path d="m98.36 121.83c-2.4-1.59-5.86-1.92-7.68-.75-1.82 1.2-3.21 3.24-3.1 4.57.13 1.32.7 3.93 1.31 5.8.6 1.86 3.87 2.58 7.26 1.59 3.39-.98 6.26-3.26 6.37-5.06.12-1.79-1.76-4.56-4.16-6.15z"/><path d="m101.5 67.46c-1.06-.49-2.89-.78-4.07-.65-1.18.14-2.73 1.62-3.47 3.33 0 0 0 0-.51.97-.52.97-.41.71-.52.97-1.36 3.56 6.96 3.95 9.16 3.12 2.2-.82 3.4-2.7 2.66-4.17-.72-1.48-2.19-3.08-3.25-3.57z"/><path d="m115.84 113.81c-.88-.07-2.9.3-4.48.81s-2.87 2.13-2.85 3.59c.03 1.48 1.71 3.46 3.74 4.45 2.03.97 4.99.78 6.55-.43 1.57-1.21 1.91-3.59.74-5.26-1.14-1.65-2.81-3.08-3.7-3.16z"/><path d="m98.49 85.28c-1.72-4.46-8.58-5.95-15.32-3.35-6.75 2.6-10.83 8.31-9.11 12.76 1.72 4.44 8.58 5.95 15.32 3.35 6.75-2.6 10.83-8.31 9.11-12.76z"/><path d="m139.12 81.23c1.29-1.13 2.47-3.7 2.58-5.72s-1.1-3.92-2.67-4.22c-1.59-.3-3.68-.18-4.63.27-.96.45-1.96 2.03-2.2 3.49-.26 1.45.67 3.91 2.05 5.44 1.36 1.53 3.56 1.87 4.87.74z"/><path d="m139.89 87.73c-1.28-.23-2.72 2.23-3.2 5.46s.4 6.37 1.94 6.98 3.67-.29 4.7-2.01c1.04-1.72 1.21-4.67.4-6.57-.82-1.89-2.55-3.63-3.84-3.86z"/><path d="m100 0c-55.23 0-100 44.77-100 100s44.77 100 100 100 100-44.77 100-100-44.77-100-100-100zm16.87 133.71c-25.09 10.63-50.64 14.35-58.91-3.3-4.51-10.48 3.69-14.84 9.74-17.14 6.04-2.3 10.29-7.02 5.53-11.96-4.77-4.94-11.14.08-14.95-3.87-3.82-3.97-3.19-6.93-2.61-9.26 1.42-5.66 18.82-22.99 45.23-27.04 24.96-3.83 44.31 2.08 48.79 20.78 4.48 18.69-7.72 41.14-32.82 51.79z"/><path d="m135.06 105.79c-1.32-.71-3.4-.8-4.61-.2-1.22.6-2.31 2.09-2.41 3.3-.12 1.21 2.18 4.01 5.08 6.25 0 0 0 0 .81.1s.81.1.81.1c1.5-1.03 2.74-3.29 2.73-5.05 0-1.76-1.08-3.78-2.41-4.5z"/><path d="m119.09 66.05c-.96-.65-2.81-.36-4.11.65-1.29 1.01-2.14 3.33-1.88 5.14.25 1.81 1.86 3.58 3.59 3.93s3.75-.26 4.48-1.36c.75-1.09.97-3.16.51-4.59-.46-1.42-1.64-3.12-2.59-3.77z"/></g></svg>