<svg height="200" viewBox="0 0 1129 1024" width="220.507813" xmlns="http://www.w3.org/2000/svg"><g fill="#20b0e3"><path d="m234.908525 9.656195a80.468288 80.468288 0 0 1 68.398044 0 167.374038 167.374038 0 0 1 41.84351 30.577949l160.936576 140.819503h115.069651l160.936575-140.819503a168.983404 168.983404 0 0 1 41.84351-30.577949 80.468288 80.468288 0 0 1 107.022823 66.788678 80.468288 80.468288 0 0 1 -17.703024 53.913753 449.817728 449.817728 0 0 1 -35.406046 32.187315 232.553351 232.553351 0 0 1 -22.531121 18.507706h100.58536a170.59277 170.59277 0 0 1 118.288383 53.10907 171.397453 171.397453 0 0 1 53.913753 118.288383v462.692655a325.896565 325.896565 0 0 1 -4.023415 70.00741 178.639599 178.639599 0 0 1 -80.468288 112.655603 173.006819 173.006819 0 0 1 -92.53853 25.749852h-738.698882a341.18554 341.18554 0 0 1 -72.421459-4.023415 177.834916 177.834916 0 0 1 -111.046237-80.468287 172.202136 172.202136 0 0 1 -27.359217-92.538531v-457.864557a360.497929 360.497929 0 0 1 0-66.788679 177.030233 177.030233 0 0 1 160.936575-143.233552h105.413457c-16.89834-12.070243-31.382632-26.554535-46.671607-39.429461a80.468288 80.468288 0 0 1 -25.749852-65.983996 80.468288 80.468288 0 0 1 39.429461-63.569947m-18.507706 312.216956a80.468288 80.468288 0 0 0 -63.569948 57.937167 108.632188 108.632188 0 0 0 0 30.577949v380.615001a80.468288 80.468288 0 0 0 55.523119 80.468288 106.21814 106.21814 0 0 0 34.601364 5.63278h654.207179a80.468288 80.468288 0 0 0 76.444873-47.47629 112.655603 112.655603 0 0 0 8.046829-53.10907v-354.060465a135.186723 135.186723 0 0 0 0-38.624779 80.468288 80.468288 0 0 0 -52.304387-54.718435 129.553943 129.553943 0 0 0 -49.890338-7.242146h-625.238596a268.764081 268.764081 0 0 0 -37.820095 0zm0 0"/><path d="m348.368811 447.40368a80.468288 80.468288 0 0 1 55.523118 18.507706 80.468288 80.468288 0 0 1 28.163901 59.546533v80.468287a80.468288 80.468288 0 0 1 -16.093658 51.499705 80.468288 80.468288 0 0 1 -131.967992-9.656195 104.608774 104.608774 0 0 1 -10.460877-54.718436v-80.468287a80.468288 80.468288 0 0 1 70.00741-67.593362zm416.021047 0a80.468288 80.468288 0 0 1 86.101068 75.64019v80.468288a94.147897 94.147897 0 0 1 -12.070243 53.10907 80.468288 80.468288 0 0 1 -132.772675 0 95.757262 95.757262 0 0 1 -12.874926-57.132485v-80.468287a80.468288 80.468288 0 0 1 70.00741-70.812093zm0 0"/></g></svg>