<svg viewBox="0 0 512 512" xmlns="http://www.w3.org/2000/svg"><path d="m223 73.56-108.5 62.64a66 66 0 0 0 -33 57.16v125.28a66 66 0 0 0 33 57.16l108.5 62.64a66 66 0 0 0 66 0l108.5-62.64a66 66 0 0 0 33-57.16v-125.28a66 66 0 0 0 -33-57.16l-108.5-62.64a66 66 0 0 0 -66 0z" fill="#303030"/><path d="m242.81 329.19-19.07-5.53a3.76 3.76 0 0 1 -2.56-4.66l42.66-146.93a3.75 3.75 0 0 1 4.65-2.57l19.07 5.5a3.75 3.75 0 0 1 2.56 4.65l-42.66 146.98a3.73 3.73 0 0 1 -4.65 2.56zm-35.63-35.06 13.6-14.5a3.77 3.77 0 0 0 -.25-5.38l-28.32-24.9 28.32-24.91a3.73 3.73 0 0 0 .25-5.37l-13.6-14.5a3.75 3.75 0 0 0 -5.31-.16l-45 42.19a3.72 3.72 0 0 0 0 5.47l45 42.22a3.73 3.73 0 0 0 5.31-.16zm102.25.19 45-42.22a3.72 3.72 0 0 0 0-5.47l-45-42.25a3.78 3.78 0 0 0 -5.31.16l-13.59 14.46a3.74 3.74 0 0 0 .25 5.37l28.31 24.94-28.31 24.9a3.72 3.72 0 0 0 -.25 5.38l13.59 14.5a3.76 3.76 0 0 0 5.31.23z" fill="#fff"/></svg>