<svg enable-background="new 0 0 167.5 186.2" viewBox="0 0 167.5 186.2" xmlns="http://www.w3.org/2000/svg"><path d="m65.2 73.3v-7.3c-2.6-.4-5.2-.5-7.8-.6-31.6.1-57.4 25.4-57.4 56.5 0 19.1 9.7 36 24.5 46.2-9.9-10.3-15.4-24.1-15.4-38.4 0-30.7 25.1-55.7 56.1-56.4" fill="#20f4f2"/><path d="m66.6 155.5c14.1 0 25.7-11 26.2-24.8v-122.9h22.9c-.5-2.6-.7-5.2-.7-7.8h-31.3l-.1 122.9c-.5 13.8-12.1 24.8-26.2 24.8-4.2 0-8.4-1-12.2-3 5.1 6.8 13 10.8 21.4 10.8m91.8-106v-6.8c-8.4 0-16.6-2.4-23.7-6.9 6.3 7 14.6 11.8 23.7 13.7" fill="#20f4f2"/><path d="m134.8 35.8c-6.9-7.7-10.7-17.7-10.7-28h-8.4c2.2 11.5 9.1 21.7 19.1 28m-77.3 60.4c-14.5 0-26.3 11.6-26.3 25.8 0 9.9 5.7 18.5 14.1 22.8-3.2-4.4-5-9.6-5-15 0-14.2 11.8-25.8 26.3-25.8 2.6 0 5.2.4 7.8 1.2v-31.4c-2.6-.4-5.2-.5-7.8-.6-.5 0-.9 0-1.4 0v24c-2.5-.6-5.1-1-7.7-1" fill="#fd1a52"/><path d="m158.4 49.5v23.9c-15.6 0-30.7-4.8-43.4-13.7v62.3c0 31.1-25.8 56.5-57.5 56.5-11.8 0-23.3-3.6-32.9-10.2 10.9 11.5 26.1 18.1 42 18 31.7 0 57.5-25.3 57.5-56.5v-62.4c12.7 9 27.9 13.7 43.4 13.7v-30.7c-3 0-6.1-.3-9.1-.9" fill="#fd1a52"/><path d="m115 121.9v-62.3c12.7 9 27.9 13.7 43.4 13.7v-23.8c-9.2-1.9-17.4-6.7-23.7-13.7-9.9-6.3-16.8-16.4-19-28h-22.9v122.9c-.5 13.8-12.1 24.8-26.2 24.8-8.4 0-16.3-4-21.3-10.7-8.6-4.4-14-13.2-14.1-22.8 0-14.2 11.8-25.8 26.3-25.8 2.6 0 5.2.4 7.7 1.2v-24c-31 .6-56.1 25.6-56.1 56.3 0 14.3 5.5 28.1 15.4 38.4 9.7 6.7 21.2 10.3 32.9 10.2 31.8.1 57.6-25.2 57.6-56.4" fill="#231916"/></svg>