<svg enable-background="new 0 0 167.7 170.5" viewBox="0 0 167.7 170.5" xmlns="http://www.w3.org/2000/svg"><path d="m25.5 76c-2.7.8-5 2.6-6.5 4.9-7.1 11.4-24.7 46.4 7.5 71.8 39 30.7 127.9 13.3 136.7-38.6 7.1-42-5.4-57.7-22.4-66.5 0 0-10-4.6-20.8 0z" fill="#ffdc48"/><path d="m86.7 91.3s37.4-1.5 38 15.3c.3 8.2-24 69.9-91.3 50.8 0 0 54.9 31.6 112.2-11.6 42.4-54.8 4.2-111.7-24.1-99.3s-34.8 44.8-34.8 44.8z" fill="#ffbe3c"/><path d="m24.2 79.5c4.3 7.3 11.2 12.6 19.3 14.9 7 2 15.4 3.2 24.5 3.2 9.7 0 18.7-1.3 26.1-3.6 7.8-2.4 14.4-7.7 18.5-14.8 0 0 0-.1.1-.1 4.3-7.4 6.7-16 6.7-25.2.1-28.2-22.9-51.3-51.1-51.3-28.3 0-51.1 22.8-51.1 51.1 0 9.4 2.5 18.2 7 25.8z" fill="#ffdc48"/><path d="m68.3 2.5c-3.3 0-6.4.3-9.5.9 18.6 5.6 32.2 23 32.1 43.4 0 8.1-2.2 15.7-5.9 22.2 0 0 0 .1-.1.1-3.6 6.2-9.5 10.9-16.3 13.1-6.5 2-14.5 3.2-23 3.2-6.7 0-13-.7-18.5-2 4.2 5.2 10 9 16.6 10.9 7 2 15.4 3.2 24.5 3.2 9.7 0 18.7-1.3 26.1-3.6 7.8-2.4 14.4-7.7 18.5-14.8 0 0 0-.1.1-.1 4.3-7.4 6.7-16 6.7-25.2-.1-28.2-23.1-51.3-51.3-51.3z" fill="#ffbe3c"/><path d="m15.6 65.3 3.5-1.9c7.1-2.5 15-.9 20.5 4.2 6.2 6.6 10.3 11.6 16.6 15.3.9.5 1.4 1.5 1.4 2.5v2.4c0 2.3-1.7 4.3-3.9 4.8-10.8 2.1-40.9 6-50.8-12.1-3-7.3 12.7-15.2 12.7-15.2z" fill="#ff4160"/><path d="m47.4 75.8-4-3.2s-32.1 13.3-37.9 11.6c0 .1.1.1.1.2 2.7 1.7 16.8 9.6 34.8 6.8 20.1-3.1 15.8-8.2 15.8-8.2-3.3-2.1-6.1-4.4-8.8-7.2z" fill="#f43459"/><path d="m54.6 85.4c-10.1 2.5-35 7.2-50.2-2.6 11.1 15.4 39 11.8 49.3 9.8 2.3-.4 3.9-2.4 3.9-4.8v-2.4c0-.5-.2-1.1-.4-1.5-.7.7-1.6 1.3-2.6 1.5z" fill="#db214e"/><path d="m135.7 138.5s-24.5 12.1-29.9-10c-5-28.7 27.4-22.9 32-29.9 5-7.8 8.3-22 13.7-13.7s6.4 41.1-15.8 53.6z" fill="#ffdc48"/><path d="m114.2 140.2c9.1 4.4 21.5-1.7 21.5-1.7 22.2-12.4 21.2-45.3 15.8-53.6s-8.7 5.9-13.7 13.7c5.1 18.6-3.2 33.6-23.6 41.6z" fill="#ffbe3c"/><path d="m55.2 55c0 4.4 3.6 8 7.9 8 4.4 0 8-3.6 8-7.9 0-4.4-3.6-8-7.9-8-4.5-.1-8 3.5-8 7.9z" fill="#ffbe3c"/><g fill="#5e4153"><path d="m53.6 53.9c0 4.4 3.6 8 7.9 8 4.4 0 8-3.6 8-7.9 0-4.4-3.6-8-7.9-8-4.4-.1-8 3.5-8 7.9z"/><path d="m163.3 67.5c-4.1-9.6-10.9-16.6-21.4-22.1h-.1c-.4-.2-9.8-4.4-20.7-.8-2-11.8-8-22.6-17-30.7-9.8-9-22.6-13.9-35.8-13.9-29.6 0-53.7 24.1-53.7 53.6 0 3 .3 5.9.7 8.8l-.9.6c-1.9 1-17.6 9.4-13.8 18.5 0 .1.1.2.1.3 2.4 4.4 5.9 7.6 9.9 9.9-6.5 15.5-11.9 42.4 14.3 63.1 11.3 8.9 26.7 14.2 44.8 15.5 2.6.2 5.3.3 7.9.3 14.6 0 29.5-2.7 42.7-7.8 11.9-4.6 22.2-11.1 29.8-18.7 8.5-8.6 13.8-18.5 15.6-29.4 3.4-20.1 2.6-35.6-2.4-47.2zm-95-62.4c24.8 0 45.5 18.6 48.2 43.2.2 1.8.3 3.7.3 5.5 0 8.4-2.2 16.7-6.4 23.9 0 0-.1.1-.1.1-3.8 6.5-9.8 11.4-17 13.6-7.3 2.4-16.1 3.6-25.3 3.6-4 0-7.9-.2-11.6-.7 2.3-1.3 3.8-3.7 3.8-6.5v-2.4c0-1.9-1-3.7-2.7-4.7-5.1-3-8.7-6.9-13.6-12.2-.8-.9-1.6-1.8-2.5-2.7 0 0-.1-.1-.1-.1-5.7-5.3-13.7-7.3-21.2-5.4-.3-2.2-.5-4.5-.5-6.8 0-.6 0-1.2 0-1.8 2.2-1.4 3.7-3.9 3.7-6.7 0-1.9-.7-3.6-1.8-5 6-20.1 24.7-34.9 46.8-34.9zm-63 74.3c-1.3-3.4 6-9.1 11.5-11.9l3.4-1.8c6.1-2.1 12.9-.7 17.7 3.7.8.9 1.6 1.8 2.4 2.6 5 5.4 8.9 9.7 14.7 13.1.1.1.2.2.2.3v2.4c0 1.1-.8 2.1-1.9 2.3-9 1.7-38.7 6-48-10.7zm155.4 34.3c-3.2 19-18.6 35.1-42.2 44.2-31.6 12.2-69.6 9.2-90.4-7.2-22.5-17.7-19.8-40.2-12.9-56.8 6.2 2.3 13.2 3.1 19.8 3.1 2.6 0 5.1-.1 7.5-.3.1 0 .3.1.4.1 7.5 2.1 16.2 3.3 25.2 3.3 9.7 0 19-1.3 26.8-3.8 8.4-2.6 15.5-8.3 19.9-16v-.1c4.6-8 7-17.1 7.1-26.4 0-1.4 0-2.7-.2-4.1 9-3.4 17.3 0 17.9.3 14.5 7.4 28.3 20.8 21.1 63.7z"/><path d="m148.3 79.5c-3.8.3-6.1 5-8.7 10.4-1.2 2.4-2.4 5-3.7 7-.9 1.3-5 2.3-8.7 3.2-5.4 1.3-12.2 2.9-17.2 6.8-5.9 4.8-8.1 12.1-6.4 21.7v.2c1.6 6.6 5 11.1 10 13.5 2.8 1.3 5.7 1.8 8.6 1.8 7.6 0 14.6-3.4 15-3.6l.1-.1c11.7-6.6 16.6-17.9 18.7-26.2 3.1-12.7 1.4-25.7-2-31-1.7-2.6-3.6-3.8-5.7-3.7zm1.4 6.4c2.4 3.8 4.3 15.2 1.3 27-1.8 7.3-6.1 17.2-16.2 22.9-.9.4-11.5 5.3-19.1 1.7-3.5-1.6-5.9-5-7.1-9.9-3-17.3 9.1-20.2 19.7-22.6 5.5-1.3 9.9-2.3 11.9-5.4 1.5-2.3 2.8-4.9 4-7.5 1.2-2.5 3.2-6.7 4.4-7.5.2.2.6.5 1.1 1.3z"/></g><path d="m56.6 51.4c0 1.4 1.1 2.5 2.5 2.5s2.5-1.1 2.5-2.5c0-1.4-1.1-2.5-2.5-2.5s-2.5 1.2-2.5 2.5z" fill="#fff"/><path d="m28 80c-1-.1-1.9-.8-2.2-1.8-.4-1.3.3-2.8 1.7-3.2 3-.9 6.6-2.5 6.6-2.6 1.3-.6 2.8 0 3.4 1.3s0 2.8-1.3 3.4c-.2.1-3.9 1.7-7.2 2.8-.3.1-.7.1-1 .1z" fill="#ffd7df"/></svg>