<svg xmlns="http://www.w3.org/2000/svg" width="80" height="80" fill="none" viewBox="0 0 80 80">
  <path fill="#1ABCFE" d="M39.996 40a11.998 11.998 0 0 1 12.002-12 12.003 12.003 0 0 1 12.003 12 11.999 11.999 0 0 1-12.003 12 12.004 12.004 0 0 1-12.002-12Z"/>
  <path fill="#0ACF83" d="M16 64a11.999 11.999 0 0 1 12.002-12h12.003v12a11.999 11.999 0 0 1-12.003 12A12.004 12.004 0 0 1 16 64Z"/>
  <path fill="#FF7262" d="M39.996 4v24h12.002a12.004 12.004 0 0 0 12.003-12A11.999 11.999 0 0 0 51.998 4H39.996Z"/>
  <path fill="#F24E1E" d="M16 16a11.999 11.999 0 0 0 12.002 12h12.003V4H28.002A12.004 12.004 0 0 0 16 16Z"/>
  <path fill="#A259FF" d="M16 39.999a11.998 11.998 0 0 0 12.002 12h12.003v-24H28.002a12.004 12.004 0 0 0-12.002 12Z"/>
</svg>
