<svg enable-background="new 0 0 162.8 170" viewBox="0 0 162.8 170" xmlns="http://www.w3.org/2000/svg"><path d="m159.3 48.8c-4 11.6-10.8 26-15.9 34.8 0 0-10.8 2.1-28.6 30.3-1.6 2.5-4.2 2.3-7.4 1.2.1-.1 18.4-28.9 19.4-30.5.2-.3.4-.6.6-.9 3.3-5.2 6.6-10.5 9.9-15.7 2.9-4.6 5.8-9.1 8.5-13.4 6.7 5 10.9 1.1 13.5-5.8z" fill="#7f8933"/><path d="m145.9 54.5c-4.6 7.5-9.4 14.9-14.1 22.4-2.2 3.4-4.3 6.9-6.9 10-2.6 3-5.4 5.8-8.8 7.9-2.6 1.7-6.9 3.8-10 2-1.6-1-1.7-2.9-1-4.5.8-1.8 2.1-3.5 3.1-5.3 2.8-5.1 8.2-16.2-.2-19.1-3.7-1.2-8.1-.7-11.8.3-.9.2-1.7.5-2.6.8-.5.2-1.6.4-1.8 1-.2.7.2 1.5.3 2.2.1 1.1.2 2.2.2 3.3.1 4.3-.8 8.5-1.9 12.7-1 3.9-2.4 7.8-4 11.6-3 6.9-6.9 13.6-12.4 18.8-5.4 5.1-12.3 8.6-19.8 9.1-3.7.3-7.5-.2-10.9-1.6s-6.2-3.9-8.3-7c-4.3-6.3-6-14.8-4.8-22.4.3-2 .8-4 1.4-6-4 1-7.9 2.9-11 5.7-1.6 1.5-2.9 3.3-3.8 5.3-.9 1.9-1.5 3.8-2.3 5.7s-2 3.9-3.9 4.7c-.9.4-1.9.4-2.9-.1-.6-.3-1.9-.9-2-1.6-.1-.5.2-1.2.3-1.6.1-.6.3-1.2.4-1.8.3-1.2.6-2.4 1-3.6.6-2.1 1.4-4.3 2.2-6.3 6.7-17 18.7-31.5 32.1-43.7 3.4-3.1 6.9-6.1 10.5-8.9 1.8-1.4 4-2.1 6.1-2.9 2.2-.9 4.5-1.8 6.8-2.7 4.5-1.6 9.4-3.3 14.2-3.6 4.2-.2 8.5 1.1 10.3 5.3.8 1.8 1.1 3.8 1.4 5.7.3 1.7.4 3.5 1.2 5.1 1.6 3.2 6.3 3.8 8.8 1.3 2.6-2.5 3-6.7 3.5-10.1.8-4.5 1.3-9.3 3.5-13.3 2.1-3.8 5.9-5.5 10.2-5.3s8.7 1.5 12.2 3.8c3.6 2.3 5.8 5.8 7.2 9.7 1.4 4 2 8.3 4.1 12 1.1 2.1 2.5 3.7 4.2 5z" fill="#fff2bd"/><path d="m91.9 69.9c-18 8.3-24.8 34.5-33.4 35.4-12.2 1.4-11.8-18.2-26.8-14.4 5-15.6 21.1-34.2 50.8-31.4 5.6.5 8.4 4.1 9.4 10.4z" fill="#b16939"/><path d="m127.5 83.7c-3.5 5.5-7 11-10.5 16.5-1.7 2.7-3.5 5.4-5.2 8.1-.9 1.3-1.7 2.7-2.6 4.1-.4.6-.8 1.3-1.2 1.9-.3.5-.4 1-1 .8-2.7-.9-5.2-2.4-7.8-3.5-2.5-1.1-5.4-2.1-8.1-1.6-5.3.9-9.1 6-11.5 10.4-1.3 2.4-2.3 4.9-3.4 7.4s-2.1 5.1-3.5 7.3-3.7 4.2-6.4 3.1c-2.4-.9-4.4-3-6.3-4.6-2-1.6-4.2-3.1-6.8-3.8-2.9-.8-5.9-.3-8.7.6-5.9 1.8-11.4 4.8-16.7 7.7-2.6 1.4-5.1 3.1-8.2 2.8-2.6-.3-4.9-1.7-6.7-3.5-4-4-6.6-9.6-7.6-15.1-.1-.7-.3-1.3-.3-2 0-.2 0-.5-.1-.7v.1c.2-3 .5-5.9 1-8.9 1.8 1.8 4.1 2.6 6.2.9 2-1.6 2.7-4 3.6-6.3.8-2.1 1.7-4.2 3-6.1 1.4-2 3.2-3.6 5.3-4.9 2.4-1.5 5.1-2.7 7.9-3.4-2.3 7-2.2 14.5.1 21.5 2 5.9 5.7 11.3 11.6 13.8 5.8 2.5 12.6 2.1 18.5.1 6.1-2.1 11.3-6.2 15.4-11.1 4.5-5.4 7.8-11.7 10.3-18.2 2.6-6.9 4.9-14.5 4.7-21.9 0-.9-.1-1.7-.2-2.6-.1-.8-.3-1.6-.3-2.3 0-.5.2-.5.7-.7.7-.3 1.4-.5 2.1-.8 3.3-1.1 7-1.6 10.5-1.3 2.8.3 5.8 1.4 6.8 4.3 1.1 3 .1 6.6-1 9.4-1.2 3.3-3.1 6.4-4.9 9.4-.8 1.3-1.9 2.9-1.4 4.5.4 1.4 1.8 2.2 3.1 2.3 3.1.4 6.3-1.2 8.8-2.9 2.8-1.9 5.2-4.2 7.4-6.7 1.2-1.3 2.3-2.7 3.4-4.1z" fill="#ffe39c"/><path d="m107.4 115.2c-2.7 4.3-5.4 8.6-8 12.9-2.5 4.2-5 8.4-8.1 12.1-6.1 7.4-14 13.2-22.9 16.6-9.3 3.5-19.4 4.5-29.2 3.3-9.3-1.2-19.2-4.2-26.6-10.2-.9-.7-1.7-1.4-2.3-2.5s-1.1-2.2-1.6-3.4c-1.1-2.5-1.9-5.1-2.5-7.7-1.3-5.4-1.8-11.2-1.4-16.8.4 4.6 2 9.2 4.4 13.1 2.1 3.5 5.1 7.1 9.2 8 2.2.5 4.3.1 6.3-.9 2.1-1.1 4.1-2.2 6.2-3.3 4.1-2.2 8.4-4.3 12.8-5.8 2.2-.7 4.5-1.3 6.8-1.3 2.2.1 4.3.8 6.1 1.9 1.9 1.1 3.6 2.5 5.2 3.9 1.6 1.3 3.4 3 5.5 3.3 4.4.6 6.7-5.6 8-8.7 1.9-4.2 3.5-8.6 6.2-12.5 2.6-3.8 6.8-7.9 11.8-7.4s9.4 3.7 14.1 5.4z" fill="#f6cb7c"/><path d="m143.4 83.7c-2.9 5-5.6 11.9-8.6 19.6l-10.5 24c-11.5 22-29.8 42.7-66.4 42.7-26.6 0-40.4-9.8-47.1-21.8 14.5 14.5 63.1 23.8 86.6-16.8 2.1-3.7 5.7-9.4 10.1-16.3 3.1 1.1 5.8 1.3 7.4-1.2 17.7-28.1 28.5-30.2 28.5-30.2z" fill="#576b2c"/><path d="m92.5 77.5c0 7.9-9.5 50.5-40.2 50.5-20.5 0-22.2-22.2-22.2-26.8 0-3 .6-6.5 1.8-10.2 15-3.8 14.6 15.8 26.8 14.4 8.5-1 15.3-27.1 33.4-35.4.2 2.1.4 4.6.4 7.5z" fill="#874622"/><path d="m145.9 54.5c-10.8-8.2-2.2-25.8-24.7-30-22.4-4.2-11.6 28.8-23.3 29.8s-1.4-17.4-16.2-18.8c-6.2-.6-17.3 3.5-28.2 8.4 29.4-22.9 64.7-37.1 82.5-37.1 11.7 0 18.3 3.2 22.1 8.1 0 .1.1.2.1.3 3.8 11-3.1 24.5-12.3 39.3z" fill="#fff7d7"/><path d="m162.8 34c-.5 3.5-1.2 7.2-2.1 10.6-.4 1.3-.9 2.8-1.4 4.2-2.7 6.8-6.8 10.7-13.5 5.7 9.2-14.9 16.1-28.3 12.3-39.4 0-.1-.1-.2-.1-.3 4.2 5.3 4.8 12.4 4.8 19.2z" fill="#b6bc69"/><path d="m152.4 10.1c-3.9-2.1-9.2-3.3-16.4-3.3-17.8 0-53.1 14.3-82.6 37.1-26.7 20.6-48.7 48.2-48.7 78.6 0 3.8.3 8 1.2 12.2-1.8-5.8-2.4-11.8-2.4-17-.1-62.9 95.6-113.7 128.9-113.7 9.9 0 16.1 2.4 20 6.1z" fill="#fff"/><path d="m155.1 9.5c-4.5-6.4-12.3-9.5-24-9.5-9.5 0-23.9 4-39.5 11-1.1.5-1.6 1.8-1.1 2.9.2.5.7.9 1.2 1.2.5.2 1.1.2 1.7-.1 15-6.8 28.7-10.7 37.7-10.7 10.1 0 16.8 2.5 20.4 7.7 3.3 4.7 3.8 11.2 3.8 17 0 4.1-2.3 12-6.5 22.2-3.6 8.8-8.3 18.6-12.3 25.4-2.8 4.8-5.3 11.1-8.1 18.4l-.1.2c-3.9 9.9-8.2 21-14.6 31.4-7.2 11.9-15.7 20.3-25.8 25.9-1 .6-1.4 1.9-.8 2.9.4.7 1.1 1.1 1.9 1.1.4 0 .8-.1 1.1-.3 10.8-5.9 19.7-14.9 27.4-27.4 6.5-10.7 11-22.1 14.9-32.1l.2-.4c2.8-7 5.2-13.1 7.8-17.6 4.1-7 8.9-16.9 12.5-26 3.1-7.6 6.8-17.9 6.8-23.9-.1-6.2-.6-13.6-4.6-19.3zm-85.8 13.4c-13.4 8.1-32.6 21.6-47.6 39.8-14.4 17.5-21.7 35.4-21.7 53.2 0 8.9 1.7 21.6 10 31.8 9.1 11.3 24.1 17.1 44.5 17.1 1.2 0 2.2-1 2.2-2.2s-1-2.2-2.2-2.2c-19 0-32.8-5.2-41.1-15.4-7.4-9.2-9-20.9-9-29.1 0-16.7 7-33.7 20.7-50.4 14.6-17.9 33.3-31 46.5-38.9 1-.6 1.3-2 .7-3-.7-1-2-1.4-3-.7z" fill="#934a19"/></svg>