<svg enable-background="new 0 0 150.7 174.6" viewBox="0 0 150.7 174.6" xmlns="http://www.w3.org/2000/svg"><path d="m128.1 34c-.7 0-1.5-.1-2.2-.4-12.1-4.8-24.3-4.1-31.8 5.4-7.5 9.4 2 21.2-10.8 24.2-12.8 2.8-14.8-7.2-32.2-9.4-4-.5-8.5 1-13.1 3.5 19.5-24.9 43.2-53.5 48-52.7 3.3.5 24.9 16 42.1 29.4z" fill="#b16939"/><path d="m150 52.7c-.5.9-1.5 1.5-2.3 2.1-1.2.8-2.5 1.4-3.8 2-2.4 1.1-4.9 2.1-7.3 2.9-4.9 1.8-9.9 3.4-14.9 4.9-11.5 3.6-23.1 6.8-34.7 9.8-11.1 2.9-22.3 5.8-33.5 8.5-9.1 2.2-18.3 4.4-27.4 6.6l-14.3 3.3c-.2 0-.3.1-.5.1.7-1.3 1.7-2.5 2.6-3.7l3.3-4.5c2.3-3.1 4.6-6.2 6.9-9.2 2.4-3.2 4.9-6.4 7.3-9.6 1.2-1.6 2.4-3.1 3.7-4.7l1.9-2.4c.3-.4.6-.8 1-1.2.3-.4.7-.5 1.2-.8 3.2-1.7 6.9-3.1 10.6-3.1 1.7 0 3.4.3 5.1.7 1.5.3 3 .7 4.4 1.2 2.4.8 4.6 1.9 6.8 3.1 1.8 1 3.6 2.1 5.5 3 1.7.9 3.6 1.5 5.5 1.8 2.4.3 4.8 0 7.1-.6 2.2-.6 4.3-1.7 5.4-3.8 1-1.8 1.1-3.9 1.2-5.8.1-2.3 0-4.7.4-7 .4-2.6 1.3-5 2.9-7.1 3.8-4.9 9.5-7.8 15.6-8.4 3.2-.3 6.4 0 9.5.7 1.7.4 3.3.8 5 1.4.8.3 1.7.7 2.5.9.4.1.9.2 1.3.2.3 0 .3 0 .5.1s.4.3.6.5c6.1 4.7 12.2 9.5 17.9 14.6.6.6 1.2 1.1 1.8 1.7.3.6.9 1.1 1.2 1.8z" fill="#9e5126"/><path d="m143.6 96.7c-1.6-.6-4.1-4-6.7-7.6-8.6 4.1-21 8.7-34.4 13.2-3.8 1.3-7.6 8.4-16.5 12.5s-9.9-4.1-18.9-1.4c-5.6 1.7-6.2 11.8-8.7 18.8 32.9-9.5 77.8-23.9 87.6-32.7.1-1.2.3-2.4.4-3.6-.6.9-1.6 1.2-2.8.8zm-106.2 29.6c-4.6 3.6-9.4 10.4-14.1 7.1-3.4-2.3-1.2-5.6-3.7-7.5-4.5.8-8.7 1.4-11.8 1.9.2-3.1.3-6.3.5-9.4 4.3-.6 10.6-1.6 17.1-2.8 4.2-.8 20.7-5.2 40.4-11-2.8-1.3-5.1-2.9-6.6-4.5-2.5-2.6-7-4.1-12.3-4.8-.3.1-.6.2-1 .2-.4.1-.9.2-1.3.3-.2 0-.3.1-.5.1-.3.1-.6.1-.9.2-1.6.4-3.1.7-4.6 1-.4.1-.8.2-1.2.3-2.1.5-4.1.9-6 1.3-.4.1-.8.2-1.1.3-.6.1-1.1.2-1.6.4-.5.1-1.1.2-1.6.4-.3.1-.7.1-1 .2-.1 0-.2.1-.4.1-.4.1-.8.2-1.2.3-.5.1-1 .2-1.5.3-.2 0-.4.1-.6.1s-.4.1-.6.1-.4.1-.5.1c-.4.1-.9.2-1.3.3-.1 0-.3.1-.4.1-.5.1-1.1.2-1.6.3-.1 0-.2 0-.3.1-.1 0-.2 0-.3 0-.2 0-.3.1-.4.1-.6.1-1.1.2-1.6.3-.1 0-.1 0-.2 0-.4.1-.8.2-1.2.2l-.4.1c-.7.1-1.3.2-1.8.3h-.1c-.3 0-.5.1-.7.1h0c-.2 0-.3 0-.4 0h-.9c-1.1 10.1-2.3 26.4-3 41.5 4.3-.6 10.5-1.6 16.8-2.8 2.8-.5 10.7-2.6 21.4-5.5-4.7-4.6-4-12.6-7.5-9.8zm89.5-46.6c-3.6 3.1-8.7 7.9-14.6 4.6-5.4-3-8.9-.7-16.5 11.1 13.4-4.4 26.2-8.9 36.1-13.1-2-2.3-3.8-3.7-5-2.6z" fill="#fdcb46"/><path d="m137.1 114.1c-6.9 4.2-5.2 16.3-14.6 21.7 12-4.9 19.9-8.6 20.2-9.7.3-1.4 1.2-8 2.2-16.7-1.7 1.4-4.4 3-7.8 4.7zm-31.1 15.8c-2.4 4.3-9.8 9.5-11.8 5.3-.9-1.7-1.6-3-3-3.8-14.2 4.6-28.8 8.9-40.9 12.3-1.3 1.1-2.2 2.1-2.6 3-1.9 4.2-4.3 5.4-8.2 5.1s-1.2-3.1-5.4-2.8c-4.3.4-2.7 5.3-7.1 9.8s-10.3-1.3-10.3-4.5c0-1.1-.7-1.7-1.6-2.1-3.2.5-6.2 1-8.6 1.3-.2 8.1-.2 15.4.2 20.4.3 3.9 72.6-21.1 111.7-36.7-6.6 2-10-11.6-12.4-7.3z" fill="#f3b00c"/><path d="m75.6 63.2c-1 .5-2.2 1-3.4 1.4-7.9 2.4-15.9-.9-17.8-7.3-.3-.9-.5-2-.5-3.1 11.1 2.2 15.3 7.6 21.7 9z" fill="#d10305"/><path d="m75.6 63.2c-6.4-1.4-10.6-6.9-21.7-9-.5-6.6 2.3-15.5 9-17.9 13.4-4.8 18.3 6 20.2 12.4 1.6 5.4-1.6 11.4-7.5 14.5z" fill="#ed4233"/><path d="m146.2 99.5c-.1 1.1-.3 2.1-.4 3.2-.1.5-.1 1-.2 1.4 0 .2 0 .3-.1.4 0 .2 0 .3-.1.4 0 .2 0 .4-.1.5 0 .3-.1.6-.1.9v.2c-.1.5-.1 1.1-.2 1.6v.1l-.1.9c-1.8 1.4-4.5 3-7.8 4.7-6.9 4.2-5.2 16.3-14.6 21.7-1.2.7-2.7 1.3-4.3 1.7-6.4 1.7-9.8-11.9-12.2-7.6s-9.8 9.5-11.8 5.3c-.9-1.7-1.6-3-3-3.8-14.2 4.6-28.8 8.9-40.9 12.4-1.2 1.1-2.2 2.1-2.6 3-1.9 4.2-4.3 5.4-8.2 5.1-3.8-.3-1.2-3.1-5.4-2.8-4.3.4-2.7 5.3-7.1 9.8s-10.3-1.2-10.3-4.5c0-1.1-.7-1.7-1.6-2.1-3.2.5-6.2 1-8.6 1.3 0-.4 0-.8 0-1.2s0-.8 0-1.2c0-.3 0-.6 0-1 0-.7 0-1.3.1-2 0-.6 0-1.2.1-1.7 0-.1 0-.2 0-.3 0-.7.1-1.4.1-2.1 4.3-.6 10.5-1.6 16.8-2.8 2.7 0 10.7-2 21.4-5 4.2-1.2 8.8-2.5 13.7-3.9 32.8-9.5 77.7-23.9 87.5-32.6z" fill="#ffdfa6"/><path d="m148.6 73.1c-.4 3.3-.8 6.6-1.2 9.9-2.1 1.8-5.7 3.9-10.4 6.2-8.6 4.1-21 8.7-34.4 13.2-3.8 1.3-7.6 8.4-16.5 12.5s-9.9-4.1-18.9-1.4c-5.6 1.7-6.2 11.8-8.7 18.8-1.5 4.2-3.6 7.2-7.8 6.6-2.6-.4-4.5-1.4-5.8-2.7-4.7-4.5-4-12.5-7.5-9.7-4.6 3.6-9.4 10.4-14.1 7.1-3.4-2.3-1.2-5.6-3.7-7.5-4.5.8-8.7 1.4-11.8 1.9.2-3.1.3-6.3.5-9.4 4.3-.6 10.6-1.6 17.1-2.8 4.2-.8 20.7-5.2 40.4-11 9.6-2.8 19.9-6 29.9-9.2 13.4-4.4 26.2-8.9 36.1-13.1 8.1-3.7 14.1-6.8 16.8-9.4z" fill="#ffedcc"/><path d="m146.6 95.9c-.8.9-1.8 1.2-3 .8-4-1.5-13.1-20.1-16.7-17s-8.7 7.9-14.6 4.6-9.5-.2-18.7 14.5-28.2 7.7-34.4 1.3c-2.5-2.6-7-4.1-12.3-4.8-.3.1-.6.2-1 .2-.4.1-.9.2-1.3.3-.2 0-.3.1-.5.1-.3.1-.6.1-.9.2-1.6.4-3.1.7-4.6 1-.4.1-.8.2-1.2.3-2.1.5-4.1.9-6 1.3-.4.1-.8.2-1.1.3-.6.1-1.1.2-1.6.4-.5.1-1.1.2-1.6.4-.3.1-.7.1-1 .2-.1 0-.2.1-.4.1-.4.1-.8.2-1.2.3-.5.1-1 .2-1.5.3-.2 0-.4.1-.6.1s-.4.1-.6.1-.4.1-.5.1c-.4.1-.9.2-1.3.3-.1 0-.3.1-.4.1-.5.1-1.1.2-1.6.3-.1 0-.2 0-.3.1-.1 0-.2 0-.3 0-.2 0-.3.1-.4.1-.6.1-1.1.2-1.6.3-.1 0-.1 0-.2 0-.4.1-.8.2-1.2.2l-.4.1c-.7.1-1.3.2-1.8.3h-.1c-.3 0-.5.1-.7.1h-.1c-.2 0-.3 0-.4 0h-.8c.6-5.4 1.1-9.1 1.5-9.8 5.3-1.3 133.5-30.4 138.8-40.3.3.7 2.5 36.7-3.4 43.1z" fill="#823919"/><path d="m67.6 40.5c-.7-.1-1.3-.6-1.5-1.3 0-.2-.8-4.6 2.2-11.2.4-.8 1.3-1.2 2.1-.8s1.2 1.3.8 2.1c-2.6 5.5-2 9.1-2 9.2.2.9-.4 1.7-1.3 1.9 0 .1-.2.1-.3.1z" fill="#99a040"/><path d="m11.2 93c-.4.8-.9 4.4-1.5 9.8-1.8 16.5-3.9 49.6-3.4 67-1.8.3-2.8.2-2.8-.3-.7-9.1-.1-25.6.8-41.2.7-10.8 1.6-21.1 2.3-28.3 0-.1 0-.1 0-.2s0-.1 0-.2 0-.2 0-.4v-.1c0-.1 0-.3 0-.4v-.1c.1-.5.1-1 .2-1.4 0-.1 0-.3 0-.4s0-.1 0-.2 0-.2 0-.3 0-.1 0-.2 0-.1 0-.2 0-.2 0-.2c0-.1 0-.1 0-.2s0-.2 0-.2v-.1c0-.1 0-.2 0-.3v-.1c0-.1 0-.2 0-.3v-.1c0-.1 0-.2 0-.3.2-1.1.3-2 .4-2.6 0-.1 0-.1 0-.2 0-.1 0-.1 0-.2v-.1-.1-.1s0 0 0-.1c0 0 0 0 0-.1s0 0 0 0v-.1c2.6-3.3 65.8-87.8 74-86.4.5.1 1.4.5 2.7 1.2-14 8.3-71.1 84.6-72.7 87.7z" fill="#fff"/><path d="m104 132.5c-26 10.1-66 24.3-87.8 30.5-1.1.3-1.8 1.5-1.4 2.6.3.9 1.1 1.5 2 1.5.2 0 .4 0 .6-.1 22-6.3 62.1-20.5 88.2-30.7.5-.2.9-.6 1.2-1.1.2-.5.2-1.1 0-1.6-.4-1-1.7-1.5-2.8-1.1zm-45.4-110.3c-.4-.4-1-.5-1.5-.5-.6 0-1.1.3-1.4.7-20.9 24.5-49.3 62.5-50.6 65.1-.1 0-.1.1-.1.2 0 0 0 .1-.1.1v.1.1.1.2.2.2.2.2c-.2.7-.3 1.6-.5 2.8l-.4 3.1c-.1.5-.1 1-.2 1.5l-.2 1.4c-1.6 15-3.4 41.8-3.4 59.1 0 1.2.9 2.1 2.1 2.1s2.1-1 2.1-2.1c0-17.1 1.8-43.8 3.4-58.6l.2-1.4c.1-.5.1-1 .2-1.4l.4-3c.2-1.1.3-1.9.4-2.5 0-.1 0-.1 0-.1l.1-.4v-.1c1.4-2.5 29.2-39.8 50-64.1.5-1.1.4-2.4-.5-3.2zm86.2 29.5c0-2-.2-2.8-.4-3.3v-.1-.1c-.3-.7-.9-2-10.3-9.8-5.4-4.4-12.6-10-20.2-15.8-8.7-6.6-29.5-22-33.5-22.6-2-.3-4.9 1-12.2 8.5-.4.5-.6 1-.6 1.5 0 .6.2 1.1.6 1.5s.9.6 1.5.6 1.1-.2 1.5-.6c6.1-6.2 8.2-7.1 8.6-7.2.5.2 2.6 1.1 10.7 6.7 5.7 3.9 13 9.2 20.6 15 18.7 14 28.4 22.5 29.4 24 0 .2.1.7.1 1.9v.1c.3 4.9.6 13.2.2 20.7-.4 9.1-1.6 15.4-3.3 17.2-.3.3-.5.7-.5 1.2-1.7 14.1-3.4 27.3-3.8 29.3-.1.5 0 1.1.3 1.6s.8.8 1.4.9h.4c1 0 1.9-.7 2.1-1.7.4-2 2-14.5 3.7-29 5.6-7.7 4-37 3.7-40.5z" fill="#934a19"/></svg>