<svg enable-background="new 0 0 165.2 166.7" viewBox="0 0 165.2 166.7" xmlns="http://www.w3.org/2000/svg"><path d="m102.7 66.8s4.3 10.5-3.8 22.4c5.6-2.3 9.2-7.7 9.2-7.7s1.4-5.8.4-9.8c-1.3-2.9-5.8-4.9-5.8-4.9zm-34.8 33.1c3.3 4.2 10.8 4.2 10.8 4.2s.4-1.4 1.4-3c-3.5.6-12.2-1.2-12.2-1.2zm22.4-96.5c-21.1 0-43.2 8.8-60.4 26-18.9 18.7-27.6 43.4-25.8 66.2v.3c0 .3.1.6.1 1 0 .2 0 .4.1.6 0 .3.1.5.1.8l.1.5c0 .4.1.7.1 1.1 0 .2 0 .4.1.5 0 .3.1.6.1.9 0 .2.1.4.1.6 0 .1 0 .2.1.3-1.8-23.8 7.3-49.4 26.8-69 27.1-27 65.7-34.1 95-19.9-11-6.7-23.5-9.9-36.5-9.9z" fill="#fff"/><path d="m158.5 98.9c-13.2 5.5-9.2 21.8-12.8 30.6s-13.6 12.4-17.2 11.6-8.8 0-12.8 11.2c-.6 1.8-1.3 3.5-2 5.1 8.7-4.4 17.1-10.3 24.5-17.8 12.8-12.8 21.1-28.2 24.8-43.9-1.3 1.4-2.8 2.5-4.5 3.2zm-104.5 56.6c-7.1 1.2-14.2.2-20.8-1.9 16 11.5 36.3 15.3 56.3 11.8.4-.1.7-.1 1.1-.2-10.9-2.2-14.5-13.5-36.6-9.7z" fill="#f2b666"/><path d="m108.6 71.6c-.2-.3-.5-.5-.7-.8-9.4-9.4-25.7-8.4-36.3 2.2-6.8 6.8-9.6 15.8-8.4 23.9-8.6-9.5-7.4-25.2 2.9-35.5 10.6-10.6 26.9-11.6 36.3-2.2 3.4 3.4 5.5 7.8 6.2 12.4z" fill="#db841d"/><path d="m145.1 26.3c-4.7-4.7-9.9-8.6-15.5-11.6-29.2-13.4-67.2-6.1-93.8 20.5-33.3 33.2-36.3 83.9-6.9 113.3 2.1 2.1 4.3 4 6.5 5.7 6 1.6 12.3 2.3 18.6 1.2 12.1-2.1 18.7.4 23.9 3.4 3.7 1.5 6.6 3.6 9.5 5.4 1 .4 2 .7 3.1.9.6.1 1.2.2 1.9.3 7 .7 11.2-1.4 14.1-4.9 2.2-2.7 3.7-6.3 5.1-10.3 4-11.2 9.2-12 12.8-11.2s13.6-2.8 17.2-11.6-.4-25.1 12.8-30.6c5.4-2.2 8.8-8.6 10.6-16.4 1.1-20-5.5-39.6-19.9-54.1zm-40.9 71.2c-9.4 9.4-23 11.2-32.6 5.2-1.3-.8-2.5-1.8-3.7-2.9-9.4-9.4-8.4-25.7 2.2-36.3 8.1-8.1 19.5-10.6 28.6-7.1 2.8 1.1 5.4 2.7 7.7 4.9 9.4 9.3 8.5 25.5-2.2 36.2z" fill="#f779aa"/><path d="m78 158.9c-4.7-2-10.7-3-19.9-1.4-7.1 1.2-14.2.2-20.8-1.9-.6-.4-1.2-.9-1.9-1.4 6 1.6 12.3 2.3 18.6 1.2 12.1-2 18.7.5 24 3.5zm57.2-140.7c-.1 0-.1-.1-.2-.1.1 0 .1 0 .2.1zm-47.7 146.1c1 .4 2 .7 3.1.9-.4.1-.7.1-1.1.2-.6-.3-1.3-.7-2-1.1zm77.6-83.8c-.2 5.1-1 10.1-2.1 15.2-1.3 1.4-2.8 2.5-4.5 3.2-13.2 5.5-9.2 21.8-12.8 30.6s-13.6 12.4-17.2 11.6-8.8 0-12.8 11.2c-.6 1.8-1.3 3.5-2 5.1-2.3 1.2-4.7 2.2-7.1 3.2 2.2-2.7 3.7-6.3 5.1-10.3 4-11.2 9.2-12 12.8-11.2s13.6-2.8 17.2-11.6-.4-25.1 12.8-30.6c5.4-2.2 8.8-8.6 10.6-16.4z" fill="#db841d"/><path d="m150.8 47.6c2.6-14.2-16.3-12-15.6-29.4-.1-.1-.2-.1-.3-.2-.7-.5-1.5-1-2.2-1.4-.3-.2-.5-.3-.7-.4s-.5-.3-.7-.4c-.3-.1-.5-.3-.8-.4l-.8-.4-.8-.4c-.2-.1-.5-.3-.7-.4-.3-.1-.5-.3-.8-.4-.8-.4-1.6-.8-2.3-1.1-1.1-.5-2.1-.9-3.2-1.3-.8-.3-1.6-.6-2.4-.9-.5-.2-1.1-.4-1.6-.5-.3-.1-.5-.2-.8-.3s-.5-.2-.8-.3c-.5-.2-1-.3-1.5-.4-.1 0-.1 0-.2 0-.3-.1-.5-.2-.8-.2-.2-.1-.5-.1-.7-.2l-.2-.1c-.2-.1-.5-.1-.7-.2-.3-.1-.6-.1-.8-.2-.3-.1-.5-.1-.7-.2-.3-.1-.6-.1-1-.2-.2 0-.4-.1-.7-.1-.1 0-.3 0-.4-.1-.2 0-.4-.1-.7-.1s-.6-.1-.9-.1-.6-.1-.9-.1l-.8-.1h-.1c-.2 0-.5-.1-.7-.1-.5-.1-1.1-.1-1.6-.2-.2 0-.3 0-.4 0l-.6-.1c-.2 0-.3 0-.5 0s-.5 0-.7-.1c-.2 0-.4 0-.5 0-.2 0-.4 0-.6 0s-.4 0-.6 0-.4 0-.5 0-.4 0-.5 0h-.3c-.1 0-.2 0-.4 0s-.4 0-.6 0c-.3 0-.7 0-1 0h-.8c-.7 0-1.4 0-2.1 0s-1.4 0-2.1.1c-.4 0-.7 0-1 .1-.2 0-.5 0-.7 0s-.3 0-.5 0c-.3 0-.6 0-.9.1-.3 0-.5.1-.8.1-.1 0-.2 0-.3 0s-.1 0-.2 0c-8.2.9-16.4 2.9-24.3 6.3-.3.1-.6.3-.9.4-.4.2-.7.3-1.1.5l-.8.4c-.2.1-.5.2-.7.3s-.4.2-.7.3c-.6.3-1.2.6-1.9.9-.2.1-.4.2-.7.4-.2.1-.3.2-.5.3-.3.2-.6.3-.9.5s-.6.4-1 .5c-.3.2-.6.4-1 .5-.3.2-.6.4-1 .6-.3.2-.6.4-1 .6-.3.2-.6.4-1 .6-.6.4-1.3.8-1.9 1.2s-1.2.8-1.9 1.3c-1.2.9-2.5 1.8-3.7 2.7-.6.4-1.2.9-1.8 1.4-.1.1-.2.2-.3.3-.2.2-.4.4-.6.5-2.4 2-4.7 4.1-7 6.3l-.7.2c-4.8 4.9-9 10.3-12.5 15.9v.1c-2.5 3.9-4.6 8-6.4 12.2-2.7 6.1-4.6 12.4-5.8 18.7v.1c-.1.2-.2.6-.2.8l-.2 1.1c-.2.9-.3 1.8-.4 2.7 0 .3-.1.6-.1 1 0 .3-.1.6-.1.9s-.1.5-.1.8v.3c0 .3-.1.5-.1.8v.9.5.3.8.2.7.3.6.4.2.8 2.5c0 .9 0 1.7.1 2.6v.5l.1.9c0 .4.1.8.1 1.3l.1.7.1.6c.1.5.1 1.1.2 1.6 0 .2.1.5.1.7 0 .3.1.6.1.8s.1.4.1.7l.1.4c0 .2.1.4.1.7l.1.6c0 .2.1.4.1.5 0 .2.1.4.1.5.1.3.1.5.2.8s.1.6.2.8.1.5.2.7c.1.4.2.7.3 1.1.1.3.1.5.2.8l.2.9c.1.3.1.5.2.8l.2.8c2.7 1.2 5.7 1.9 9 2.4 24.4 3.2 7 20.2 23.3 27.7 20.8 9.6 30.9 3.5 40.8-7.5s26.9-4.2 40.5-9.9 12-27.2 16.4-33.4 15.5-7.4 18.8-25.1c2.2-14-8.8-9.6-6.2-24zm-50.6 47.9c-10.6 10.6-26.9 11.6-36.3 2.2s-8.4-25.7 2.2-36.3 26.9-11.6 36.3-2.2 8.4 25.6-2.2 36.3z" fill="#f779aa"/><path d="m157 42.5c.3.5.5 1 .8 1.5.6 1.2 1.2 2.4 1.7 3.7.1.2.1.3.2.5.2.4.4.9.5 1.4.2.5.4 1.1.6 1.6.3.8.6 1.6.8 2.4.6 1.9 1.2 3.8 1.6 5.8.1.6.3 1.1.4 1.7.2 1.1.4 2.3.6 3.4.1.6.2 1.1.3 1.7.6 4.7.8 9.5.6 14.3-1.8 7.8-5.3 14.2-10.6 16.4-13.2 5.5-9.2 21.8-12.8 30.6s-13.6 12.4-17.2 11.6-8.8 0-12.8 11.2c-1.4 3.9-2.9 7.5-5.1 10.3-2.9 3.6-7.1 5.6-14.1 4.9-.6-.1-1.2-.2-1.8-.3-10.9-2.2-14.6-13.5-36.6-9.7-7.1 1.2-14.2.2-20.8-1.9l-.6-.5c-.2-.1-.3-.2-.5-.3-.5-.4-1-.7-1.4-1.1-.2-.1-.3-.2-.4-.4l-1.3-1.1c-.2-.1-.3-.3-.4-.4s-.3-.2-.4-.3c-.2-.2-.4-.4-.6-.6l-.6-.5s-.1-.1-.2-.1c-.2-.2-.4-.3-.5-.5 0 0-.1-.1-.1-.1-.2-.2-.4-.3-.5-.5l-.1-.1c-.2-.2-.4-.4-.6-.6s-.4-.4-.6-.6c-.1-.1-.2-.2-.3-.3-.2-.2-.4-.4-.5-.5l-.1-.1c-.2-.2-.4-.4-.5-.6 0 0-.1-.1-.1-.1-.1-.1-.2-.2-.3-.3s-.2-.2-.3-.4c-.1-.1-.2-.2-.3-.3-.2-.2-.4-.4-.5-.6-.2-.2-.4-.4-.5-.6 0 0 0-.1-.1-.1-.1-.1-.2-.3-.3-.4s-.2-.3-.3-.4-.2-.2-.2-.3l-.4-.5c-.3-.4-.6-.8-.9-1.2-.2-.2-.4-.5-.5-.7l-.6-.8c-.2-.2-.3-.4-.5-.7-.1-.2-.2-.3-.3-.5-.1-.1-.2-.3-.3-.4l-.6-1c-.1-.1-.2-.3-.2-.4-.1-.2-.2-.3-.3-.5 0-.1-.1-.2-.1-.2-.1-.2-.3-.4-.4-.7-.2-.3-.4-.6-.5-.9-.1-.1-.2-.3-.2-.4-.1-.2-.3-.4-.4-.7-.2-.3-.3-.6-.4-.9 0 0-.1-.1-.1-.1-.1-.3-.3-.5-.4-.8 0 0 0-.1-.1-.1-.1-.2-.3-.5-.4-.7-.2-.4-.4-.8-.5-1.1s-.2-.5-.4-.7c-.1-.1-.1-.3-.2-.4s-.1-.2-.2-.4-.1-.3-.2-.5c-.1-.3-.3-.7-.4-1-.1-.2-.2-.5-.3-.7 0-.1 0-.1-.1-.2-.1-.3-.2-.6-.4-.9 0 0 0 0 0-.1-.1-.3-.2-.6-.3-.9v-.1c-.1-.2-.2-.4-.2-.6-.1-.2-.1-.3-.2-.5l-.5-1.6c0-.1-.1-.3-.1-.4s-.1-.3-.1-.4-.1-.2-.1-.3c2.7 1.2 5.7 1.9 9 2.4 6.3.8 9.9 2.6 11.9 4.9 1.6 1.9 2.3 4.1 2.7 6.4.7 4.3.4 9.1 3.8 12.9 0 0 0 .1.1.1 1.2 1.3 2.7 2.4 4.9 3.4 18.6 8.5 28.6 4.6 37.5-4.1l.3-.3.2-.2.6-.6c.2-.2.4-.4.5-.5l.1-.1c.2-.2.3-.3.4-.5.4-.4.7-.8 1.1-1.2 9.9-11 26.9-4.2 40.5-9.9s12-27.2 16.4-33.4 15.5-7.4 18.8-25.1c2.6-14.3-8.4-9.9-5.7-24.3 2.6-14.2-16.3-12-15.6-29.4.2.2.4.3.6.4.2.2.4.3.6.4.8.6 1.6 1.2 2.4 1.8.3.2.5.4.8.6.2.2.4.3.5.4 0 0 0 0 .1.1.2.2.4.4.6.5.2.2.4.4.6.5.2.2.4.3.5.4.6.6 1.2 1.1 1.9 1.7.2.2.4.4.6.5.2.2.4.4.6.6.8.8 1.7 1.7 2.5 2.6.4.4.8.9 1.2 1.3 1 1.1 1.9 2.3 2.8 3.4l.8 1.1" fill="#ef6fa3"/><path d="m150.8 47.6c2.6-14.2-16.3-12-15.6-29.4-.3-.2-.6-.4-.9-.6-.2-.1-.4-.3-.7-.4l-.6-.4c-.3-.2-.5-.3-.7-.4l-.3-.2-.6-.4s-.1-.1-.1-.1c-.2-.1-.3-.2-.5-.3-.8-.4-1.5-.8-2.3-1.2-.1-.1-.2-.1-.3-.2-.1 0-.2-.1-.3-.1s-.2-.1-.3-.1-.2-.1-.3-.1c-.1-.1-.2-.1-.3-.2-.2-.1-.3-.2-.5-.2-.3-.1-.5-.3-.8-.4-.2-.1-.5-.2-.7-.3l-.6-.3c-.1 0-.1-.1-.2-.1-.2-.1-.4-.2-.6-.3 0 0-.1 0-.1-.1-.2-.1-.5-.2-.7-.3-.1 0-.2-.1-.2-.1-6.7 4.1-12.4 11.2-9.5 23.6 4.2 18.3 4.3 35.2-4.7 46.5-1.2 5-3.8 9.9-7.9 14-6.1 6.1-14 9-21.5 8.6-4 11.3 1.7 26.3-9.5 33-12.6 7.6-15.8-11.3-40.6-12.3 1.7 1.9 2.3 4.1 2.7 6.4.7 4.3.4 9.1 3.8 12.9 0 0 0 .1.1.1 1.2 1.3 2.7 2.4 4.9 3.4 19.3 8.9 29.4 4.3 38.6-5.2.7-.7 1.4-1.5 2.1-2.3 9.9-11 26.9-4.2 40.5-9.9s12-27.2 16.4-33.4 15.5-7.4 18.8-25.1c2.4-14.1-8.6-9.7-6-24.1z" fill="#ffb6cd"/><path d="m112.9 35c4.2 18.3 4.3 35.2-4.7 46.5 1.9-8.1.1-16.5-5.7-22.3-9.4-9.4-25.7-8.4-36.3 2.2-10.7 10.6-11.7 26.9-2.3 36.3 4 4 9.3 6.1 14.8 6.4-4 11.3 1.7 26.3-9.5 33-12.6 7.6-15.8-11.3-40.6-12.3-2-2.3-5.5-4-11.9-4.9-3.3-.4-6.3-1.2-9-2.4l-.2-.8c-.1-.3-.1-.5-.2-.8l-.2-.9c-.1-.3-.1-.5-.2-.8-.1-.4-.2-.7-.3-1.1-.1-.2-.1-.5-.2-.7-.1-.3-.1-.6-.2-.8-.1-.3-.1-.5-.2-.8 0-.2-.1-.4-.1-.5 0-.2-.1-.4-.1-.5l-.1-.6c0-.2-.1-.4-.1-.7l-.1-.4c0-.2-.1-.4-.1-.7s-.1-.6-.1-.8-.1-.5-.1-.7c-.1-.5-.1-1.1-.2-1.6l-.1-.6.1-.7c0-.4-.1-.8-.1-1.3l-.1-.9c0-.2 0-.4 0-.5 0-.9-.1-1.7-.1-2.6v-.4-.5-1.6c0-.3 0-.5 0-.8v-.2c0-.2 0-.3 0-.4 0-.2 0-.4 0-.6 0-.1 0-.2 0-.3 0-.3 0-.5 0-.7 0-.1 0-.2 0-.2 0-.3 0-.5 0-.8 0-.1 0-.2 0-.3 0-.2 0-.4 0-.5 0-.3 0-.5.1-.8 0-.3 0-.5.1-.8 0-.1 0-.2 0-.3 0-.3 0-.5.1-.8 0-.3.1-.6.1-.9s.1-.6.1-1c.1-.9.3-1.8.4-2.7l.4-1.2c.1-.3.1-.6.2-.9v-.1c1.1-1.4 5.1-2 6.1-3.6 3.6-5.6.5-12.3-.4-15.1 2-4.1 3.9-8.1 6.4-12.2 0 0 0 0 0-.1 3.1-5 7-10.2 12.5-15.9.3-.3.5-.6.8-.8 2.2-2.2 4.6-4.3 7-6.3.2-.2.4-.4.6-.5.1-.1.2-.2.3-.3.6-.5 1.2-.9 1.8-1.4 1.2-.9 2.5-1.8 3.7-2.7.6-.4 1.2-.9 1.9-1.3.6-.4 1.3-.8 1.9-1.2.3-.2.6-.4 1-.6.3-.2.6-.4 1-.6.3-.2.6-.4 1-.6.3-.2.6-.4 1-.5.3-.2.6-.4 1-.5.3-.2.6-.3.9-.5.2-.1.3-.2.5-.3s.4-.2.7-.4c.6-.3 1.2-.6 1.9-.9.2-.1.4-.2.7-.3.2-.1.5-.2.7-.3l.8-.4c.4-.2.7-.3 1.1-.5.3-.1.6-.3.9-.4 3-.1 6-.3 9-.8 5-.8 10.1-3.3 15.3-5.5h.2.3c.3 0 .5-.1.8-.1s.6-.1.9-.1h.5.7c.4 0 .7 0 1-.1.7 0 1.4-.1 2.1-.1h2.1.8 1 .6.4.3.5.5.6.6.5c.2 0 .4 0 .7.1h.5l.6.1h.4c.5.1 1.1.1 1.6.2.2 0 .5.1.7.1h.1l.7.5c.3 0 .6.1.9.1s.6.1.9.1c.2 0 .4.1.7.1.1 0 .3 0 .4.1.2 0 .4.1.7.1.3.1.6.1 1 .2.3.1.5.1.7.2.3.1.6.1.8.2s.5.1.7.2l.2.1c.2.1.5.1.7.2.3.1.5.1.8.2h.2c.5.1 1 .3 1.5.4.3.1.5.2.8.3s.5.2.8.3c.5.2 1.1.4 1.6.5.8.3 1.6.6 2.4.9.2.1.4.2.6.2-6.7 4.1-12.4 11.2-9.5 23.6z" fill="#ffb6cd"/><path d="m61.5 32.5c3.6 9.3-13.5 23.9-19.5 25.1s-12.4-4-2.1-18.5c4.3-6.2 19.1-13.2 21.6-6.6z" fill="#ffd4e4"/><path d="m156.5 71.8c-3.3 17.7-14.4 18.9-18.8 25.1s-2.8 27.7-16.4 33.4-30.6-1.1-40.5 9.9c-.7.8-1.4 1.5-2.1 2.3-9.2 9.5-19.2 13.9-38.6 5.2-2.2-1-3.7-2.1-4.9-3.4 0 0 0-.1-.1-.1-3.1-3.7-2.9-8.3-3.8-12.9-.4-2.2-1.2-4.4-2.7-6.4 24.8.9 28 19.8 40.6 12.3 11.2-6.7 5.5-21.7 9.5-33 1.7-4.9 5.3-9.2 12.9-11.7 7.4-2.5 12.8-6.2 16.6-10.9 9.1-11.3 9-28.1 4.7-46.5-2.9-12.4 2.8-19.5 9.5-23.6.1 0 .2.1.2.1.3.1.5.2.7.3 0 0 .1 0 .1.1.2.1.4.2.6.3.1 0 .1.1.2.1l.6.3c.2.1.5.2.7.3.3.1.5.3.8.4.2.1.3.2.5.2.1.1.2.1.3.2.1 0 .2.1.3.1s.2.1.3.1.2.1.3.1c.1.1.2.1.3.2.8.4 1.5.8 2.3 1.2.2.1.4.2.6.4l.6.4.3.2c.3.2.5.3.7.4l.6.4c.2.1.4.3.7.4.3.2.6.4.9.6-.7 17.4 18.2 15.2 15.6 29.4-2.4 14.3 8.6 9.9 5.9 24.1z" fill="#ff99be"/><path d="m107.6 145.4c-1.2-.5-2.5.2-3.4.8-.2.1-.4.3-.6.3-1.1.5-2.2 1-3.4 1.5-.1 0-.2.1-.3.1-.4.1-.7.3-1.1.5-.4.3-.6.6-.9.9-.1.1-.2.2-.3.3-.6.6-1.2 1.1-1.8 1.5-2.5 1.7-5.9 2.2-10 1.6-1.7-.2-3.3.1-4.9.4-.7.1-1.3.3-2 .3-2.5.3-5 .5-7.5.5-4.7.1-9.5-.3-14-1.1-15.3-2.7-29-10.6-38.5-22.3-.1-.1-.2-.3-.4-.5-.7-1-1.6-2.3-2.9-2.4-.4 0-1.1.1-1.6.7-1.3 1.5.1 3.1.8 3.8.1.1.2.3.3.4 1 1.2 2 2.4 3 3.5.6.7 1.3 1.4 1.9 2l.4.4c.2.2.3.3.4.5.4.4.9 1 1.5 1.3.4.4.8.7 1.2 1 .6.4 1.1.9 1.6 1.4l.1.1.1.1c.4.2.8.5 1.2.9.3.2.5.4.8.6 1.2.9 2.4 1.8 3.7 2.5 2.4 1.6 5 3 7.5 4.2 5.3 2.6 11.1 4.4 17.1 5.6 4.6.9 9.5 1.4 14.3 1.4 1.7 0 3.4-.1 5.2-.2 1.5-.1 3.1-.3 4.8-.5.7-.1 1.4-.2 2.1-.4.9-.2 1.8-.3 2.7-.4.3 0 .7 0 1.1.1l.8.1c.8.1 1.7.1 2.5.1 1.6 0 3.2-.2 4.6-.5 1.6-.4 3.1-1 4.4-1.8.7-.4 1.3-.9 2-1.5.2-.2.4-.4.7-.7s.6-.6.8-.8c.8-.5 1.8-.8 2.7-1.2.7-.3 1.4-.6 2.1-.9.1-.1.3-.1.4-.2.7-.3 1.5-.6 2-1.3.4-.5.4-1.1.3-1.7-.3-.2-.8-.7-1.5-1zm50.8-74.8c0-3.3-.2-6.2-.4-9-.1-1.2-.3-2.5-.5-3.7v-.3c-.1-.6-.2-1.2-.4-1.9l-.1-.5c0-.2-.1-.4-.2-.6-.1-.3-.2-.6-.2-.9v-.1-.1c-.5-3.1-1.6-6.2-2.6-8.9-1.1-3.1-2.6-6.3-4.5-9.8-2.9-5.2-6.7-10.2-11.3-14.9-1.4-1.4-3.1-3.1-4.9-4.4-.8-.6-1.5-1.2-2.3-1.8-1-.8-2.1-1.7-3.3-2.4-5.4-3.5-11.3-6.3-17.5-8.2-12.7-3.8-26.7-4.1-40.5-.9-13.2 3.1-26 9.5-36.8 18.5-10.3 8.5-18.7 19.2-24.3 30.9-6.2 12.9-9.2 27.1-8.5 41 .2 2.9.4 5.8.9 8.6.1.5.2.9.3 1.4l.1.3c0 .1 0 .2.1.3.1.6.2 1.3.7 1.8.4.5 1 .7 1.6.7.4 0 .9-.1 1.3-.4 1.1-.8.8-2 .8-2.4-1.2-6.4-1.6-12.2-1.3-17.7.4-13.2 4.5-26.5 11.6-38.4 6.7-11.2 16-20.9 26.9-28.2 11.7-7.9 25-12.7 38.5-14s26.6 1.1 37.9 6.8c1.4.7 2.7 1.4 4 2.2.3.2.7.4 1 .7.6.4 1.3.9 2 1.2l.2.1c.1.1.3.3.4.3.1.1.2.2.4.3.4.3.9.6 1.3 1l.7.5c.7.5 1.4 1 2 1.6l.1.1c4.2 3.7 7.6 7.3 10.2 11 3.5 4.8 6.2 9.9 8.2 15.3 4.3 11.5 5.3 24.5 3 37.6-.2 1-.4 1.9-.6 2.9-.1.4-.2.7-.2 1.1-.2.8 0 1.6.4 2.1s1 .7 1.6.7c.8 0 1.5-.5 1.9-1.3.4-.9.6-2 .8-3 .1-.3.1-.7.2-.9 1-5 1.4-9.7 1.4-14.2z" fill="#934a19"/><path d="m97.9 84.6c.4.6 1.1 1 1.8 1 1.7 0 2.2-1.7 2.6-2.6 0-.1.1-.3.1-.4.9-2.2 1.4-4.6 1.7-6.9.5-4.3-.1-8.7-1.7-12.6-.8-2-1.9-3.9-3.3-5.6-.1-.1-.2-.3-.3-.4-.5-.7-1.2-1.6-2.1-2-.8-.3-1.7-.2-2.3.4s-.8 1.5-.5 2.3c.2.5.5.8.8 1.1.1.1.2.1.2.2.4.4.7.8 1.1 1.3.4.6.9 1.2 1.3 1.9 1.1 1.8 1.8 3.8 2.2 5.9.9 4.6.3 9.6-1.8 14.3-.2.7-.2 1.5.2 2.1zm-35.3-23.9c4.5-4.5 10.5-7.3 16.5-7.6h.6c1.1 0 3.4.1 3.6-1.9.1-.9-.2-1.4-.5-1.7-.9-.9-2.6-.8-3.7-.7-.1 0-.3 0-.4 0-3.2.2-6.3.9-9.3 2.2-5.6 2.3-10.5 6.5-13.9 11.7-3.5 5.4-5.2 11.4-4.9 17.5.4 6.1 2.9 11.7 7.2 15.9 4.3 4.1 10.2 6.4 16.6 6.4.8 0 1.6 0 2.4-.1 1.9-.2 3.7-.5 5.5-1.1 1.1-.3 2-.6 2.7-1 1.7-.7 1.7-2 1.6-2.5-.2-.9-.6-1.3-1-1.5-1-.5-2.3 0-3.2.4-.2.1-.4.2-.5.2-1.3.4-2.6.8-3.9 1-6.3 1-12.4-.6-16.7-4.4-4-3.5-6.3-8.5-6.5-14.1-.2-5.3 1.6-10.8 4.7-15.2 1.1-1.3 2.1-2.4 3.1-3.5z" fill="#934a19"/><path d="m130.8 46.1c-1.3.7-2.9.3-3.7-1l-5.4-9.3c-.7-1.3-.3-2.9 1-3.7 1.3-.7 2.9-.3 3.7 1l5.4 9.3c.7 1.3.3 3-1 3.7z" fill="#f9cb40"/><path d="m71 30.7c-.7-1.3-.3-2.9 1-3.7l9.3-5.4c1.3-.7 2.9-.3 3.7 1 .7 1.3.3 2.9-1 3.7l-9.3 5.4c-1.3.7-3 .3-3.7-1zm26.3 80.8c.4-1.4 1.9-2.3 3.3-1.9l10.3 2.8c1.4.4 2.3 1.9 1.9 3.3s-1.9 2.3-3.3 1.9l-10.3-2.8c-1.4-.3-2.3-1.8-1.9-3.3z" fill="#8eb23f"/><path d="m36.4 73.5c-.4 1.4-1.9 2.3-3.3 1.9l-10.3-2.8c-1.4-.4-2.3-1.9-1.9-3.3s1.9-2.3 3.3-1.9l10.3 2.8c1.4.4 2.3 1.9 1.9 3.3zm97.3-.8c.7 1.3.3 2.9-1 3.7l-9.3 5.4c-1.3.7-2.9.3-3.7-1-.7-1.3-.3-2.9 1-3.7l9.3-5.4c1.3-.7 3-.3 3.7 1z" fill="#ed4233"/><path d="m47.6 104.2c.7 1.3.3 2.9-1 3.7l-9.3 5.4c-1.3.7-2.9.3-3.7-1-.7-1.3-.3-2.9 1-3.7l9.3-5.4c1.3-.7 2.9-.3 3.7 1z" fill="#f3b00c"/></svg>