<svg enable-background="new 0 0 50 50" viewBox="0 0 50 50" xmlns="http://www.w3.org/2000/svg"><path d="m40 1h-30c-4.9 0-9 4.1-9 9v30c0 5 4.1 9 9 9h30c5 0 9-4 9-9v-30c0-4.9-4-9-9-9z" fill="#f16529"/><g fill="#fff"><path d="m17.4 12.7h1.2v1.3h1.4v-4h-1.4v1.3h-1.2v-1.3h-1.4v4h1.4z"/><path d="m22.2 14h1.3v-2.7h1.2v-1.3h-3.7v1.3h1.2z"/><path d="m26.8 12 .9 1.5.9-1.5v2h1.4v-4h-1.4l-.9 1.4-.9-1.4h-1.4v4h1.4z"/><path d="m34 12.7h-1.9v-2.7h-1.4v4h3.3z"/><path d="m14 16 2 22 9 2 9-2 2-22zm17.5 7h-6.5-4l.5 2h3.5 6l-1 9-5 2-5-2-.8-4h2.8l.5 2 2.5 1 2.5-1 .5-4h-3-6l-1-8h7 7z"/></g></svg>