<svg enable-background="new 0 0 199.9 181.2" viewBox="0 0 199.9 181.2" xmlns="http://www.w3.org/2000/svg"><path d="m100.7 27.6c10.8-.6 21.6.9 31.8 4.4 8.9 3 17.1 7.6 24.3 13.6 6.4 5.3 11.6 12 15.3 19.5 2.4 4.9 3.9 10.3 4.6 15.7.5 4.1.5 8.4-.9 12.4-1.3 4-3.8 7.4-7.2 9.9-4.4 3.3-9.6 5.2-14.9 6.5-8.9 2.2-18.1 3-27.2 3.8-9.7.7-19.4 1.4-29.1 2.2-6.5.5-13.1 1.2-19.6 1.4-5.9.3-11.8.2-17.7-.4-5.1-.7-10.3-1.9-14.8-4.7-3.4-2.1-6-5.2-7.6-8.8-2.2-4.8-2.6-10.2-2.4-15.5.3-11.4 4.5-22.6 11.3-31.8 8.2-11.1 20-19.3 32.9-24 6.8-2.3 14-3.7 21.2-4.2zm-6.3 19.8c-1 .1-2 .5-2.7 1.2-.9 1-1.6 2.3-2.1 3.6-1.1 3.4-1.8 6.8-2 10.4-.5 6-.3 12 .5 17.9.5 3.7 1.3 7.4 2.9 10.8.8 1.6 1.8 3.2 3.4 4 1.7.7 3.6.4 5.3 0 3.7-.8 7.2-2.4 10.6-4.2 4.5-2.4 8.8-5.1 12.9-8.3 3.2-2.5 6.4-5.2 8.8-8.6 1.1-1.6 2.3-3.6 1.6-5.6-.8-2.3-2.6-4-4.3-5.6-3.3-2.9-6.9-5.4-10.8-7.6-4.5-2.7-9.3-4.9-14.3-6.6-3.1-.9-6.5-1.8-9.8-1.4m41.5 92.4c3.8-1.4 7.4-3.2 10.6-5.8.2 5.1-1.1 10.2-3.2 14.8l-.2-.2c-1.5-1.6-3.3-3.1-4.6-5-1-1.1-1.8-2.4-2.6-3.8m-55.7 9.2c-.2-2.1-.7-4.2-.2-6.3 3.9 1.2 8 1.9 12 2.3-2.5 4.3-6.3 7.6-10.5 10.1-.1-.1-.2-.3-.3-.4-.1-1.9-.8-3.8-1-5.7" fill="#f6f8f9"/><path d="m108.1 10c4.5-4.6 10-8.3 16.2-9.9 1.1-.3 2.2.3 3.3.6 8.2 2.8 15.6 7.8 21.9 13.6 6.6 6.2 12.2 13.2 16.8 21 .3.5.6 1 .8 1.5-6.1-6.8-12.1-13.8-19.2-19.7-5.8-4.8-12.4-8.8-19.3-11.8-.8-.3-1.6-.9-2.5-.9-6.3.6-12.3 2.8-18 5.6m-70.2-8.5c11.7 1.4 23.2 4.4 33.6 10.1.8.4 1.6.8 2.3 1.3-1.6-.4-3.2-1.1-4.8-1.5-8.7-2.6-17.7-4.4-26.7-4.1-.7.1-1.5-.1-2 .6-2.8 2.8-4.7 6.2-6.6 9.6-3.9 7.5-7.1 15.3-9.7 23.3-.7 2.1-1.3 4.2-2 6.4 1.2-14.5 6.1-28.6 13.2-41.3.9-1.5 1.7-3 2.7-4.4m41.4 25.2c19.4-6.6 41.2-5.4 60.1 2.5 7.8 3.3 15.1 7.7 21.5 13.3 6.7 5.8 12.1 12.9 15.9 20.9 2.1 4.6 3.7 9.5 4.5 14.5 1.1 6.5 1 13.5-1.8 19.6-.4.9-.9 1.9-1.5 2.6-.5 1.2-1.4 2.1-2.1 3.1-4.7 5.5-11.6 8.7-18.4 10.7-9.9 2.8-20.2 3.7-30.4 4.6-7.1.5-14.3 1-21.4 1.6-12.3 1-24.7 2.4-37.1 2.3-5.1 0-10.1-.6-15-1.6-3.9-.8-7.6-2.3-11-4.4-3.8-2.4-6.8-5.8-8.9-9.8-2.7-5.2-3.6-11.2-3.5-17 0-12.4 4.1-24.8 11.2-34.9 9.2-13.3 22.9-22.9 37.9-28zm21.4.9c-7.2.4-14.4 1.9-21.2 4.4-12.9 4.7-24.7 12.9-32.9 24-6.9 9.2-10.8 20.3-11.3 31.8-.2 5.2.2 10.6 2.4 15.5 1.6 3.6 4.3 6.7 7.6 8.8 4.4 2.8 9.6 4 14.8 4.7 5.9.7 11.8.7 17.7.4 6.6-.3 13.1-.9 19.6-1.4 9.7-.9 19.4-1.5 29.1-2.3 9.1-.8 18.3-1.6 27.2-3.8 5.3-1.3 10.5-3.2 14.9-6.5 3.3-2.5 5.9-6 7.2-9.9 1.3-4 1.3-8.3.8-12.4-.7-5.4-2.2-10.7-4.6-15.7-3.7-7.5-8.9-14.2-15.3-19.5-7.2-6-15.4-10.6-24.3-13.6-10.1-3.6-20.9-5.1-31.7-4.5" fill="#954607"/><path d="m94.4 47.4c3.4-.4 6.7.5 9.9 1.5 5 1.7 9.7 3.9 14.3 6.6 3.8 2.2 7.5 4.7 10.8 7.6 1.7 1.6 3.5 3.4 4.3 5.6.6 2-.5 4-1.6 5.6-2.4 3.3-5.6 6-8.8 8.6-4 3.1-8.4 5.9-12.9 8.3-3.4 1.8-6.9 3.2-10.6 4.2-1.7.3-3.6.6-5.3 0-1.7-.7-2.7-2.4-3.4-4-1.6-3.4-2.3-7.1-2.8-10.8-.8-5.9-1-12-.5-17.9.3-3.5.8-7 2-10.4.4-1.3 1.1-2.6 2.1-3.6.5-.8 1.5-1.2 2.5-1.3m84 52.8c.3-.2.5-.5.9-.5 6.8-.3 13.7.4 20.4 1.8.1 1 .2 2.1.3 3.2.2 5.2-.1 10.4-1 15.5-4.2-5.5-9-10.5-14.2-15-2.2-1.7-4.2-3.6-6.4-5m-170.5 16.2c8.5-4 17.7-6.5 27.1-7.4-.6.7-1.2 1.3-1.8 1.9-9.2 9.5-16.5 20.7-21.4 32.9-5-7.2-8.5-15.3-10.3-23.8 2-1.3 4.2-2.5 6.4-3.6m155.2 7.9c5 .3 9.9 1.4 14.5 3.4 5.3 2.2 10.1 5.4 14.4 9.2.4.4.9.7 1 1.3-4 7.7-9.4 14.6-16.1 20.1-1-5-2-10-3.6-14.9-2.2-6.9-5.2-13.7-10.2-19.1m-17.1 2c1.1-.8 2.7-.6 3.5.5.1.2.2.3.3.5.6 1.7-.3 3.4-1.3 4.7.8 6.7-1.1 13.3-3.8 19.3-4.7-1-9-3.1-12.8-6.1-1.2-.9-2.2-2-3.3-3.1-11.1 2.7-22.6 3.8-34.1 3-3 5.6-8 9.8-13.4 12.8-4.6-5.4-7.6-11.9-8.9-18.9-1.2-1-2.4-2-3-3.5-.2-1 .7-2 1.6-2.3 1-.4 2.3-.6 3 .3 1.3 1.6 3.2 2.4 5 3.2 5.8 2.2 12 3 18.2 3.3 9.4.4 18.8-.4 28-2.5 5.4-1.3 10.8-2.9 15.6-5.8 1.6-1 3.2-2 4.2-3.5.3-.4.4-1.4 1.2-1.9zm-10.1 13.5c-1.6.6-3.3 1.1-4.9 1.7 3.4 3.3 7.5 5.9 12.1 7.1l.2.2c2.1-4.6 3.4-9.7 3.2-14.8-3.2 2.5-6.8 4.5-10.6 5.8zm-61.2.8c1.2 5.1 3.3 10 6.6 14.1l.3.4c4.2-2.5 8-5.9 10.5-10.2-4.1-.4-8.1-1.1-12-2.3-1.9-.4-3.7-1.1-5.4-2m-39.5.9c6.1-5.4 13.4-9.1 21.3-10.8-2 3.1-3.6 6.4-4.7 9.8-3.3 9.9-4.2 20.4-4.2 30.8-9-3.6-17.3-8.7-24.6-15 3.2-5.6 7.3-10.6 12.2-14.8" fill="#954607"/><path d="m108.1 10c5.6-2.7 11.7-5 18-5.5.9.1 1.7.6 2.5.9 7 2.9 13.5 6.9 19.3 11.7 7.1 6 13.1 12.9 19.3 19.7 2 2.1 4.1 4 6 6.1 13.3 14.5 22.8 32.8 25.8 52.4.4 3.1.8 6.3.9 9.4-.1-1.1-.1-2.1-.3-3.2-6.7-1.5-13.5-2.1-20.4-1.8-.4 0-.6.3-.9.5 2.3 1.4 4.3 3.3 6.3 5 5.2 4.5 9.9 9.6 14.2 15-1 6.2-3 12.3-5.8 17.9-.1-.6-.6-.9-1-1.3-4.3-3.8-9.2-6.9-14.4-9.2-4.6-1.9-9.5-3.1-14.4-3.4 4.9 5.4 7.9 12.2 10.2 19.1 1.6 4.9 2.6 9.9 3.6 14.9-9.7 8.1-21.2 13.6-33.3 17.2-15.8 4.7-32.3 6.2-48.7 5.6-16.2-.6-32.4-3.5-47.4-9.7 0-10.4.9-20.9 4.2-30.8 1.2-3.4 2.7-6.8 4.7-9.8-7.9 1.7-15.3 5.4-21.3 10.8-4.9 4.2-9 9.2-12.2 14.8-4.2-3.7-8-7.9-11.2-12.5 5-12.2 12.2-23.4 21.4-32.9.6-.6 1.2-1.2 1.8-1.9-9.4.9-18.6 3.4-27.1 7.4-2.2 1.1-4.3 2.2-6.4 3.6-2.2-11.4-1.9-23.2.9-34.5 3.6-14.1 10.3-27.2 19.6-38.3.7-2.1 1.2-4.3 1.9-6.4 2.7-8 5.8-15.9 9.7-23.3 1.9-3.4 3.8-6.8 6.6-9.6.5-.6 1.3-.5 2-.6 9-.3 18 1.5 26.6 4.1 1.6.5 3.2 1.1 4.8 1.5.3.1.7.3 1 .2 10.7-2.9 21.7-3.9 32.7-3zm-28.8 16.7c-15.1 5.1-28.8 14.7-37.9 27.8-7.2 10.3-11.1 22.5-11.2 35 0 5.8.8 11.8 3.5 17 2 4 5.1 7.4 8.9 9.8 3.3 2.2 7.1 3.5 11 4.4 4.9 1.1 10 1.5 15.1 1.6 12.4.2 24.7-1.3 37-2.3 7.1-.6 14.2-1 21.4-1.6 10.2-.9 20.5-1.7 30.4-4.6 6.9-2 13.7-5.2 18.4-10.7.8-1 1.7-1.9 2.1-3.1.7-.8 1.1-1.7 1.5-2.7 2.8-6.1 2.9-13.1 1.8-19.6-.8-5-2.4-9.9-4.5-14.5-3.8-8-9.2-15.1-15.9-20.9-6.4-5.5-13.7-10-21.5-13.3-18.9-7.7-40.6-8.9-60.1-2.3zm66.7 99.6c-.8.5-.9 1.5-1.2 2.3-1.1 1.5-2.7 2.5-4.2 3.5-4.8 2.9-10.2 4.5-15.6 5.8-9.2 2.1-18.6 2.9-28 2.5-6.2-.3-12.4-1.1-18.2-3.3-1.8-.8-3.8-1.6-5-3.2-.7-1-2.1-.8-3-.4-.9.3-1.8 1.3-1.6 2.3.6 1.5 1.8 2.5 3 3.5 1.3 6.9 4.3 13.5 8.9 18.9 5.5-3 10.5-7.2 13.4-12.8 11.4.7 22.9-.3 34.1-3 1.1 1 2.1 2.2 3.3 3.1 3.7 3 8.1 5.1 12.8 6.1 2.7-6 4.6-12.7 3.8-19.3 1-1.3 1.9-3.1 1.3-4.7-.5-1.7-2.6-2.3-3.8-1.3" fill="#f49f17"/><path d="m131 141.5c1.6-.6 3.3-1.1 4.9-1.7.8 1.3 1.6 2.7 2.5 3.9 1.3 1.8 3.1 3.3 4.6 4.9-4.5-1.2-8.7-3.7-12-7.1zm-56.3-.9c1.7.8 3.5 1.5 5.3 2.1-.5 2.1-.1 4.2.2 6.3.2 1.9.9 3.8 1.1 5.8-3.2-4.2-5.5-9-6.6-14.2z" fill="#f3ebde"/></svg>