<svg enable-background="new 0 0 141.5 187.5" viewBox="0 0 141.5 187.5" xmlns="http://www.w3.org/2000/svg"><path d="m66.3 186.6c2.9 1.3 6.3 1.3 9.2 0l18.6-9h-45.7zm4.6-153.3c-16-.3-31.4 5.8-42.8 17-11.4 10.5-17.9 25.3-17.7 40.8-.1 2.2-.1 4.4 0 6.6v1.5c.3 1.8.7 3.6 1.3 5.4v1.4c.6 2 1.3 3.8 1.9 5.4.7 1.9 1.6 3.9 2.6 5.7 2.1 4.1 4.7 8 7.6 11.6l4.4 4.2.9.9 1.3 1.2.9.6 3 2.2h.6c1.6 1.3 3 2.9 4 4.8.7 1.5 1.6 2.8 2.7 4 1.4 1 3.1 1.4 4.8 1.2h47.5c1.7.2 3.4-.2 4.8-1.2 1.1-1.2 1.9-2.5 2.6-4 1-1.5 2.2-2.7 3.7-3.7h.6l3-2.2s0-.6.9-.6.9-1.3 1.7-1.9c1.9-1.5 3.7-3.1 5.4-4.9 1.5-1.9 2.8-3.6 4.1-5.4s2.5-3.7 3.5-5.7c1.5-2.1 2.9-4.4 4.1-6.8.6-1.6 1.3-3.4 1.9-5.4s0-.9 0-.9l.9-5.4v-1.5c.1-2.2.1-4.4 0-6.6.2-15.5-6.3-30.3-17.8-40.8-11.4-11.1-26.5-17.4-42.4-17.5zm35.9 58.2c-2.7 0-4.9-2.1-5-4.8-.1-6.8-3.2-13.3-8.6-17.5-4.6-4.4-10.8-7-17.2-7.1-2.7 0-4.8-2.2-4.8-4.8 0-2.7 2.2-4.8 4.8-4.8 9.1-.1 17.9 3.2 24.7 9.3 7.4 6.1 11.5 15.3 11.2 24.9-.1 2.7-2.3 4.9-5 4.9zm-10.1 66.9h-50.1c-2.7 0-4.8 2.2-4.8 4.8s2.2 4.8 4.8 4.8h50.1c2.7 0 4.8-2.2 4.8-4.8s-2.2-4.8-4.8-4.8zm-25.6-133c3.3 0 6.1-2.7 6.1-6.1v-11.6c.8-3.2-1-6.5-4.2-7.5-3.2-.9-6.6.9-7.5 4.2-.3 1.1-.3 2.2 0 3.3v11.6c0 3.2 2.4 5.9 5.6 6.1zm-52.1 8.6c2.4-2.3 2.4-6.2.1-8.6 0 0 0 0-.1-.1l-8.6-8.5c-2.4-2.4-6.2-2.4-8.6 0s-2.4 6.2 0 8.6l8.6 8.6c2.4 2.5 6.2 2.5 8.6 0 0 .1 0 .1 0 0zm120.8-17.1c-2.3-2.4-6.2-2.4-8.6-.1 0 0 0 0-.1.1l-8.6 8.6c-2.4 2.4-2.4 6.2 0 8.6s6.2 2.4 8.6 0l8.6-8.7c2.4-2.3 2.4-6.1.1-8.5z" fill="#feb315"/></svg>