<svg enable-background="new 0 0 174.4 200" viewBox="0 0 174.4 200" xmlns="http://www.w3.org/2000/svg"><path d="m133.9 32.3c-11.9 0-21.5 9.6-21.5 21.5s9.6 21.5 21.5 21.5 21.5-9.6 21.5-21.5c0-11.8-9.6-21.5-21.5-21.5zm-68.7-13.3c-15.6 0-28.2 12.6-28.2 28.2s12.6 28.2 28.2 28.2 28.2-12.6 28.2-28.2-12.7-28.2-28.2-28.2zm0-19c17 0 32.8 9.2 41.2 24.1 16.4-15.2 42.1-14.3 57.3 2.2 7 7.5 10.8 17.3 10.8 27.6 0 22.4-18.1 40.5-40.5 40.5-13 0-25.2-6.2-32.8-16.7-16.9 19.9-46.7 22.3-66.6 5.5-10.5-9-16.6-22.2-16.6-36 0-26.1 21.1-47.2 47.2-47.2zm-42.6 131.3c-2.5 0-4.6 2-4.6 4.5v31.2c0 2.6 2.1 4.6 4.7 4.6.7 0 1.3-.2 1.9-.4h.1l28.7-14.6v-10.3l-28.7-14.4c-.7-.4-1.4-.6-2.1-.6zm116.7-10.8h-50.5c-9.5 0-17.3 7.6-17.4 17.1v27c0 9.5 7.6 17.3 17.2 17.4h50.4c9.5 0 17.3-7.6 17.4-17.1v-26.9c.1-9.6-7.6-17.3-17.1-17.5zm.3-17.9c19.3 0 34.9 15.6 34.9 34.9v27.7c0 19.3-15.6 34.9-34.9 34.9h-51.4c-15.1 0-28.5-9.7-33.2-24l-30.6 15.3c-8.4 4.2-18.5.8-22.7-7.6-1.2-2.3-1.8-4.9-1.8-7.6v-49.7c0-9.3 7.6-16.9 16.9-16.9 2.7 0 5.3.6 7.7 1.8l30.5 15.4c4.6-14.4 18.1-24.2 33.2-24.3z" fill="#ff4906"/></svg>