<svg enable-background="new 0 0 162.4 148.7" viewBox="0 0 162.4 148.7" xmlns="http://www.w3.org/2000/svg"><path d="m53.5 107.5c-.8 0-1.6-.2-2.3-.6-1.4-.8-2.3-2.4-2.3-4v-33c0-2.6 2.1-4.7 4.7-4.6.8 0 1.6.2 2.3.6l28.6 16.5c1.4.8 2.3 2.4 2.3 4s-.9 3.2-2.3 4l-28.6 16.5c-.8.4-1.6.6-2.4.6zm53-11.3h23c-6.1 30.5-33.4 53.2-65.6 52.5-36.1-.8-64.7-30.8-63.9-66.8.8-35.3 29.4-63.3 64.3-63.9l16.6-.1-15.5 22.4c-23.3 0-42.5 18.6-43 42.1-.5 23.8 18.3 43.5 42.1 44 19.6.4 36.4-12.4 42-30.2zm2.8-17c-1.4-16.6-10.3-31.6-24.2-40.8l6.6-8.3c15.8 10.8 26.6 28.4 28.2 48.4zm21.8-2.4c-1.7-22-13.5-41.4-30.8-53.5l6.6-8.3c19.6 13.8 32.9 36 34.8 61zm20.8-3.6c-2-26.6-16-50.1-36.8-64.9l6.6-8.3c23 16.6 38.5 42.8 40.7 72.4z" fill="#ff6a00"/></svg>