<svg viewBox="0 0 512 512" xmlns="http://www.w3.org/2000/svg"><path d="m223 73.56-108.5 62.64a66 66 0 0 0 -33 57.16v125.28a66 66 0 0 0 33 57.16l108.5 62.64a66 66 0 0 0 66 0l108.5-62.64a66 66 0 0 0 33-57.16v-125.28a66 66 0 0 0 -33-57.16l-108.5-62.64a66 66 0 0 0 -66 0z" fill="#fd5e4c"/><path d="m251.17 287.8-35.17 17a11.74 11.74 0 0 1 -15.82-5.28c-1.18-2.34-1.18-4.69-1.18-7l6.45-35.17-27-24.62a11.33 11.33 0 0 1 -.59-16.41 14 14 0 0 1 7.62-4.11l38.1-5.27 17.59-32.83c2.93-5.86 10-7.62 15.82-4.69a11.93 11.93 0 0 1 4.69 4.69l17.59 32.83 38.1 5.27c6.44.59 11.13 7 10 13.48a13.35 13.35 0 0 1 -3.52 7l-27 24.62 6.45 35.17a11.44 11.44 0 0 1 -9.3 13.52 9.63 9.63 0 0 1 -7-1.17zm75-24 9.38 8.8a5.67 5.67 0 0 1 0 8.2l-.59.59a5.67 5.67 0 0 1 -8.2 0l-8.8-8.79a5.68 5.68 0 0 1 0-8.21l.59-.59c1.79-1.8 5.3-1.8 7.65-.04zm-12.31 46.9 9.38 8.79a5.68 5.68 0 0 1 0 8.21l-.59.58a5.65 5.65 0 0 1 -8.2 0l-9.38-8.79a5.66 5.66 0 0 1 0-8.21l.58-.58a7 7 0 0 1 8.24-.04zm-56.86 0 9.38 8.79a5.66 5.66 0 0 1 0 8.21l-.58.58a5.66 5.66 0 0 1 -8.21 0l-8.79-8.79a5.66 5.66 0 0 1 0-8.21l.58-.58c1.79-1.8 5.31-1.8 7.62-.04z" fill="#fff"/></svg>