<svg enable-background="new 0 0 111.2 112.4" viewBox="0 0 111.2 112.4" xmlns="http://www.w3.org/2000/svg" xmlns:xlink="http://www.w3.org/1999/xlink"><linearGradient id="a" gradientTransform="matrix(.5625 0 0 -.568 6.0901 267.0823)" gradientUnits="userSpaceOnUse" x1="-15.6738" x2="93.3426" y1="464.604" y2="370.8101"><stop offset="0" stop-color="#5a9fd4"/><stop offset="1" stop-color="#306998"/></linearGradient><linearGradient id="b" gradientTransform="matrix(.5625 0 0 -.568 6.0901 267.0823)" gradientUnits="userSpaceOnUse" x1="135.489" x2="96.5593" y1="314.0421" y2="369.1209"><stop offset="0" stop-color="#ffd43b"/><stop offset="1" stop-color="#ffe873"/></linearGradient><path d="m54.9 0c-4.6 0-9 .4-12.8 1.1-11.3 2-13.4 6.2-13.4 13.9v10.2h26.8v3.4h-26.8-10.1c-7.8 0-14.6 4.7-16.8 13.6-2.5 10.2-2.6 16.6 0 27.2 1.9 7.9 6.5 13.6 14.2 13.6h9.2v-12.2c0-8.8 7.7-16.7 16.8-16.7h26.8c7.5 0 13.4-6.1 13.4-13.6v-25.5c0-7.3-6.1-12.7-13.4-13.9-4.5-.8-9.3-1.1-13.9-1.1zm-14.5 8.2c2.8 0 5 2.3 5 5.1s-2.3 5.1-5 5.1c-2.8 0-5-2.3-5-5.1s2.2-5.1 5-5.1z" fill="url(#a)"/><path d="m85.6 28.7v11.9c0 9.2-7.8 17-16.8 17h-26.7c-7.3 0-13.4 6.3-13.4 13.6v25.5c0 7.3 6.3 11.5 13.4 13.6 8.5 2.5 16.6 2.9 26.8 0 6.8-2 13.4-5.9 13.4-13.6v-10.2h-26.8v-3.4h26.8 13.4c7.8 0 10.7-5.4 13.4-13.6 2.8-8.4 2.7-16.5 0-27.2-1.9-7.8-5.6-13.6-13.4-13.6zm-15 64.6c2.8 0 5 2.3 5 5.1s-2.3 5.1-5 5.1c-2.8 0-5-2.3-5-5.1-.1-2.8 2.2-5.1 5-5.1z" fill="url(#b)"/></svg>