<svg xmlns="http://www.w3.org/2000/svg" viewBox="0 0 154.5 166.6"><style>.st3{fill:#5a6eff}</style><path d="M63 144.9c3.3 2.5 2.7 7.6-1.1 9.3l-33.2 11.5c-3.8 1.7-8.3.9-11.2-2.1-2.2-2.2-3.6-5.4-3.4-8.8l2.5-34c.2-4.7 5.6-7.2 9.4-4.4l37 28.5z" opacity=".42" fill="#edb74b"/><path d="M60 145.6c3 2.3 2.6 6.8-.7 8.2L29.9 163c-3.4 1.3-7.4.6-10.1-2.1-2.1-2.1-3.3-4.8-3.3-7.8l1.3-29.9c.1-4.1 4.8-6.2 8.3-3.6l33.9 26z" fill="#edb74b"/><path d="M58.1 144c2.7 2 2.4 5.9-.4 7l-25.3 7.2c-2.9 1.1-6.4.3-8.8-2.1-1.8-1.8-3-4.2-3-6.8l.4-25.4c-.1-3.5 4-5.2 7.1-2.9l30 23z" opacity=".71" fill="#ff9a2c"/><path class="st3" d="M34.4 116.8l-31-23.7c-.1-.1-.2-.1-.3-.2C-1.8 88.9-.8 81 5 78.1L31.3 65s3.9 12.3 3.1 51.8m26.2 21.1l31 23.7c2.2 1.7 4.9 2.2 7.4 1.8 3.3-.6 5.9-3.2 6.5-6.5l5.9-29.6c0 .1-12.9-.5-50.8 10.6"/><path class="st3" d="M142.6 2.9c-7-5.4-68.1-6.8-95.1 28.4C29.7 54.6 22 83.4 26.2 105.9c2.1 11.6 35.8 37.3 47.5 36.3 22.8-1.9 48.6-16.9 66.4-40.1 27-35.3 8.5-94.7 2.5-99.2z"/><path d="M154.3 58.3c1.2-6.7-3.6-50.3-11.7-55.4C139 .6 122.9-1.4 104 1.6c0 0 45.2 84.7 50.3 56.7z" opacity=".16" fill="#bbc6fc"/><path d="M115.3 89.8L65.1 51.4c-2.5-1.9-3-5.6-1.1-8.1l6.1-8c8.3-10.9 24-13 34.9-4.7L123.8 45c11.4 8.7 13.6 25.2 4.9 36.7l-5.4 7c-1.8 2.5-5.4 3-8 1.1z" fill="#445ee0"/><path d="M113.4 84.9L71.1 52.6c-2.5-1.9-3-5.6-1.1-8.1l2.8-3.7c8.3-10.9 24-13 34.9-4.7l10.9 8.3c11.4 8.7 13.6 25.2 4.9 36.7l-2 2.7c-1.9 2.5-5.6 3-8.1 1.1z" fill="#e6ebfc"/><path d="M102.2 117.9c-16 8.2-34.4 9.8-48.2.9-12.2-11-15.5-29.1-11.8-46.7C48.9 40.5 48 30.7 48 30.7 30.2 54 22.5 82.8 26.6 105.3c1.1 5.8 10.1 15.2 20.2 22.9 10.2 7.8 21.5 14 27.4 13.5 22.8-1.9 48.5-16.9 66.3-40.2.1 0-9.6 1.6-38.3 16.4z" opacity=".12" fill="#b1befc"/><path d="M113.1 76.8L79.4 51.1c-2-1.5-3.1-3.5-2.4-4.4l1-1.3c2.9-3.8 12.3-1.5 21 5.2l8.7 6.6c9.1 7 14.1 15.9 11 19.9l-.7.9c-.7.9-2.9.3-4.9-1.2z" opacity=".7" fill="#b1befc"/></svg>