<svg viewBox="0 0 512 512" xmlns="http://www.w3.org/2000/svg"><path d="m223 73.56-108.5 62.64a66 66 0 0 0 -33 57.16v125.28a66 66 0 0 0 33 57.16l108.5 62.64a66 66 0 0 0 66 0l108.5-62.64a66 66 0 0 0 33-57.16v-125.28a66 66 0 0 0 -33-57.16l-108.5-62.64a66 66 0 0 0 -66 0z" fill="#458ffb"/><g fill="#fff"><path d="m186.37 188h26.45l-14.59 70-3.6 17.23a25.49 25.49 0 0 0 -.35 4.13 16.12 16.12 0 0 0 5.58 12.61q5.58 5 16.21 5 9.59 0 15.82-3.6a24 24 0 0 0 9.67-10.72q3.44-7.12 6.94-24.17l14.77-70.48h26.45l-14.67 70.5q-4.67 22.23-10.73 34a47.58 47.58 0 0 1 -18.32 19.17q-12.32 7.38-31.12 7.38-22.5 0-34.45-11t-11.95-28.34a54.39 54.39 0 0 1 .61-7.82q.34-2.82 3.08-16z"/><path d="m288.23 316.86 27-128.85h26.46l-26.9 128.85z"/></g></svg>