<svg viewBox="0 0 512 512" xmlns="http://www.w3.org/2000/svg"><path d="m223 73.56-108.5 62.64a66 66 0 0 0 -33 57.16v125.28a66 66 0 0 0 33 57.16l108.5 62.64a66 66 0 0 0 66 0l108.5-62.64a66 66 0 0 0 33-57.16v-125.28a66 66 0 0 0 -33-57.16l-108.5-62.64a66 66 0 0 0 -66 0z" fill="#8c5dfb"/><g fill="#fff"><path d="m160.34 187h26.46l-14.59 70-3.61 17.2a26.67 26.67 0 0 0 -.35 4.13 16.15 16.15 0 0 0 5.58 12.61q5.58 5 16.22 5 9.57 0 15.82-3.6a24 24 0 0 0 9.67-10.72q3.42-7.12 6.94-24.17l14.77-70.45h26.45l-14.7 70.5q-4.65 22.23-10.72 34a47.61 47.61 0 0 1 -18.37 19.16q-12.3 7.38-31.11 7.38-22.5 0-34.46-11t-12-28.34a54.48 54.48 0 0 1 .62-7.82q.34-2.82 3.07-16z"/><path d="m266.79 315.86h-34.27l56.86-65.22-32-63.63h27.69l12.56 24.17q.62 1.32 8.62 17.84a19.11 19.11 0 0 1 1.14 2.37q10.73-13.09 18-21.44l20.33-22.95h33.28l-59 67.85 31.72 61h-29.82l-9.67-19.43q-7.56-15.37-10-22.06-3.42 5.19-17.66 21.45z"/></g></svg>