<svg enable-background="new 0 0 200 200" viewBox="0 0 200 200" xmlns="http://www.w3.org/2000/svg"><g fill="#fff"><path d="m100 0c-55.23 0-100 44.77-100 100s44.77 100 100 100 100-44.77 100-100-44.77-100-100-100zm26.38 142.09h-52.31c-1.38 0-2.5-1.3-2.5-2.9 0-1.59 1.13-2.9 2.5-2.9h52.3c1.39 0 2.52 1.3 2.52 2.9-.01 1.6-1.13 2.9-2.51 2.9zm17.11-20.94c0 2.75-2.23 4.98-4.98 4.98h-77.02c-2.75 0-4.98-2.23-4.98-4.98v-56c0-2.75 2.23-4.98 4.98-4.98h77.02c2.75 0 4.98 2.22 4.99 4.98v56z"/><path d="m129.47 76.28c-.92-.07-1.79.24-2.47.84l-20.4 17.78c-.28.25-.68.29-1.01.11l-14.16-7.87c-2.21-1.24-5-.81-6.76 1.02l-14.74 15.54c-1.3 1.36-1.26 3.51.1 4.81.63.62 1.46.95 2.35.95.92 0 1.82-.38 2.46-1.05l13.62-14.37c.27-.29.72-.36 1.06-.16l14.04 7.8c2.06 1.14 4.63.87 6.4-.68l21.5-18.76c.69-.6 1.11-1.43 1.16-2.34.05-.9-.24-1.78-.83-2.46s-1.41-1.1-2.32-1.16z"/></g></svg>