<?xml version="1.0" encoding="utf-8"?>
<!-- Generator: Adobe Illustrator 24.1.2, SVG Export Plug-In . SVG Version: 6.00 Build 0)  -->
<svg version="1.1" id="图层_1" xmlns="http://www.w3.org/2000/svg" xmlns:xlink="http://www.w3.org/1999/xlink" x="0px" y="0px"
	 viewBox="0 0 200 200" style="enable-background:new 0 0 200 200;" xml:space="preserve">
<style type="text/css">
	.st0{fill:#FFFFFF;}
</style>
<g>
	<path class="st0" d="M100,0C44.77,0,0,44.77,0,100s44.77,100,100,100s100-44.77,100-100S155.23,0,100,0z M126.38,142.09H74.07
		c-1.38,0-2.5-1.3-2.5-2.9c0-1.59,1.13-2.9,2.5-2.9h52.3c1.39,0,2.52,1.3,2.52,2.9C128.88,140.79,127.76,142.09,126.38,142.09z
		 M143.49,121.15c0,2.75-2.23,4.98-4.98,4.98H61.49c-2.75,0-4.98-2.23-4.98-4.98v-56c0-2.75,2.23-4.98,4.98-4.98h77.02
		c2.75,0,4.98,2.22,4.99,4.98V121.15z"/>
	<path class="st0" d="M129.47,76.28c-0.92-0.07-1.79,0.24-2.47,0.84L106.6,94.9c-0.28,0.25-0.68,0.29-1.01,0.11l-14.16-7.87
		c-2.21-1.24-5-0.81-6.76,1.02L69.93,103.7c-1.3,1.36-1.26,3.51,0.1,4.81c0.63,0.62,1.46,0.95,2.35,0.95c0.92,0,1.82-0.38,2.46-1.05
		l13.62-14.37c0.27-0.29,0.72-0.36,1.06-0.16l14.04,7.8c2.06,1.14,4.63,0.87,6.4-0.68l21.5-18.76c0.69-0.6,1.11-1.43,1.16-2.34
		c0.05-0.9-0.24-1.78-0.83-2.46C131.2,76.76,130.38,76.34,129.47,76.28z"/>
</g>
</svg>
