<svg enable-background="new 0 0 116.7 103.5" viewBox="0 0 116.7 103.5" xmlns="http://www.w3.org/2000/svg"><path d="m92.5 13.1c9.7 13.2 8.9 31.4 8.9 31.4-.4 26.9-22 38.7-22 38.7-16.5 9.3-35.5 3-35.5 3-16.7-4.7-24.6-21.1-24.6-21.1-8.7-17.8 0-33 0-33 10.1-17.8 28.1-16.7 28.1-16.7 19.2 0 25 16.7 25 16.7 1.9 4.5 2.4 4.5 4.9 4.5h6.8c2.3 0 4.2-1.9 4.2-4.2-.9-14.5-15.9-25.1-15.9-25.1-15.6-10-31.1-7.8-40.9-4.5-6.8 2.3-12.9 6.4-17.8 11.7-18.8 20.6-12.8 43.8-12.8 43.8 1.8 11.7 7.3 20.5 13.3 26.9 11.9 12.7 29.1 19.1 46.5 18.3 15-.7 24.6-6.3 24.6-6.3 31.4-17 31.3-50.4 31.3-50.4.8-17.8-5.6-31.2-9.4-37.5-1.5-2.5-4.2-4-7.1-4l-6.6.1s-3.5.1-3.2 3c.1 1.8 1.2 3.3 2.2 4.7z" fill="#3166ff"/><path d="m85.4 45.7c2 0 3.7 1.8 3.4 3.8-1.9 15.3-14.9 27.2-30.8 27.2-15.8 0-28.9-11.9-30.8-27.2-.2-2 1.4-3.8 3.4-3.8h7.2c2 0 3.7 1.4 4.1 3.3 1.7 7.2 8.2 12 16.1 12s14.5-4.9 16-12.1c.4-1.9 2.1-3.3 4.1-3.3h7.3z" fill="#ff2403"/></svg>