<svg enable-background="new 0 0 176.9 172" viewBox="0 0 176.9 172" xmlns="http://www.w3.org/2000/svg"><path d="m81.9 33.3c-3.3 1.9-7.6.8-9.5-2.5l-11.8-20.4c-1.9-3.3-.8-7.6 2.5-9.5s7.6-.8 9.5 2.5l11.8 20.4c1.9 3.4.8 7.6-2.5 9.5zm12 8.4c-3.1-1.8-4.2-5.8-2.4-9l12.1-21c1.8-3.1 5.8-4.2 9-2.4 3.1 1.8 4.2 5.8 2.4 9l-12.1 21c-1.8 3.2-5.8 4.2-9 2.4z" fill="#f9b428"/><path d="m128.2 171h-79.5c-26.9 0-48.7-21.8-48.7-48.6v-44.7c0-26.9 21.8-48.7 48.7-48.7h79.5c26.9 0 48.7 21.8 48.7 48.7v44.7c0 26.8-21.8 48.6-48.7 48.6z" fill="#4077ff"/><path d="m126 172h-75c-13.6 0-26.4-5.3-36-14.9-9.7-9.6-15-22.4-15-36v-42.2c0-13.6 5.3-26.4 14.9-36s22.4-14.9 36-14.9h75c13.6 0 26.4 5.3 36 14.9s14.9 22.4 14.9 36v42.2c0 13.6-5.3 26.4-14.9 36s-22.3 14.9-35.9 14.9zm-75.1-134c-10.9 0-21.2 4.2-28.9 12s-12 18-12 29v42.2c0 10.9 4.3 21.2 12 29s18 12 29 12h75c10.9 0 21.2-4.3 29-12s12-18 12-29v-42.3c0-10.9-4.3-21.2-12-29s-18-12-29-12c0 .1-75.1.1-75.1.1z" fill="#6899fc" opacity=".33"/><path d="m113 148.6h-48.8c-8.8 0-17.2-3.4-23.4-9.7s-9.7-14.6-9.7-23.4v-27.4c0-8.8 3.4-17.2 9.7-23.4s14.6-9.7 23.4-9.7h48.8c8.8 0 17.2 3.4 23.4 9.7s9.7 14.6 9.7 23.4v27.4c0 8.8-3.4 17.2-9.7 23.4-6.2 6.3-14.5 9.7-23.4 9.7z" fill="#2f60ea" opacity=".59"/><path d="m111.8 146.3h-46.4c-8.4 0-16.3-3.3-22.3-9.2s-9.2-13.9-9.2-22.3v-26c0-8.4 3.3-16.3 9.2-22.3s13.9-9.2 22.3-9.2h46.4c8.4 0 16.3 3.3 22.3 9.2 5.9 5.9 9.2 13.9 9.2 22.3v26.1c0 8.4-3.3 16.3-9.2 22.3-5.9 5.9-13.8 9.1-22.3 9.1z" fill="#fff" opacity=".47"/><path d="m110.6 143.8h-44.3c-8 0-15.6-3.1-21.3-8.7s-8.8-13.1-8.8-21.1v-24.8c0-8 3.1-15.5 8.8-21.1s13.2-8.7 21.3-8.7h44.3c8 0 15.6 3.1 21.3 8.7s8.8 13.1 8.8 21.1v24.7c0 8-3.1 15.5-8.8 21.1-5.7 5.7-13.2 8.8-21.3 8.8z" fill="#fff"/><path d="m114.8 92-34.5-19.3c-6.5-3.7-14.6.9-14.3 8l1.8 44.4c.3 7.6 9.6 11.7 15.7 7l32.7-25.1c5.1-4 4.4-11.8-1.4-15z" fill="#f9c969" opacity=".33"/><path d="m108.9 94.4-26.8-14.9c-5.1-2.8-11.3.7-11.1 6.2l1.4 34.5c.2 5.9 7.5 9.1 12.2 5.4l25.4-19.5c4-3.1 3.4-9.1-1.1-11.7z" fill="#ff9406"/><path d="m70.3 85.9 2.3 34.4c.4 5.5 7 8.4 11.7 5l25-17.7s-3.6-3.6-6.2-.9-18.6 15.6-24.6 14.6c-5.9-1-3.5-27.4-3.5-27.4s.1-8.6-4.7-8z" fill="#ffca45" opacity=".21"/><path d="m78.9 77.4 30.5 16.2s6.4 7.6-5.6 10.1c-12 2.4-33.4-20.8-24.9-26.3z" fill="#f9db98" opacity=".27"/></svg>